{"glyphs":{"0":{"ha":1007,"x_min":0,"x_max":0,"o":"m 276 33 b 123 183 209 69 159 118 b 69 408 87 247 69 322 l 69 561 b 123 787 69 647 87 722 b 276 936 159 851 209 901 b 508 989 342 971 419 989 b 740 936 596 989 673 971 b 892 787 806 901 857 851 b 946 561 928 722 946 647 l 946 408 b 892 183 946 322 928 247 b 740 33 857 118 806 69 b 508 -19 673 -2 596 -19 b 276 33 419 -19 342 -2 m 660 244 b 717 408 698 285 717 340 l 717 561 b 661 726 717 631 698 685 b 508 786 624 766 573 786 b 356 726 444 786 393 766 b 300 561 319 685 300 631 l 300 408 b 356 244 300 339 319 284 b 508 183 393 203 444 183 b 660 244 572 183 623 204 "},"1":{"ha":640,"x_min":0,"x_max":0,"o":"m 607 186 l 607 0 l 60 0 l 60 186 l 231 186 l 231 713 l 76 667 l 76 858 l 432 983 l 454 983 l 454 186 "},"2":{"ha":951,"x_min":0,"x_max":0,"o":"m 875 194 l 875 0 l 69 0 l 69 232 b 174 473 69 338 104 418 b 475 556 244 528 344 556 b 602 590 528 556 570 567 b 650 679 634 613 650 643 b 606 763 650 714 635 742 b 486 793 577 783 537 793 b 359 763 431 793 389 783 b 310 674 329 742 313 713 l 82 674 b 192 902 84 771 121 847 b 486 985 264 957 362 985 b 694 948 566 985 635 972 b 831 842 754 923 799 888 b 879 682 863 797 879 743 b 479 369 879 474 746 369 b 344 335 421 369 376 358 b 296 238 312 313 296 280 l 296 194 "},"3":{"ha":940,"x_min":0,"x_max":0,"o":"m 838 413 b 878 279 865 376 878 331 b 826 124 878 221 860 169 b 681 20 791 79 743 45 b 465 -17 619 -4 547 -17 b 251 24 384 -17 313 -3 b 109 137 190 50 143 88 b 58 306 75 185 58 242 l 286 306 b 338 214 286 268 303 237 b 474 179 372 191 417 179 b 599 211 525 179 567 190 b 646 297 630 232 646 261 b 603 381 646 333 631 361 b 481 410 574 400 533 410 l 306 410 l 306 583 l 465 583 b 589 610 519 583 560 592 b 632 685 618 627 632 652 b 588 763 632 717 617 743 b 467 793 558 783 518 793 b 342 762 415 793 373 783 b 296 679 311 741 296 713 l 74 679 b 123 842 74 741 90 795 b 260 949 156 888 202 924 b 467 988 319 975 388 988 b 668 951 543 988 610 975 b 805 848 726 926 772 892 b 854 697 838 804 854 754 b 818 575 854 652 842 611 b 722 497 794 539 762 513 b 838 413 773 479 812 451 "},"4":{"ha":947,"x_min":0,"x_max":0,"o":"m 888 175 l 781 175 l 781 0 l 560 0 l 560 175 l 46 175 l 28 375 l 550 972 l 781 972 l 781 367 l 888 367 m 269 364 l 561 364 l 561 700 "},"5":{"ha":918,"x_min":0,"x_max":0,"o":"m 765 549 b 865 308 832 494 865 414 b 816 139 865 244 849 188 b 677 25 783 90 737 52 b 471 -15 617 -2 549 -15 b 172 68 341 -15 242 13 b 68 307 103 124 68 203 l 299 307 b 344 215 299 268 314 237 b 468 181 375 192 416 181 b 589 216 519 181 559 192 b 633 311 619 240 633 271 b 590 406 633 352 619 383 b 467 439 562 428 520 439 l 94 439 l 94 972 l 813 972 l 813 774 l 315 774 l 315 631 l 467 631 b 765 549 598 631 697 603 "},"6":{"ha":961,"x_min":0,"x_max":0,"o":"m 735 590 b 861 480 790 564 831 528 b 906 315 891 432 906 377 b 853 142 906 250 888 192 b 708 26 819 92 770 53 b 490 -15 645 -2 573 -15 b 270 25 407 -15 334 -2 b 124 140 207 52 158 90 b 72 314 89 190 72 248 l 72 657 b 124 831 72 723 89 781 b 268 947 158 881 206 919 b 483 988 330 974 402 988 b 779 910 610 988 709 962 b 886 696 850 859 885 788 l 660 696 b 608 770 657 727 640 752 b 485 797 577 788 536 797 b 354 758 431 797 388 784 b 304 654 321 731 304 697 l 304 557 b 413 610 334 580 370 598 b 549 629 455 623 500 629 b 735 590 619 629 681 616 m 624 219 b 675 315 658 243 675 275 b 624 413 675 355 658 388 b 489 450 589 438 544 450 b 353 413 432 450 387 438 b 303 315 320 389 303 356 b 353 218 303 275 320 242 b 489 182 387 194 432 182 b 624 219 544 182 589 194 "},"7":{"ha":810,"x_min":0,"x_max":0,"o":"m 792 972 l 792 860 l 367 0 l 108 0 l 499 772 l 35 772 l 35 972 "},"8":{"ha":967,"x_min":0,"x_max":0,"o":"m 864 414 b 901 281 889 373 901 329 b 792 59 901 185 865 111 b 483 -19 719 7 616 -19 b 176 60 353 -19 250 7 b 65 281 102 114 65 187 b 103 414 65 329 78 373 b 200 504 128 455 160 485 b 123 594 167 529 141 559 b 96 708 105 628 96 667 b 144 857 96 765 112 814 b 279 956 176 900 221 932 b 483 990 338 979 406 990 b 689 956 562 990 631 979 b 824 857 747 932 792 900 b 871 708 855 814 871 765 b 844 594 871 668 862 630 b 767 504 826 559 800 529 b 864 414 806 485 839 455 m 363 776 b 317 692 332 755 317 727 b 363 608 317 657 332 630 b 483 576 393 587 433 576 b 604 608 533 576 574 587 b 650 692 635 630 650 657 b 604 776 650 727 635 755 b 483 808 574 798 533 808 b 363 776 433 808 393 798 m 619 206 b 669 294 653 228 669 257 b 619 383 669 331 653 361 b 483 417 586 406 541 417 b 347 383 426 417 381 406 b 297 294 314 361 297 331 b 347 206 297 257 314 228 b 483 172 381 183 426 172 b 619 206 541 172 586 183 "},"9":{"ha":957,"x_min":0,"x_max":0,"o":"m 685 946 b 832 830 748 918 797 879 b 885 658 867 780 885 723 l 885 318 b 833 142 885 250 868 192 b 688 26 799 92 750 53 b 469 -15 625 -2 552 -15 b 172 61 342 -15 242 10 b 64 278 101 112 65 184 l 292 278 b 342 203 294 246 310 221 b 467 175 374 184 416 175 b 599 216 519 175 564 189 b 653 324 635 243 653 279 l 653 413 b 419 343 592 366 514 343 b 228 381 346 343 282 356 b 101 491 173 407 131 443 b 57 657 72 539 57 594 b 108 831 57 723 74 781 b 251 947 141 881 189 919 b 467 988 313 974 385 988 b 685 946 549 988 622 974 m 603 559 b 654 657 637 584 654 616 b 603 753 654 697 637 729 b 471 790 570 778 525 790 b 338 753 415 790 371 778 b 288 657 304 729 288 697 b 338 559 288 616 304 584 b 471 522 371 534 415 522 b 603 559 525 522 570 534 "},"̉":{"ha":914,"x_min":0,"x_max":0,"o":"m 824 972 l 824 0 l 54 0 l 54 972 m 493 356 b 509 406 493 376 498 393 b 560 438 520 419 537 429 b 667 506 609 454 645 477 b 701 615 690 535 701 572 b 631 772 701 681 678 733 b 439 829 584 810 520 829 b 302 801 387 829 341 820 b 212 722 263 782 233 756 b 183 607 191 689 181 650 l 326 607 b 358 678 326 637 337 660 b 443 704 378 695 407 704 b 525 681 478 704 506 696 b 554 615 544 665 554 643 b 533 564 554 595 547 578 b 465 528 518 550 496 538 b 378 469 425 514 396 494 b 350 367 359 443 350 409 l 350 336 l 493 336 l 493 356 m 483 136 b 506 193 498 151 506 170 b 483 250 506 216 498 235 b 424 272 467 265 448 272 b 364 250 400 272 380 265 b 340 193 348 235 340 216 b 364 136 340 170 348 151 b 424 114 380 121 400 114 b 483 136 448 114 467 121 "},"ν":{"ha":914,"x_min":0,"x_max":0,"o":"m 54 972 l 54 0 l 824 0 l 824 972 m 493 356 l 493 336 l 350 336 l 350 367 b 378 469 350 409 359 443 b 465 528 396 494 425 514 b 533 564 496 538 518 550 b 554 615 547 578 554 595 b 525 681 554 643 544 665 b 443 704 506 696 478 704 b 358 678 407 704 378 695 b 326 607 337 660 326 637 l 183 607 b 212 722 181 650 191 689 b 302 801 233 756 263 782 b 439 829 341 820 387 829 b 631 772 520 829 584 810 b 701 615 678 733 701 681 b 667 506 701 572 690 535 b 560 438 645 477 609 454 b 509 406 537 429 520 419 b 493 356 498 393 493 376 m 483 136 b 424 114 467 121 448 114 b 364 136 400 114 380 121 b 340 193 348 151 340 170 b 364 250 340 216 348 235 b 424 272 380 265 400 272 b 483 250 448 272 467 265 b 506 193 498 235 506 216 b 483 136 506 170 498 151 "},"ξ":{"ha":914,"x_min":0,"x_max":0,"o":"m 824 972 l 824 0 l 54 0 l 54 972 m 493 356 b 509 406 493 376 498 393 b 560 438 520 419 537 429 b 667 506 609 454 645 477 b 701 615 690 535 701 572 b 631 772 701 681 678 733 b 439 829 584 810 520 829 b 302 801 387 829 341 820 b 212 722 263 782 233 756 b 183 607 191 689 181 650 l 326 607 b 358 678 326 637 337 660 b 443 704 378 695 407 704 b 525 681 478 704 506 696 b 554 615 544 665 554 643 b 533 564 554 595 547 578 b 465 528 518 550 496 538 b 378 469 425 514 396 494 b 350 367 359 443 350 409 l 350 336 l 493 336 l 493 356 m 483 136 b 506 193 498 151 506 170 b 483 250 506 216 498 235 b 424 272 467 265 448 272 b 364 250 400 272 380 265 b 340 193 348 235 340 216 b 364 136 340 170 348 151 b 424 114 380 121 400 114 b 483 136 448 114 467 121 "},"ο":{"ha":914,"x_min":0,"x_max":0,"o":"m 54 972 l 54 0 l 824 0 l 824 972 m 493 356 l 493 336 l 350 336 l 350 367 b 378 469 350 409 359 443 b 465 528 396 494 425 514 b 533 564 496 538 518 550 b 554 615 547 578 554 595 b 525 681 554 643 544 665 b 443 704 506 696 478 704 b 358 678 407 704 378 695 b 326 607 337 660 326 637 l 183 607 b 212 722 181 650 191 689 b 302 801 233 756 263 782 b 439 829 341 820 387 829 b 631 772 520 829 584 810 b 701 615 678 733 701 681 b 667 506 701 572 690 535 b 560 438 645 477 609 454 b 509 406 537 429 520 419 b 493 356 498 393 493 376 m 483 136 b 424 114 467 121 448 114 b 364 136 400 114 380 121 b 340 193 348 151 340 170 b 364 250 340 216 348 235 b 424 272 380 265 400 272 b 483 250 448 272 467 265 b 506 193 498 235 506 216 b 483 136 506 170 498 151 "}," ":{"ha":914,"x_min":0,"x_max":0,"o":"m 824 972 l 824 0 l 54 0 l 54 972 m 493 356 b 509 406 493 376 498 393 b 560 438 520 419 537 429 b 667 506 609 454 645 477 b 701 615 690 535 701 572 b 631 772 701 681 678 733 b 439 829 584 810 520 829 b 302 801 387 829 341 820 b 212 722 263 782 233 756 b 183 607 191 689 181 650 l 326 607 b 358 678 326 637 337 660 b 443 704 378 695 407 704 b 525 681 478 704 506 696 b 554 615 544 665 554 643 b 533 564 554 595 547 578 b 465 528 518 550 496 538 b 378 469 425 514 396 494 b 350 367 359 443 350 409 l 350 336 l 493 336 l 493 356 m 483 136 b 506 193 498 151 506 170 b 483 250 506 216 498 235 b 424 272 467 265 448 272 b 364 250 400 272 380 265 b 340 193 348 235 340 216 b 364 136 340 170 348 151 b 424 114 380 121 400 114 b 483 136 448 114 467 121 "},"―":{"ha":914,"x_min":0,"x_max":0,"o":"m 54 972 l 54 0 l 824 0 l 824 972 m 493 356 l 493 336 l 350 336 l 350 367 b 378 469 350 409 359 443 b 465 528 396 494 425 514 b 533 564 496 538 518 550 b 554 615 547 578 554 595 b 525 681 554 643 544 665 b 443 704 506 696 478 704 b 358 678 407 704 378 695 b 326 607 337 660 326 637 l 183 607 b 212 722 181 650 191 689 b 302 801 233 756 263 782 b 439 829 341 820 387 829 b 631 772 520 829 584 810 b 701 615 678 733 701 681 b 667 506 701 572 690 535 b 560 438 645 477 609 454 b 509 406 537 429 520 419 b 493 356 498 393 493 376 m 483 136 b 424 114 467 121 448 114 b 364 136 400 114 380 121 b 340 193 348 151 340 170 b 364 250 340 216 348 235 b 424 272 380 265 400 272 b 483 250 448 272 467 265 b 506 193 498 235 506 216 b 483 136 506 170 498 151 "},"‖":{"ha":914,"x_min":0,"x_max":0,"o":"m 824 972 l 824 0 l 54 0 l 54 972 m 493 356 b 509 406 493 376 498 393 b 560 438 520 419 537 429 b 667 506 609 454 645 477 b 701 615 690 535 701 572 b 631 772 701 681 678 733 b 439 829 584 810 520 829 b 302 801 387 829 341 820 b 212 722 263 782 233 756 b 183 607 191 689 181 650 l 326 607 b 358 678 326 637 337 660 b 443 704 378 695 407 704 b 525 681 478 704 506 696 b 554 615 544 665 554 643 b 533 564 554 595 547 578 b 465 528 518 550 496 538 b 378 469 425 514 396 494 b 350 367 359 443 350 409 l 350 336 l 493 336 l 493 356 m 483 136 b 506 193 498 151 506 170 b 483 250 506 216 498 235 b 424 272 467 265 448 272 b 364 250 400 272 380 265 b 340 193 348 235 340 216 b 364 136 340 170 348 151 b 424 114 380 121 400 114 b 483 136 448 114 467 121 "},"‗":{"ha":914,"x_min":0,"x_max":0,"o":"m 54 972 l 54 0 l 824 0 l 824 972 m 493 356 l 493 336 l 350 336 l 350 367 b 378 469 350 409 359 443 b 465 528 396 494 425 514 b 533 564 496 538 518 550 b 554 615 547 578 554 595 b 525 681 554 643 544 665 b 443 704 506 696 478 704 b 358 678 407 704 378 695 b 326 607 337 660 326 637 l 183 607 b 212 722 181 650 191 689 b 302 801 233 756 263 782 b 439 829 341 820 387 829 b 631 772 520 829 584 810 b 701 615 678 733 701 681 b 667 506 701 572 690 535 b 560 438 645 477 609 454 b 509 406 537 429 520 419 b 493 356 498 393 493 376 m 483 136 b 424 114 467 121 448 114 b 364 136 400 114 380 121 b 340 193 348 151 340 170 b 364 250 340 216 348 235 b 424 272 380 265 400 272 b 483 250 448 272 467 265 b 506 193 498 235 506 216 b 483 136 506 170 498 151 "},"‛":{"ha":914,"x_min":0,"x_max":0,"o":"m 824 972 l 824 0 l 54 0 l 54 972 m 493 356 b 509 406 493 376 498 393 b 560 438 520 419 537 429 b 667 506 609 454 645 477 b 701 615 690 535 701 572 b 631 772 701 681 678 733 b 439 829 584 810 520 829 b 302 801 387 829 341 820 b 212 722 263 782 233 756 b 183 607 191 689 181 650 l 326 607 b 358 678 326 637 337 660 b 443 704 378 695 407 704 b 525 681 478 704 506 696 b 554 615 544 665 554 643 b 533 564 554 595 547 578 b 465 528 518 550 496 538 b 378 469 425 514 396 494 b 350 367 359 443 350 409 l 350 336 l 493 336 l 493 356 m 483 136 b 506 193 498 151 506 170 b 483 250 506 216 498 235 b 424 272 467 265 448 272 b 364 250 400 272 380 265 b 340 193 348 235 340 216 b 364 136 340 170 348 151 b 424 114 380 121 400 114 b 483 136 448 114 467 121 "},"‟":{"ha":914,"x_min":0,"x_max":0,"o":"m 54 972 l 54 0 l 824 0 l 824 972 m 493 356 l 493 336 l 350 336 l 350 367 b 378 469 350 409 359 443 b 465 528 396 494 425 514 b 533 564 496 538 518 550 b 554 615 547 578 554 595 b 525 681 554 643 544 665 b 443 704 506 696 478 704 b 358 678 407 704 378 695 b 326 607 337 660 326 637 l 183 607 b 212 722 181 650 191 689 b 302 801 233 756 263 782 b 439 829 341 820 387 829 b 631 772 520 829 584 810 b 701 615 678 733 701 681 b 667 506 701 572 690 535 b 560 438 645 477 609 454 b 509 406 537 429 520 419 b 493 356 498 393 493 376 m 483 136 b 424 114 467 121 448 114 b 364 136 400 114 380 121 b 340 193 348 151 340 170 b 364 250 340 216 348 235 b 424 272 380 265 400 272 b 483 250 448 272 467 265 b 506 193 498 235 506 216 b 483 136 506 170 498 151 "},"‣":{"ha":914,"x_min":0,"x_max":0,"o":"m 824 972 l 824 0 l 54 0 l 54 972 m 493 356 b 509 406 493 376 498 393 b 560 438 520 419 537 429 b 667 506 609 454 645 477 b 701 615 690 535 701 572 b 631 772 701 681 678 733 b 439 829 584 810 520 829 b 302 801 387 829 341 820 b 212 722 263 782 233 756 b 183 607 191 689 181 650 l 326 607 b 358 678 326 637 337 660 b 443 704 378 695 407 704 b 525 681 478 704 506 696 b 554 615 544 665 554 643 b 533 564 554 595 547 578 b 465 528 518 550 496 538 b 378 469 425 514 396 494 b 350 367 359 443 350 409 l 350 336 l 493 336 l 493 356 m 483 136 b 506 193 498 151 506 170 b 483 250 506 216 498 235 b 424 272 467 265 448 272 b 364 250 400 272 380 265 b 340 193 348 235 340 216 b 364 136 340 170 348 151 b 424 114 380 121 400 114 b 483 136 448 114 467 121 "},"․":{"ha":914,"x_min":0,"x_max":0,"o":"m 54 972 l 54 0 l 824 0 l 824 972 m 493 356 l 493 336 l 350 336 l 350 367 b 378 469 350 409 359 443 b 465 528 396 494 425 514 b 533 564 496 538 518 550 b 554 615 547 578 554 595 b 525 681 554 643 544 665 b 443 704 506 696 478 704 b 358 678 407 704 378 695 b 326 607 337 660 326 637 l 183 607 b 212 722 181 650 191 689 b 302 801 233 756 263 782 b 439 829 341 820 387 829 b 631 772 520 829 584 810 b 701 615 678 733 701 681 b 667 506 701 572 690 535 b 560 438 645 477 609 454 b 509 406 537 429 520 419 b 493 356 498 393 493 376 m 483 136 b 424 114 467 121 448 114 b 364 136 400 114 380 121 b 340 193 348 151 340 170 b 364 250 340 216 348 235 b 424 272 380 265 400 272 b 483 250 448 272 467 265 b 506 193 498 235 506 216 b 483 136 506 170 498 151 "},"‥":{"ha":914,"x_min":0,"x_max":0,"o":"m 824 972 l 824 0 l 54 0 l 54 972 m 493 356 b 509 406 493 376 498 393 b 560 438 520 419 537 429 b 667 506 609 454 645 477 b 701 615 690 535 701 572 b 631 772 701 681 678 733 b 439 829 584 810 520 829 b 302 801 387 829 341 820 b 212 722 263 782 233 756 b 183 607 191 689 181 650 l 326 607 b 358 678 326 637 337 660 b 443 704 378 695 407 704 b 525 681 478 704 506 696 b 554 615 544 665 554 643 b 533 564 554 595 547 578 b 465 528 518 550 496 538 b 378 469 425 514 396 494 b 350 367 359 443 350 409 l 350 336 l 493 336 l 493 356 m 483 136 b 506 193 498 151 506 170 b 483 250 506 216 498 235 b 424 272 467 265 448 272 b 364 250 400 272 380 265 b 340 193 348 235 340 216 b 364 136 340 170 348 151 b 424 114 380 121 400 114 b 483 136 448 114 467 121 "},"‱":{"ha":914,"x_min":0,"x_max":0,"o":"m 54 972 l 54 0 l 824 0 l 824 972 m 493 356 l 493 336 l 350 336 l 350 367 b 378 469 350 409 359 443 b 465 528 396 494 425 514 b 533 564 496 538 518 550 b 554 615 547 578 554 595 b 525 681 554 643 544 665 b 443 704 506 696 478 704 b 358 678 407 704 378 695 b 326 607 337 660 326 637 l 183 607 b 212 722 181 650 191 689 b 302 801 233 756 263 782 b 439 829 341 820 387 829 b 631 772 520 829 584 810 b 701 615 678 733 701 681 b 667 506 701 572 690 535 b 560 438 645 477 609 454 b 509 406 537 429 520 419 b 493 356 498 393 493 376 m 483 136 b 424 114 467 121 448 114 b 364 136 400 114 380 121 b 340 193 348 151 340 170 b 364 250 340 216 348 235 b 424 272 380 265 400 272 b 483 250 448 272 467 265 b 506 193 498 235 506 216 b 483 136 506 170 498 151 "},"※":{"ha":914,"x_min":0,"x_max":0,"o":"m 824 972 l 824 0 l 54 0 l 54 972 m 493 356 b 509 406 493 376 498 393 b 560 438 520 419 537 429 b 667 506 609 454 645 477 b 701 615 690 535 701 572 b 631 772 701 681 678 733 b 439 829 584 810 520 829 b 302 801 387 829 341 820 b 212 722 263 782 233 756 b 183 607 191 689 181 650 l 326 607 b 358 678 326 637 337 660 b 443 704 378 695 407 704 b 525 681 478 704 506 696 b 554 615 544 665 554 643 b 533 564 554 595 547 578 b 465 528 518 550 496 538 b 378 469 425 514 396 494 b 350 367 359 443 350 409 l 350 336 l 493 336 l 493 356 m 483 136 b 506 193 498 151 506 170 b 483 250 506 216 498 235 b 424 272 467 265 448 272 b 364 250 400 272 380 265 b 340 193 348 235 340 216 b 364 136 340 170 348 151 b 424 114 380 121 400 114 b 483 136 448 114 467 121 "},"‼":{"ha":914,"x_min":0,"x_max":0,"o":"m 54 972 l 54 0 l 824 0 l 824 972 m 493 356 l 493 336 l 350 336 l 350 367 b 378 469 350 409 359 443 b 465 528 396 494 425 514 b 533 564 496 538 518 550 b 554 615 547 578 554 595 b 525 681 554 643 544 665 b 443 704 506 696 478 704 b 358 678 407 704 378 695 b 326 607 337 660 326 637 l 183 607 b 212 722 181 650 191 689 b 302 801 233 756 263 782 b 439 829 341 820 387 829 b 631 772 520 829 584 810 b 701 615 678 733 701 681 b 667 506 701 572 690 535 b 560 438 645 477 609 454 b 509 406 537 429 520 419 b 493 356 498 393 493 376 m 483 136 b 424 114 467 121 448 114 b 364 136 400 114 380 121 b 340 193 348 151 340 170 b 364 250 340 216 348 235 b 424 272 380 265 400 272 b 483 250 448 272 467 265 b 506 193 498 235 506 216 b 483 136 506 170 498 151 "},"₻":{"ha":914,"x_min":0,"x_max":0,"o":"m 824 972 l 824 0 l 54 0 l 54 972 m 493 356 b 509 406 493 376 498 393 b 560 438 520 419 537 429 b 667 506 609 454 645 477 b 701 615 690 535 701 572 b 631 772 701 681 678 733 b 439 829 584 810 520 829 b 302 801 387 829 341 820 b 212 722 263 782 233 756 b 183 607 191 689 181 650 l 326 607 b 358 678 326 637 337 660 b 443 704 378 695 407 704 b 525 681 478 704 506 696 b 554 615 544 665 554 643 b 533 564 554 595 547 578 b 465 528 518 550 496 538 b 378 469 425 514 396 494 b 350 367 359 443 350 409 l 350 336 l 493 336 l 493 356 m 483 136 b 506 193 498 151 506 170 b 483 250 506 216 498 235 b 424 272 467 265 448 272 b 364 250 400 272 380 265 b 340 193 348 235 340 216 b 364 136 340 170 348 151 b 424 114 380 121 400 114 b 483 136 448 114 467 121 "},"₼":{"ha":914,"x_min":0,"x_max":0,"o":"m 54 972 l 54 0 l 824 0 l 824 972 m 493 356 l 493 336 l 350 336 l 350 367 b 378 469 350 409 359 443 b 465 528 396 494 425 514 b 533 564 496 538 518 550 b 554 615 547 578 554 595 b 525 681 554 643 544 665 b 443 704 506 696 478 704 b 358 678 407 704 378 695 b 326 607 337 660 326 637 l 183 607 b 212 722 181 650 191 689 b 302 801 233 756 263 782 b 439 829 341 820 387 829 b 631 772 520 829 584 810 b 701 615 678 733 701 681 b 667 506 701 572 690 535 b 560 438 645 477 609 454 b 509 406 537 429 520 419 b 493 356 498 393 493 376 m 483 136 b 424 114 467 121 448 114 b 364 136 400 114 380 121 b 340 193 348 151 340 170 b 364 250 340 216 348 235 b 424 272 380 265 400 272 b 483 250 448 272 467 265 b 506 193 498 235 506 216 b 483 136 506 170 498 151 "},"℔":{"ha":914,"x_min":0,"x_max":0,"o":"m 824 972 l 824 0 l 54 0 l 54 972 m 493 356 b 509 406 493 376 498 393 b 560 438 520 419 537 429 b 667 506 609 454 645 477 b 701 615 690 535 701 572 b 631 772 701 681 678 733 b 439 829 584 810 520 829 b 302 801 387 829 341 820 b 212 722 263 782 233 756 b 183 607 191 689 181 650 l 326 607 b 358 678 326 637 337 660 b 443 704 378 695 407 704 b 525 681 478 704 506 696 b 554 615 544 665 554 643 b 533 564 554 595 547 578 b 465 528 518 550 496 538 b 378 469 425 514 396 494 b 350 367 359 443 350 409 l 350 336 l 493 336 l 493 356 m 483 136 b 506 193 498 151 506 170 b 483 250 506 216 498 235 b 424 272 467 265 448 272 b 364 250 400 272 380 265 b 340 193 348 235 340 216 b 364 136 340 170 348 151 b 424 114 380 121 400 114 b 483 136 448 114 467 121 "},"ℕ":{"ha":914,"x_min":0,"x_max":0,"o":"m 54 972 l 54 0 l 824 0 l 824 972 m 493 356 l 493 336 l 350 336 l 350 367 b 378 469 350 409 359 443 b 465 528 396 494 425 514 b 533 564 496 538 518 550 b 554 615 547 578 554 595 b 525 681 554 643 544 665 b 443 704 506 696 478 704 b 358 678 407 704 378 695 b 326 607 337 660 326 637 l 183 607 b 212 722 181 650 191 689 b 302 801 233 756 263 782 b 439 829 341 820 387 829 b 631 772 520 829 584 810 b 701 615 678 733 701 681 b 667 506 701 572 690 535 b 560 438 645 477 609 454 b 509 406 537 429 520 419 b 493 356 498 393 493 376 m 483 136 b 424 114 467 121 448 114 b 364 136 400 114 380 121 b 340 193 348 151 340 170 b 364 250 340 216 348 235 b 424 272 380 265 400 272 b 483 250 448 272 467 265 b 506 193 498 235 506 216 b 483 136 506 170 498 151 "},"℣":{"ha":914,"x_min":0,"x_max":0,"o":"m 824 972 l 824 0 l 54 0 l 54 972 m 493 356 b 509 406 493 376 498 393 b 560 438 520 419 537 429 b 667 506 609 454 645 477 b 701 615 690 535 701 572 b 631 772 701 681 678 733 b 439 829 584 810 520 829 b 302 801 387 829 341 820 b 212 722 263 782 233 756 b 183 607 191 689 181 650 l 326 607 b 358 678 326 637 337 660 b 443 704 378 695 407 704 b 525 681 478 704 506 696 b 554 615 544 665 554 643 b 533 564 554 595 547 578 b 465 528 518 550 496 538 b 378 469 425 514 396 494 b 350 367 359 443 350 409 l 350 336 l 493 336 l 493 356 m 483 136 b 506 193 498 151 506 170 b 483 250 506 216 498 235 b 424 272 467 265 448 272 b 364 250 400 272 380 265 b 340 193 348 235 340 216 b 364 136 340 170 348 151 b 424 114 380 121 400 114 b 483 136 448 114 467 121 "},"ℤ":{"ha":914,"x_min":0,"x_max":0,"o":"m 54 972 l 54 0 l 824 0 l 824 972 m 493 356 l 493 336 l 350 336 l 350 367 b 378 469 350 409 359 443 b 465 528 396 494 425 514 b 533 564 496 538 518 550 b 554 615 547 578 554 595 b 525 681 554 643 544 665 b 443 704 506 696 478 704 b 358 678 407 704 378 695 b 326 607 337 660 326 637 l 183 607 b 212 722 181 650 191 689 b 302 801 233 756 263 782 b 439 829 341 820 387 829 b 631 772 520 829 584 810 b 701 615 678 733 701 681 b 667 506 701 572 690 535 b 560 438 645 477 609 454 b 509 406 537 429 520 419 b 493 356 498 393 493 376 m 483 136 b 424 114 467 121 448 114 b 364 136 400 114 380 121 b 340 193 348 151 340 170 b 364 250 340 216 348 235 b 424 272 380 265 400 272 b 483 250 448 272 467 265 b 506 193 498 235 506 216 b 483 136 506 170 498 151 "},"℥":{"ha":914,"x_min":0,"x_max":0,"o":"m 824 972 l 824 0 l 54 0 l 54 972 m 493 356 b 509 406 493 376 498 393 b 560 438 520 419 537 429 b 667 506 609 454 645 477 b 701 615 690 535 701 572 b 631 772 701 681 678 733 b 439 829 584 810 520 829 b 302 801 387 829 341 820 b 212 722 263 782 233 756 b 183 607 191 689 181 650 l 326 607 b 358 678 326 637 337 660 b 443 704 378 695 407 704 b 525 681 478 704 506 696 b 554 615 544 665 554 643 b 533 564 554 595 547 578 b 465 528 518 550 496 538 b 378 469 425 514 396 494 b 350 367 359 443 350 409 l 350 336 l 493 336 l 493 356 m 483 136 b 506 193 498 151 506 170 b 483 250 506 216 498 235 b 424 272 467 265 448 272 b 364 250 400 272 380 265 b 340 193 348 235 340 216 b 364 136 340 170 348 151 b 424 114 380 121 400 114 b 483 136 448 114 467 121 "},"↔":{"ha":914,"x_min":0,"x_max":0,"o":"m 54 972 l 54 0 l 824 0 l 824 972 m 493 356 l 493 336 l 350 336 l 350 367 b 378 469 350 409 359 443 b 465 528 396 494 425 514 b 533 564 496 538 518 550 b 554 615 547 578 554 595 b 525 681 554 643 544 665 b 443 704 506 696 478 704 b 358 678 407 704 378 695 b 326 607 337 660 326 637 l 183 607 b 212 722 181 650 191 689 b 302 801 233 756 263 782 b 439 829 341 820 387 829 b 631 772 520 829 584 810 b 701 615 678 733 701 681 b 667 506 701 572 690 535 b 560 438 645 477 609 454 b 509 406 537 429 520 419 b 493 356 498 393 493 376 m 483 136 b 424 114 467 121 448 114 b 364 136 400 114 380 121 b 340 193 348 151 340 170 b 364 250 340 216 348 235 b 424 272 380 265 400 272 b 483 250 448 272 467 265 b 506 193 498 235 506 216 b 483 136 506 170 498 151 "},"↕":{"ha":914,"x_min":0,"x_max":0,"o":"m 824 972 l 824 0 l 54 0 l 54 972 m 493 356 b 509 406 493 376 498 393 b 560 438 520 419 537 429 b 667 506 609 454 645 477 b 701 615 690 535 701 572 b 631 772 701 681 678 733 b 439 829 584 810 520 829 b 302 801 387 829 341 820 b 212 722 263 782 233 756 b 183 607 191 689 181 650 l 326 607 b 358 678 326 637 337 660 b 443 704 378 695 407 704 b 525 681 478 704 506 696 b 554 615 544 665 554 643 b 533 564 554 595 547 578 b 465 528 518 550 496 538 b 378 469 425 514 396 494 b 350 367 359 443 350 409 l 350 336 l 493 336 l 493 356 m 483 136 b 506 193 498 151 506 170 b 483 250 506 216 498 235 b 424 272 467 265 448 272 b 364 250 400 272 380 265 b 340 193 348 235 340 216 b 364 136 340 170 348 151 b 424 114 380 121 400 114 b 483 136 448 114 467 121 "},"∃":{"ha":914,"x_min":0,"x_max":0,"o":"m 54 972 l 54 0 l 824 0 l 824 972 m 493 356 l 493 336 l 350 336 l 350 367 b 378 469 350 409 359 443 b 465 528 396 494 425 514 b 533 564 496 538 518 550 b 554 615 547 578 554 595 b 525 681 554 643 544 665 b 443 704 506 696 478 704 b 358 678 407 704 378 695 b 326 607 337 660 326 637 l 183 607 b 212 722 181 650 191 689 b 302 801 233 756 263 782 b 439 829 341 820 387 829 b 631 772 520 829 584 810 b 701 615 678 733 701 681 b 667 506 701 572 690 535 b 560 438 645 477 609 454 b 509 406 537 429 520 419 b 493 356 498 393 493 376 m 483 136 b 424 114 467 121 448 114 b 364 136 400 114 380 121 b 340 193 348 151 340 170 b 364 250 340 216 348 235 b 424 272 380 265 400 272 b 483 250 448 272 467 265 b 506 193 498 235 506 216 b 483 136 506 170 498 151 "},"∄":{"ha":914,"x_min":0,"x_max":0,"o":"m 824 972 l 824 0 l 54 0 l 54 972 m 493 356 b 509 406 493 376 498 393 b 560 438 520 419 537 429 b 667 506 609 454 645 477 b 701 615 690 535 701 572 b 631 772 701 681 678 733 b 439 829 584 810 520 829 b 302 801 387 829 341 820 b 212 722 263 782 233 756 b 183 607 191 689 181 650 l 326 607 b 358 678 326 637 337 660 b 443 704 378 695 407 704 b 525 681 478 704 506 696 b 554 615 544 665 554 643 b 533 564 554 595 547 578 b 465 528 518 550 496 538 b 378 469 425 514 396 494 b 350 367 359 443 350 409 l 350 336 l 493 336 l 493 356 m 483 136 b 506 193 498 151 506 170 b 483 250 506 216 498 235 b 424 272 467 265 448 272 b 364 250 400 272 380 265 b 340 193 348 235 340 216 b 364 136 340 170 348 151 b 424 114 380 121 400 114 b 483 136 448 114 467 121 "},"∐":{"ha":914,"x_min":0,"x_max":0,"o":"m 54 972 l 54 0 l 824 0 l 824 972 m 493 356 l 493 336 l 350 336 l 350 367 b 378 469 350 409 359 443 b 465 528 396 494 425 514 b 533 564 496 538 518 550 b 554 615 547 578 554 595 b 525 681 554 643 544 665 b 443 704 506 696 478 704 b 358 678 407 704 378 695 b 326 607 337 660 326 637 l 183 607 b 212 722 181 650 191 689 b 302 801 233 756 263 782 b 439 829 341 820 387 829 b 631 772 520 829 584 810 b 701 615 678 733 701 681 b 667 506 701 572 690 535 b 560 438 645 477 609 454 b 509 406 537 429 520 419 b 493 356 498 393 493 376 m 483 136 b 424 114 467 121 448 114 b 364 136 400 114 380 121 b 340 193 348 151 340 170 b 364 250 340 216 348 235 b 424 272 380 265 400 272 b 483 250 448 272 467 265 b 506 193 498 235 506 216 b 483 136 506 170 498 151 "},"∓":{"ha":914,"x_min":0,"x_max":0,"o":"m 824 972 l 824 0 l 54 0 l 54 972 m 493 356 b 509 406 493 376 498 393 b 560 438 520 419 537 429 b 667 506 609 454 645 477 b 701 615 690 535 701 572 b 631 772 701 681 678 733 b 439 829 584 810 520 829 b 302 801 387 829 341 820 b 212 722 263 782 233 756 b 183 607 191 689 181 650 l 326 607 b 358 678 326 637 337 660 b 443 704 378 695 407 704 b 525 681 478 704 506 696 b 554 615 544 665 554 643 b 533 564 554 595 547 578 b 465 528 518 550 496 538 b 378 469 425 514 396 494 b 350 367 359 443 350 409 l 350 336 l 493 336 l 493 356 m 483 136 b 506 193 498 151 506 170 b 483 250 506 216 498 235 b 424 272 467 265 448 272 b 364 250 400 272 380 265 b 340 193 348 235 340 216 b 364 136 340 170 348 151 b 424 114 380 121 400 114 b 483 136 448 114 467 121 "},"∔":{"ha":914,"x_min":0,"x_max":0,"o":"m 54 972 l 54 0 l 824 0 l 824 972 m 493 356 l 493 336 l 350 336 l 350 367 b 378 469 350 409 359 443 b 465 528 396 494 425 514 b 533 564 496 538 518 550 b 554 615 547 578 554 595 b 525 681 554 643 544 665 b 443 704 506 696 478 704 b 358 678 407 704 378 695 b 326 607 337 660 326 637 l 183 607 b 212 722 181 650 191 689 b 302 801 233 756 263 782 b 439 829 341 820 387 829 b 631 772 520 829 584 810 b 701 615 678 733 701 681 b 667 506 701 572 690 535 b 560 438 645 477 609 454 b 509 406 537 429 520 419 b 493 356 498 393 493 376 m 483 136 b 424 114 467 121 448 114 b 364 136 400 114 380 121 b 340 193 348 151 340 170 b 364 250 340 216 348 235 b 424 272 380 265 400 272 b 483 250 448 272 467 265 b 506 193 498 235 506 216 b 483 136 506 170 498 151 "},"∖":{"ha":914,"x_min":0,"x_max":0,"o":"m 824 972 l 824 0 l 54 0 l 54 972 m 493 356 b 509 406 493 376 498 393 b 560 438 520 419 537 429 b 667 506 609 454 645 477 b 701 615 690 535 701 572 b 631 772 701 681 678 733 b 439 829 584 810 520 829 b 302 801 387 829 341 820 b 212 722 263 782 233 756 b 183 607 191 689 181 650 l 326 607 b 358 678 326 637 337 660 b 443 704 378 695 407 704 b 525 681 478 704 506 696 b 554 615 544 665 554 643 b 533 564 554 595 547 578 b 465 528 518 550 496 538 b 378 469 425 514 396 494 b 350 367 359 443 350 409 l 350 336 l 493 336 l 493 356 m 483 136 b 506 193 498 151 506 170 b 483 250 506 216 498 235 b 424 272 467 265 448 272 b 364 250 400 272 380 265 b 340 193 348 235 340 216 b 364 136 340 170 348 151 b 424 114 380 121 400 114 b 483 136 448 114 467 121 "},"∗":{"ha":914,"x_min":0,"x_max":0,"o":"m 54 972 l 54 0 l 824 0 l 824 972 m 493 356 l 493 336 l 350 336 l 350 367 b 378 469 350 409 359 443 b 465 528 396 494 425 514 b 533 564 496 538 518 550 b 554 615 547 578 554 595 b 525 681 554 643 544 665 b 443 704 506 696 478 704 b 358 678 407 704 378 695 b 326 607 337 660 326 637 l 183 607 b 212 722 181 650 191 689 b 302 801 233 756 263 782 b 439 829 341 820 387 829 b 631 772 520 829 584 810 b 701 615 678 733 701 681 b 667 506 701 572 690 535 b 560 438 645 477 609 454 b 509 406 537 429 520 419 b 493 356 498 393 493 376 m 483 136 b 424 114 467 121 448 114 b 364 136 400 114 380 121 b 340 193 348 151 340 170 b 364 250 340 216 348 235 b 424 272 380 265 400 272 b 483 250 448 272 467 265 b 506 193 498 235 506 216 b 483 136 506 170 498 151 "},"∘":{"ha":914,"x_min":0,"x_max":0,"o":"m 824 972 l 824 0 l 54 0 l 54 972 m 493 356 b 509 406 493 376 498 393 b 560 438 520 419 537 429 b 667 506 609 454 645 477 b 701 615 690 535 701 572 b 631 772 701 681 678 733 b 439 829 584 810 520 829 b 302 801 387 829 341 820 b 212 722 263 782 233 756 b 183 607 191 689 181 650 l 326 607 b 358 678 326 637 337 660 b 443 704 378 695 407 704 b 525 681 478 704 506 696 b 554 615 544 665 554 643 b 533 564 554 595 547 578 b 465 528 518 550 496 538 b 378 469 425 514 396 494 b 350 367 359 443 350 409 l 350 336 l 493 336 l 493 356 m 483 136 b 506 193 498 151 506 170 b 483 250 506 216 498 235 b 424 272 467 265 448 272 b 364 250 400 272 380 265 b 340 193 348 235 340 216 b 364 136 340 170 348 151 b 424 114 380 121 400 114 b 483 136 448 114 467 121 "},"∛":{"ha":914,"x_min":0,"x_max":0,"o":"m 54 972 l 54 0 l 824 0 l 824 972 m 493 356 l 493 336 l 350 336 l 350 367 b 378 469 350 409 359 443 b 465 528 396 494 425 514 b 533 564 496 538 518 550 b 554 615 547 578 554 595 b 525 681 554 643 544 665 b 443 704 506 696 478 704 b 358 678 407 704 378 695 b 326 607 337 660 326 637 l 183 607 b 212 722 181 650 191 689 b 302 801 233 756 263 782 b 439 829 341 820 387 829 b 631 772 520 829 584 810 b 701 615 678 733 701 681 b 667 506 701 572 690 535 b 560 438 645 477 609 454 b 509 406 537 429 520 419 b 493 356 498 393 493 376 m 483 136 b 424 114 467 121 448 114 b 364 136 400 114 380 121 b 340 193 348 151 340 170 b 364 250 340 216 348 235 b 424 272 380 265 400 272 b 483 250 448 272 467 265 b 506 193 498 235 506 216 b 483 136 506 170 498 151 "},"∜":{"ha":914,"x_min":0,"x_max":0,"o":"m 824 972 l 824 0 l 54 0 l 54 972 m 493 356 b 509 406 493 376 498 393 b 560 438 520 419 537 429 b 667 506 609 454 645 477 b 701 615 690 535 701 572 b 631 772 701 681 678 733 b 439 829 584 810 520 829 b 302 801 387 829 341 820 b 212 722 263 782 233 756 b 183 607 191 689 181 650 l 326 607 b 358 678 326 637 337 660 b 443 704 378 695 407 704 b 525 681 478 704 506 696 b 554 615 544 665 554 643 b 533 564 554 595 547 578 b 465 528 518 550 496 538 b 378 469 425 514 396 494 b 350 367 359 443 350 409 l 350 336 l 493 336 l 493 356 m 483 136 b 506 193 498 151 506 170 b 483 250 506 216 498 235 b 424 272 467 265 448 272 b 364 250 400 272 380 265 b 340 193 348 235 340 216 b 364 136 340 170 348 151 b 424 114 380 121 400 114 b 483 136 448 114 467 121 "},"∝":{"ha":914,"x_min":0,"x_max":0,"o":"m 54 972 l 54 0 l 824 0 l 824 972 m 493 356 l 493 336 l 350 336 l 350 367 b 378 469 350 409 359 443 b 465 528 396 494 425 514 b 533 564 496 538 518 550 b 554 615 547 578 554 595 b 525 681 554 643 544 665 b 443 704 506 696 478 704 b 358 678 407 704 378 695 b 326 607 337 660 326 637 l 183 607 b 212 722 181 650 191 689 b 302 801 233 756 263 782 b 439 829 341 820 387 829 b 631 772 520 829 584 810 b 701 615 678 733 701 681 b 667 506 701 572 690 535 b 560 438 645 477 609 454 b 509 406 537 429 520 419 b 493 356 498 393 493 376 m 483 136 b 424 114 467 121 448 114 b 364 136 400 114 380 121 b 340 193 348 151 340 170 b 364 250 340 216 348 235 b 424 272 380 265 400 272 b 483 250 448 272 467 265 b 506 193 498 235 506 216 b 483 136 506 170 498 151 "},"≡":{"ha":914,"x_min":0,"x_max":0,"o":"m 824 972 l 824 0 l 54 0 l 54 972 m 493 356 b 509 406 493 376 498 393 b 560 438 520 419 537 429 b 667 506 609 454 645 477 b 701 615 690 535 701 572 b 631 772 701 681 678 733 b 439 829 584 810 520 829 b 302 801 387 829 341 820 b 212 722 263 782 233 756 b 183 607 191 689 181 650 l 326 607 b 358 678 326 637 337 660 b 443 704 378 695 407 704 b 525 681 478 704 506 696 b 554 615 544 665 554 643 b 533 564 554 595 547 578 b 465 528 518 550 496 538 b 378 469 425 514 396 494 b 350 367 359 443 350 409 l 350 336 l 493 336 l 493 356 m 483 136 b 506 193 498 151 506 170 b 483 250 506 216 498 235 b 424 272 467 265 448 272 b 364 250 400 272 380 265 b 340 193 348 235 340 216 b 364 136 340 170 348 151 b 424 114 380 121 400 114 b 483 136 448 114 467 121 "},"≢":{"ha":914,"x_min":0,"x_max":0,"o":"m 54 972 l 54 0 l 824 0 l 824 972 m 493 356 l 493 336 l 350 336 l 350 367 b 378 469 350 409 359 443 b 465 528 396 494 425 514 b 533 564 496 538 518 550 b 554 615 547 578 554 595 b 525 681 554 643 544 665 b 443 704 506 696 478 704 b 358 678 407 704 378 695 b 326 607 337 660 326 637 l 183 607 b 212 722 181 650 191 689 b 302 801 233 756 263 782 b 439 829 341 820 387 829 b 631 772 520 829 584 810 b 701 615 678 733 701 681 b 667 506 701 572 690 535 b 560 438 645 477 609 454 b 509 406 537 429 520 419 b 493 356 498 393 493 376 m 483 136 b 424 114 467 121 448 114 b 364 136 400 114 380 121 b 340 193 348 151 340 170 b 364 250 340 216 348 235 b 424 272 380 265 400 272 b 483 250 448 272 467 265 b 506 193 498 235 506 216 b 483 136 506 170 498 151 "},"≣":{"ha":914,"x_min":0,"x_max":0,"o":"m 824 972 l 824 0 l 54 0 l 54 972 m 493 356 b 509 406 493 376 498 393 b 560 438 520 419 537 429 b 667 506 609 454 645 477 b 701 615 690 535 701 572 b 631 772 701 681 678 733 b 439 829 584 810 520 829 b 302 801 387 829 341 820 b 212 722 263 782 233 756 b 183 607 191 689 181 650 l 326 607 b 358 678 326 637 337 660 b 443 704 378 695 407 704 b 525 681 478 704 506 696 b 554 615 544 665 554 643 b 533 564 554 595 547 578 b 465 528 518 550 496 538 b 378 469 425 514 396 494 b 350 367 359 443 350 409 l 350 336 l 493 336 l 493 356 m 483 136 b 506 193 498 151 506 170 b 483 250 506 216 498 235 b 424 272 467 265 448 272 b 364 250 400 272 380 265 b 340 193 348 235 340 216 b 364 136 340 170 348 151 b 424 114 380 121 400 114 b 483 136 448 114 467 121 "},"\u0000":{"ha":833,"x_min":0,"x_max":0,"o":""},"\r":{"ha":447,"x_min":0,"x_max":0,"o":""}," ":{"ha":325,"x_min":0,"x_max":0,"o":""},"!":{"ha":425,"x_min":0,"x_max":0,"o":"m 331 972 l 313 300 l 113 300 l 94 972 m 123 19 b 88 104 99 42 88 70 b 123 189 88 138 99 167 b 213 222 147 211 176 222 b 302 189 249 222 278 211 b 338 104 326 167 338 138 b 302 19 338 70 326 42 b 213 -14 278 -3 249 -14 b 123 19 176 -14 147 -3 "},"\"":{"ha":622,"x_min":0,"x_max":0,"o":"m 269 972 l 269 597 l 86 597 l 86 972 m 538 972 l 538 597 l 354 597 l 354 972 "},"#":{"ha":1000,"x_min":0,"x_max":0,"o":"m 813 592 l 756 363 l 856 363 l 856 186 l 713 186 l 667 0 l 458 0 l 504 186 l 357 186 l 311 0 l 104 0 l 150 186 l 50 186 l 50 363 l 193 363 l 249 592 l 143 592 l 143 768 l 292 768 l 342 972 l 549 972 l 499 768 l 649 768 l 699 972 l 906 972 l 856 768 l 949 768 l 949 592 m 608 594 l 453 594 l 396 360 l 551 360 "},"$":{"ha":915,"x_min":0,"x_max":0,"o":"m 790 88 b 563 -15 734 34 658 0 l 563 -149 l 374 -149 l 374 -17 b 194 28 311 -9 251 6 b 44 115 138 51 88 80 l 163 281 b 464 179 249 213 349 179 b 601 208 521 179 567 189 b 651 288 634 228 651 254 b 604 361 651 319 636 344 b 454 399 573 379 523 391 b 163 492 322 413 225 444 b 71 694 102 539 71 606 b 149 883 71 769 97 831 b 358 985 200 935 270 969 l 358 1122 l 547 1122 l 547 990 b 703 953 602 984 654 972 b 838 883 753 935 798 912 l 731 724 b 479 803 655 776 571 803 b 344 775 423 803 378 794 b 293 700 310 756 293 731 b 337 629 293 669 308 646 b 483 592 366 613 415 600 b 778 494 615 577 713 544 b 875 286 843 443 875 374 b 790 88 875 207 847 141 "},"%":{"ha":1186,"x_min":0,"x_max":0,"o":"m 115 596 b 50 758 72 638 50 692 b 115 920 50 825 72 879 b 285 982 159 961 215 982 b 456 921 356 982 413 962 b 521 758 499 880 521 826 b 456 595 521 691 499 636 b 285 533 412 554 355 533 b 115 596 215 533 159 554 m 1013 972 l 379 0 l 174 0 l 807 972 m 341 702 b 363 758 355 716 363 735 b 341 815 363 781 355 800 b 285 836 327 829 308 836 b 229 815 262 836 243 829 b 208 758 215 800 208 781 b 229 702 208 735 215 716 b 285 681 243 688 262 681 b 341 702 308 681 327 688 m 732 52 b 667 214 688 93 667 147 b 732 376 667 281 688 335 b 901 439 775 418 832 439 b 1072 377 972 439 1029 418 b 1138 214 1116 336 1138 281 b 1073 51 1138 146 1116 92 b 901 -10 1030 11 973 -10 b 732 52 832 -10 775 11 m 958 158 b 979 214 972 172 979 191 b 958 270 979 237 972 256 b 901 292 943 284 925 292 b 846 270 878 292 860 284 b 825 214 832 256 825 237 b 846 158 825 191 832 172 b 901 136 860 143 878 136 b 958 158 925 136 943 143 "},"&":{"ha":967,"x_min":0,"x_max":0,"o":"m 721 97 b 403 -18 636 20 530 -18 b 223 15 333 -18 273 -7 b 107 106 172 36 134 67 b 67 238 80 144 67 188 b 265 514 67 346 133 438 b 181 624 225 554 197 590 b 156 733 164 657 156 694 b 194 865 156 781 168 825 b 301 958 219 904 255 935 b 461 992 348 980 401 992 b 602 960 514 992 561 981 b 699 874 643 940 675 911 b 733 750 722 837 733 795 b 686 608 733 701 718 654 b 547 483 655 563 608 521 l 694 350 b 743 499 715 390 731 439 l 914 451 b 835 225 899 363 873 288 l 954 117 l 844 -15 m 374 801 b 347 738 356 784 347 763 b 364 671 347 714 353 692 b 428 592 375 650 396 623 b 517 668 469 619 499 645 b 543 740 534 691 543 715 b 518 802 543 765 535 786 b 450 826 501 818 479 826 b 374 801 418 826 392 818 m 386 401 b 278 261 314 364 278 318 b 315 185 278 231 290 205 b 414 156 339 166 372 156 b 590 215 483 156 542 175 "},"'":{"ha":354,"x_min":0,"x_max":0,"o":"m 269 972 l 269 597 l 86 597 l 86 972 "},"(":{"ha":506,"x_min":0,"x_max":0,"o":"m 128 73 b 44 442 72 186 44 309 b 128 810 44 574 72 697 b 363 1094 183 924 262 1019 l 482 960 b 311 735 410 902 353 827 b 249 442 269 642 249 544 b 311 149 249 339 269 241 b 482 -78 353 56 410 -19 l 363 -211 b 128 73 262 -135 183 -41 "},")":{"ha":506,"x_min":0,"x_max":0,"o":"m 24 -78 b 195 148 97 -19 154 56 b 257 442 236 240 257 338 b 194 735 257 544 236 642 b 24 960 153 827 96 902 l 144 1094 b 378 810 245 1019 323 924 b 461 442 434 697 461 574 b 378 73 461 309 434 186 b 144 -211 323 -41 245 -135 l 24 -78 "},"*":{"ha":586,"x_min":0,"x_max":0,"o":"m 401 728 l 492 635 l 363 543 l 293 657 l 225 543 l 92 635 l 181 726 l 57 751 l 103 900 l 222 851 l 214 972 l 375 972 l 357 849 l 486 900 l 529 751 "},"+":{"ha":757,"x_min":0,"x_max":0,"o":"m 676 364 l 478 364 l 478 164 l 278 164 l 278 364 l 81 364 l 81 547 l 278 547 l 278 742 l 478 742 l 478 547 l 676 547 "},",":{"ha":372,"x_min":0,"x_max":0,"o":"m 276 188 b 311 99 300 166 311 136 b 292 -1 311 68 305 35 b 218 -169 279 -36 254 -93 l 100 -169 l 139 -3 b 82 35 115 4 96 16 b 61 104 68 54 61 77 b 96 190 61 139 73 168 b 186 222 119 211 149 222 b 276 188 223 222 253 211 "},"-":{"ha":701,"x_min":0,"x_max":0,"o":"m 621 492 l 621 313 l 81 313 l 81 492 "},".":{"ha":371,"x_min":0,"x_max":0,"o":"m 95 19 b 60 104 72 42 60 70 b 95 189 60 138 72 167 b 186 222 119 211 149 222 b 276 189 222 222 252 211 b 311 104 299 167 311 138 b 276 19 311 70 299 42 b 186 -14 252 -3 222 -14 b 95 19 149 -14 119 -3 "},"/":{"ha":721,"x_min":0,"x_max":0,"o":"m 688 1050 l 240 -110 l 33 -110 l 481 1050 "},":":{"ha":371,"x_min":0,"x_max":0,"o":"m 95 19 b 60 104 72 42 60 70 b 95 189 60 138 72 167 b 186 222 119 211 149 222 b 276 189 222 222 252 211 b 311 104 299 167 311 138 b 276 19 311 70 299 42 b 186 -14 252 -3 222 -14 b 95 19 149 -14 119 -3 m 95 408 b 60 493 72 431 60 459 b 95 578 60 527 72 556 b 186 611 119 600 149 611 b 276 578 222 611 252 600 b 311 493 299 556 311 527 b 276 408 311 459 299 431 b 186 375 252 386 222 375 b 95 408 149 375 119 386 "},";":{"ha":372,"x_min":0,"x_max":0,"o":"m 276 188 b 311 99 300 166 311 136 b 292 -1 311 68 305 35 b 218 -169 279 -36 254 -93 l 100 -169 l 139 -3 b 82 35 115 4 96 16 b 61 104 68 54 61 77 b 96 190 61 139 73 168 b 186 222 119 211 149 222 b 276 188 223 222 253 211 m 97 408 b 61 493 73 431 61 459 b 97 578 61 527 73 556 b 188 611 120 600 150 611 b 277 578 224 611 253 600 b 313 493 301 556 313 527 b 277 408 313 459 301 431 b 188 375 253 386 224 375 b 97 408 150 375 120 386 "},"<":{"ha":590,"x_min":0,"x_max":0,"o":"m 300 431 l 515 224 l 378 89 l 72 396 l 72 469 l 378 775 l 515 640 "},"=":{"ha":761,"x_min":0,"x_max":0,"o":"m 681 668 l 681 489 l 81 489 l 81 668 m 681 372 l 681 193 l 81 193 l 81 372 "},">":{"ha":590,"x_min":0,"x_max":0,"o":"m 518 469 l 518 396 l 213 89 l 75 224 l 290 431 l 75 640 l 213 775 "},"?":{"ha":833,"x_min":0,"x_max":0,"o":"m 317 497 b 435 575 342 532 381 558 b 526 623 475 589 506 605 b 556 686 546 641 556 662 b 518 760 556 718 543 742 b 415 788 493 778 459 788 b 309 755 371 788 335 777 b 269 667 283 733 269 704 l 46 667 b 85 829 42 727 55 781 b 215 942 114 877 158 915 b 410 982 272 969 337 982 b 610 946 487 982 553 970 b 740 842 666 922 710 887 b 786 683 771 797 786 744 b 740 543 786 628 771 581 b 599 450 709 505 662 474 b 525 404 564 437 540 422 b 503 335 510 387 503 363 l 503 300 l 281 300 l 281 353 b 317 497 281 413 293 461 m 302 19 b 267 104 278 42 267 70 b 302 189 267 138 278 167 b 392 222 326 211 356 222 b 482 190 429 222 459 211 b 517 104 505 168 517 139 b 481 19 517 70 505 42 b 392 -14 458 -3 428 -14 b 302 19 356 -14 326 -3 "},"@":{"ha":1276,"x_min":0,"x_max":0,"o":"m 961 814 b 1174 631 1051 770 1122 709 b 1251 358 1225 552 1251 461 b 1213 168 1251 284 1238 221 b 1111 49 1187 115 1153 75 b 976 8 1069 22 1025 8 b 813 100 901 8 847 39 b 732 37 790 71 763 50 b 614 17 700 23 661 17 b 474 54 562 17 516 29 b 378 158 433 79 401 114 b 344 307 356 203 344 252 b 379 460 344 364 356 416 b 476 565 402 505 435 540 b 622 603 518 590 567 603 b 793 536 694 603 751 581 l 804 582 l 939 582 l 939 275 b 951 199 939 241 943 216 b 992 175 959 183 972 175 b 1051 218 1016 175 1036 189 b 1075 351 1067 247 1075 291 b 963 620 1075 468 1038 558 b 663 714 888 683 788 714 b 443 663 580 714 507 697 b 294 519 379 628 329 580 b 240 308 258 457 240 387 b 290 100 240 230 257 160 b 431 -40 324 40 370 -7 b 639 -89 491 -72 560 -89 b 817 -53 706 -89 766 -77 l 874 -203 b 626 -257 805 -239 723 -257 b 334 -185 518 -257 421 -233 b 130 16 247 -137 179 -70 b 56 310 80 102 56 200 b 133 603 56 419 81 517 b 349 806 185 690 257 758 b 663 879 441 855 546 879 b 961 814 772 879 871 857 m 735 214 b 769 307 758 237 769 268 b 740 403 769 348 759 380 b 656 439 720 427 692 439 b 569 406 619 439 591 428 b 536 314 547 384 536 354 b 565 215 536 271 546 238 b 649 179 585 191 613 179 b 735 214 684 179 713 191 "},"A":{"ha":1093,"x_min":0,"x_max":0,"o":"m 785 175 l 306 175 l 233 0 l -10 0 l 426 972 l 669 972 l 1103 0 l 857 0 m 388 371 l 704 371 l 547 754 "},"B":{"ha":1008,"x_min":0,"x_max":0,"o":"m 913 415 b 954 272 940 372 954 325 b 856 72 954 187 922 120 b 586 0 791 24 701 0 l 106 0 l 106 972 l 586 972 b 833 903 691 972 773 949 b 924 714 894 856 924 794 b 891 590 924 667 913 625 b 800 508 869 554 839 527 b 913 415 847 488 885 457 m 329 592 l 590 592 b 674 617 626 592 654 600 b 703 688 693 633 703 657 b 673 759 703 718 693 742 b 590 785 653 776 625 785 l 329 785 m 697 221 b 731 301 719 240 731 267 b 697 383 731 337 719 364 b 601 411 674 402 642 411 l 329 411 l 329 192 l 601 192 b 697 221 642 192 674 201 "},"C":{"ha":978,"x_min":0,"x_max":0,"o":"m 298 42 b 115 221 219 84 158 144 b 50 486 72 298 50 386 b 116 752 50 586 72 675 b 300 931 160 829 221 889 b 569 994 379 973 469 994 b 939 843 713 994 836 944 l 799 703 b 575 792 737 762 662 792 b 420 753 517 792 465 779 b 316 646 375 728 341 692 b 279 486 291 600 279 546 b 316 326 279 426 291 373 b 420 219 341 280 375 244 b 575 181 465 193 517 181 b 708 206 621 181 666 189 b 819 278 751 222 788 246 l 953 129 b 574 -22 848 28 722 -22 b 298 42 469 -22 377 -1 "},"D":{"ha":1054,"x_min":0,"x_max":0,"o":"m 767 913 b 942 742 843 873 901 816 b 1004 486 984 669 1004 583 b 942 230 1004 389 984 303 b 767 60 901 156 843 100 b 504 0 692 20 604 0 l 106 0 l 106 972 l 504 972 b 767 913 604 972 692 952 m 701 276 b 776 486 751 328 776 398 b 742 638 776 544 765 595 b 647 738 720 681 688 715 b 504 774 605 762 558 774 l 333 774 l 333 199 l 504 199 b 701 276 586 199 651 225 "},"E":{"ha":925,"x_min":0,"x_max":0,"o":"m 863 192 l 863 0 l 106 0 l 106 972 l 847 972 l 847 782 l 326 782 l 326 585 l 819 585 l 819 401 l 326 401 l 326 192 "},"F":{"ha":883,"x_min":0,"x_max":0,"o":"m 333 774 l 333 542 l 796 542 l 796 349 l 333 349 l 333 0 l 106 0 l 106 972 l 824 972 l 824 774 "},"G":{"ha":1044,"x_min":0,"x_max":0,"o":"m 981 142 b 799 20 931 89 871 48 b 563 -22 728 -8 649 -22 b 292 40 460 -22 370 -1 b 113 218 215 82 155 141 b 50 486 71 295 50 384 b 117 751 50 585 72 673 b 303 931 161 828 223 888 b 579 996 384 974 475 996 b 783 957 654 996 722 983 b 950 839 843 931 899 892 l 813 703 b 705 774 782 733 746 757 b 578 799 664 790 621 799 b 356 715 484 799 410 771 b 275 486 302 659 275 582 b 311 322 275 424 287 369 b 414 213 335 275 369 238 b 568 174 458 187 510 174 b 788 244 660 174 733 197 l 788 393 l 524 393 l 524 575 l 981 575 "},"H":{"ha":1079,"x_min":0,"x_max":0,"o":"m 972 972 l 972 0 l 746 0 l 746 390 l 333 390 l 333 0 l 106 0 l 106 972 l 333 972 l 333 596 l 746 596 l 746 972 "},"I":{"ha":440,"x_min":0,"x_max":0,"o":"m 333 972 l 333 0 l 106 0 l 106 972 "},"J":{"ha":983,"x_min":0,"x_max":0,"o":"m 893 413 b 840 183 893 325 875 248 b 688 33 804 119 753 69 b 458 -19 622 -2 545 -19 b 142 93 323 -19 218 18 b 28 411 67 168 29 274 l 250 411 b 306 242 251 338 269 282 b 458 183 342 203 393 183 b 610 244 523 183 574 203 b 665 415 647 284 665 341 l 665 775 l 382 775 l 382 972 l 893 972 "},"K":{"ha":950,"x_min":0,"x_max":0,"o":"m 674 0 l 332 386 l 332 0 l 106 0 l 106 972 l 332 972 l 332 592 l 651 972 l 932 972 l 522 496 l 969 0 "},"L":{"ha":846,"x_min":0,"x_max":0,"o":"m 333 972 l 333 206 l 822 206 l 822 0 l 106 0 l 106 972 "},"M":{"ha":1283,"x_min":0,"x_max":0,"o":"m 1178 972 l 1178 0 l 951 0 l 951 608 l 665 258 l 621 258 l 332 610 l 332 0 l 106 0 l 106 972 l 310 972 l 642 558 l 974 972 "},"N":{"ha":1079,"x_min":0,"x_max":0,"o":"m 974 972 l 974 0 l 769 0 l 329 601 l 332 339 l 332 0 l 106 0 l 106 972 l 310 972 l 750 368 l 747 628 l 747 972 "},"O":{"ha":1147,"x_min":0,"x_max":0,"o":"m 298 40 b 115 218 219 82 158 141 b 50 486 72 295 50 384 b 115 754 50 588 72 677 b 298 933 158 831 219 891 b 574 996 377 975 469 996 b 849 933 678 996 770 975 b 1033 754 928 891 990 831 b 1097 486 1076 677 1097 588 b 1033 218 1097 384 1076 295 b 849 40 990 141 928 82 b 574 -24 770 -3 678 -24 b 298 40 469 -24 377 -3 m 728 217 b 833 325 773 243 808 279 b 869 486 857 371 869 425 b 833 647 869 547 857 601 b 728 755 808 694 773 729 b 574 793 684 780 632 793 b 419 755 515 793 464 780 b 316 647 375 729 341 694 b 279 486 291 601 279 547 b 316 325 279 425 291 371 b 419 217 341 279 375 243 b 574 179 464 192 515 179 b 728 217 632 179 684 192 "},"P":{"ha":969,"x_min":0,"x_max":0,"o":"m 767 930 b 897 808 823 902 867 861 b 943 624 928 756 943 694 b 897 439 943 553 928 492 b 767 317 867 386 823 346 b 571 275 711 289 646 275 l 333 275 l 333 0 l 106 0 l 106 972 l 571 972 b 767 930 646 972 711 958 m 674 514 b 717 622 703 541 717 577 b 674 731 717 668 703 704 b 560 771 646 757 608 771 l 332 771 l 332 474 l 560 474 b 674 514 608 474 646 487 "},"Q":{"ha":1144,"x_min":0,"x_max":0,"o":"m 842 36 b 574 -24 765 -4 675 -24 b 298 40 469 -24 377 -3 b 115 218 219 82 158 141 b 50 486 72 295 50 384 b 115 754 50 588 72 677 b 298 933 158 831 219 891 b 574 996 377 975 469 996 b 849 933 678 996 770 975 b 1033 754 928 891 990 831 b 1097 486 1076 677 1097 588 b 1011 185 1097 369 1069 268 l 1135 60 l 976 -97 m 728 217 b 833 325 773 243 808 279 b 869 486 857 371 869 425 b 833 647 869 547 857 601 b 728 755 808 694 773 729 b 574 793 684 780 632 793 b 419 755 515 793 464 780 b 316 647 375 729 341 694 b 279 486 291 601 279 547 b 316 325 279 425 291 371 b 419 217 341 279 375 243 b 574 179 464 192 515 179 b 728 217 632 179 684 192 "},"R":{"ha":1006,"x_min":0,"x_max":0,"o":"m 333 321 l 333 0 l 106 0 l 106 972 l 579 972 b 764 931 650 972 711 959 b 886 815 817 904 857 865 b 929 643 915 765 929 708 b 872 453 929 569 910 506 b 708 340 833 400 779 363 l 983 0 l 713 0 l 465 321 m 665 742 b 553 778 638 766 601 778 l 332 778 l 332 504 l 553 504 b 665 540 602 504 639 516 b 704 640 691 563 704 597 b 665 742 704 684 691 718 "},"S":{"ha":915,"x_min":0,"x_max":0,"o":"m 235 14 b 44 115 162 38 98 72 l 163 281 b 464 179 249 213 349 179 b 601 208 521 179 567 189 b 651 288 634 228 651 254 b 604 361 651 319 636 344 b 454 399 573 379 523 391 b 163 492 322 413 225 444 b 71 694 102 539 71 606 b 121 851 71 754 88 806 b 261 957 154 897 201 932 b 469 994 321 982 391 994 b 667 965 537 994 603 985 b 838 883 732 946 788 919 l 731 724 b 479 803 655 776 571 803 b 344 775 423 803 378 794 b 293 700 310 756 293 731 b 337 629 293 669 308 646 b 483 592 366 613 415 600 b 778 494 615 577 713 544 b 875 286 843 443 875 374 b 824 124 875 225 858 171 b 679 16 789 78 741 41 b 465 -22 617 -9 546 -22 b 235 14 386 -22 309 -10 "},"T":{"ha":864,"x_min":0,"x_max":0,"o":"m 843 774 l 546 774 l 546 0 l 318 0 l 318 774 l 22 774 l 22 972 l 843 972 "},"U":{"ha":1064,"x_min":0,"x_max":0,"o":"m 206 95 b 90 419 129 172 90 281 l 90 972 l 318 972 l 318 419 b 374 244 318 345 337 287 b 532 181 412 202 464 181 b 688 244 598 181 650 202 b 744 419 725 287 744 345 l 744 972 l 972 972 l 972 419 b 857 95 972 281 934 172 b 532 -21 780 18 672 -21 b 206 95 392 -21 284 18 "},"V":{"ha":1026,"x_min":0,"x_max":0,"o":"m 1033 972 l 633 0 l 393 0 l -7 972 l 244 972 l 375 642 l 513 264 l 653 642 l 782 972 "},"W":{"ha":1538,"x_min":0,"x_max":0,"o":"m 1525 972 l 1185 0 l 969 0 l 878 271 l 767 597 l 658 271 l 565 0 l 354 0 l 13 972 l 261 972 l 383 585 l 463 308 l 683 972 l 847 972 l 1074 304 l 1158 585 l 1276 972 "},"X":{"ha":964,"x_min":0,"x_max":0,"o":"m 967 0 l 690 0 l 578 169 l 482 326 l 389 171 l 276 0 l -3 0 l 326 486 l 15 972 l 283 972 l 386 808 l 478 650 l 574 808 l 679 972 l 949 972 l 632 496 "},"Y":{"ha":986,"x_min":0,"x_max":0,"o":"m 600 381 l 600 0 l 374 0 l 374 381 l -8 972 l 258 972 l 489 594 l 725 972 l 996 972 "},"Z":{"ha":876,"x_min":0,"x_max":0,"o":"m 829 199 l 829 0 l 35 0 l 35 85 l 507 779 l 65 779 l 65 972 l 821 972 l 821 890 l 353 199 "},"[":{"ha":503,"x_min":0,"x_max":0,"o":"m 454 979 l 454 800 l 300 800 l 300 -44 l 454 -44 l 454 -222 l 97 -222 l 97 979 "},"\\":{"ha":721,"x_min":0,"x_max":0,"o":"m 482 -110 l 33 1050 l 240 1050 l 688 -110 "},"]":{"ha":503,"x_min":0,"x_max":0,"o":"m 49 -222 l 49 -44 l 203 -44 l 203 800 l 49 800 l 49 979 l 406 979 l 406 -222 "},"^":{"ha":879,"x_min":0,"x_max":0,"o":"m 611 475 l 438 740 l 265 475 l 44 475 l 372 972 l 504 972 l 836 475 "},"_":{"ha":749,"x_min":0,"x_max":0,"o":"m 711 -11 l 711 -189 l 38 -189 l 38 -11 "},"`":{"ha":376,"x_min":0,"x_max":0,"o":"m -161 972 l 74 972 l 167 767 l -15 767 "},"a":{"ha":883,"x_min":0,"x_max":0,"o":"m 801 0 l 613 0 l 599 82 b 371 -14 540 18 464 -14 b 201 31 307 -14 250 1 b 85 158 151 61 113 103 b 43 343 57 212 43 274 b 85 528 43 413 57 474 b 201 655 113 583 151 625 b 371 700 250 685 307 700 b 499 676 417 700 460 692 b 599 606 538 659 571 636 l 613 686 l 801 686 m 540 217 b 586 343 571 249 586 291 b 540 469 586 395 571 437 b 422 517 510 501 470 517 b 305 468 374 517 335 500 b 260 343 275 436 260 394 b 305 218 260 292 275 250 b 422 169 335 186 374 169 b 540 217 470 169 510 185 "},"b":{"ha":883,"x_min":0,"x_max":0,"o":"m 683 655 b 800 528 733 625 772 583 b 842 343 828 474 842 413 b 800 158 842 274 828 212 b 683 31 772 103 733 61 b 513 -14 633 1 576 -14 b 285 82 419 -14 343 18 l 271 0 l 82 0 l 82 972 l 300 972 l 300 621 b 513 700 357 674 428 700 b 683 655 576 700 633 685 m 579 217 b 625 343 610 249 625 291 b 579 469 625 395 610 437 b 461 517 549 501 509 517 b 344 468 413 517 374 500 b 299 343 314 436 299 394 b 344 218 299 292 314 250 b 461 169 374 186 413 169 b 579 217 509 169 549 185 "},"c":{"ha":719,"x_min":0,"x_max":0,"o":"m 222 28 b 90 153 165 58 121 99 b 43 342 59 206 43 269 b 90 530 43 413 59 476 b 222 656 122 584 166 626 b 418 701 279 686 344 701 b 564 674 469 701 518 692 b 688 594 610 656 651 630 l 567 463 b 429 517 528 499 482 517 b 307 469 379 517 338 501 b 260 343 275 437 260 395 b 306 217 260 291 275 249 b 429 169 337 185 378 169 b 574 229 486 169 534 189 l 697 99 b 422 -15 620 23 529 -15 b 222 28 345 -15 278 -1 "},"d":{"ha":885,"x_min":0,"x_max":0,"o":"m 801 0 l 613 0 l 599 82 b 371 -14 540 18 464 -14 b 201 31 307 -14 250 1 b 85 158 151 61 113 103 b 43 343 57 212 43 274 b 85 528 43 413 57 474 b 201 655 113 583 151 625 b 371 700 250 685 307 700 b 583 621 455 700 526 674 l 583 972 l 801 972 m 540 217 b 586 343 571 249 586 291 b 540 469 586 395 571 437 b 422 517 510 501 470 517 b 305 468 374 517 335 500 b 260 343 275 436 260 394 b 305 218 260 292 275 250 b 422 169 335 186 374 169 b 540 217 470 169 510 185 "},"e":{"ha":815,"x_min":0,"x_max":0,"o":"m 607 659 b 733 540 662 631 703 591 b 776 360 762 488 776 428 b 769 278 776 338 774 310 l 265 278 b 322 192 272 243 291 214 b 443 160 354 171 394 160 b 543 175 477 160 511 165 b 626 218 575 185 603 200 l 740 96 b 602 13 701 60 655 32 b 432 -17 549 -7 492 -17 b 225 27 352 -17 283 -2 b 90 151 167 56 122 98 b 43 342 59 205 43 269 b 90 529 43 412 59 475 b 219 656 121 584 164 626 b 413 701 275 686 339 701 b 607 659 488 701 552 687 m 313 496 b 267 403 286 474 270 443 l 569 403 b 526 496 567 443 552 474 b 419 529 499 518 464 529 b 313 496 376 529 341 518 "},"f":{"ha":578,"x_min":0,"x_max":0,"o":"m 557 686 l 557 511 l 371 511 l 371 0 l 150 0 l 150 511 l 29 511 l 29 686 l 150 686 l 150 722 b 190 875 150 783 163 834 b 293 965 216 916 250 946 b 431 994 336 985 381 994 b 628 931 507 994 573 973 l 554 793 b 509 815 538 803 522 811 b 464 822 496 820 481 822 b 396 798 435 822 413 814 b 371 722 379 782 371 756 l 371 686 "},"g":{"ha":853,"x_min":0,"x_max":0,"o":"m 760 24 b 799 -106 786 -13 799 -56 b 751 -258 799 -163 783 -214 b 618 -359 720 -302 675 -335 b 418 -394 561 -383 494 -394 b 224 -358 344 -394 279 -382 b 95 -256 168 -334 125 -300 b 50 -101 65 -211 50 -160 b 51 -68 50 -87 50 -75 l 261 -68 b 299 -174 259 -113 272 -149 b 418 -211 327 -199 366 -211 b 531 -180 464 -211 502 -201 b 574 -97 559 -159 574 -131 b 534 -16 574 -62 560 -35 b 421 13 508 3 470 13 b 222 56 345 13 278 27 b 90 177 165 84 121 125 b 43 360 59 229 43 290 b 91 538 43 426 59 486 b 224 660 123 591 167 631 b 419 704 281 690 346 704 b 575 671 476 704 528 693 l 656 771 l 815 656 l 724 549 b 793 360 770 496 793 433 b 756 219 793 309 781 262 b 653 113 732 176 697 140 b 760 24 699 91 735 62 m 536 242 b 581 360 566 271 581 311 b 537 477 581 409 566 448 b 419 521 508 506 469 521 b 303 477 371 521 332 506 b 258 360 273 448 258 409 b 303 242 258 312 273 272 b 419 197 332 212 371 197 b 536 242 468 197 506 212 "},"h":{"ha":858,"x_min":0,"x_max":0,"o":"m 710 617 b 785 388 760 560 785 484 l 785 0 l 567 0 l 567 375 b 534 479 567 419 556 454 b 443 517 512 504 482 517 b 340 474 400 517 366 502 b 300 361 313 445 300 407 l 300 0 l 82 0 l 82 972 l 300 972 l 300 611 b 510 701 353 671 423 701 b 710 617 594 701 661 673 "},"i":{"ha":382,"x_min":0,"x_max":0,"o":"m 99 788 b 64 872 76 810 64 838 b 100 958 64 907 76 936 b 192 992 124 981 155 992 b 283 958 229 992 259 981 b 319 872 307 936 319 907 b 284 788 319 838 308 810 b 192 754 260 765 230 754 b 99 788 154 754 123 765 m 300 686 l 300 0 l 82 0 l 82 686 "},"j":{"ha":385,"x_min":0,"x_max":0,"o":"m 101 788 b 65 872 77 810 65 838 b 101 958 65 906 77 935 b 193 992 125 980 156 992 b 286 958 231 992 262 980 b 322 872 310 935 322 906 b 286 788 322 838 310 810 b 193 754 262 765 231 754 b 101 788 156 754 125 765 m -56 -128 b 15 -147 -30 -141 -6 -147 b 67 -123 38 -147 56 -139 b 83 -47 78 -107 83 -81 l 83 686 l 301 686 l 301 -47 b 238 -256 301 -137 280 -206 b 61 -329 196 -305 137 -329 b -104 -285 7 -329 -48 -314 "},"k":{"ha":765,"x_min":0,"x_max":0,"o":"m 508 0 l 299 272 l 299 0 l 82 0 l 82 972 l 299 972 l 299 426 l 489 686 l 738 686 l 490 361 l 778 0 "},"l":{"ha":382,"x_min":0,"x_max":0,"o":"m 300 972 l 300 0 l 82 0 l 82 972 "},"m":{"ha":1272,"x_min":0,"x_max":0,"o":"m 1124 625 b 1199 415 1174 574 1199 504 l 1199 0 l 981 0 l 981 388 b 952 483 981 428 971 460 b 872 517 933 505 906 517 b 782 478 834 517 804 504 b 749 375 760 452 749 418 l 749 0 l 532 0 l 532 388 b 504 483 532 428 523 460 b 425 517 486 505 459 517 b 334 478 387 517 357 504 b 300 375 311 452 300 418 l 300 0 l 82 0 l 82 686 l 271 686 l 283 610 b 370 678 307 639 336 662 b 479 701 404 694 440 701 b 599 673 524 701 563 692 b 682 594 634 654 662 628 b 918 701 738 666 816 701 b 1124 625 1005 701 1074 676 "},"n":{"ha":858,"x_min":0,"x_max":0,"o":"m 709 618 b 785 388 759 563 785 486 l 785 0 l 567 0 l 567 375 b 533 479 567 419 556 454 b 442 517 511 504 481 517 b 339 474 399 517 365 502 b 300 361 313 445 300 407 l 300 0 l 82 0 l 82 686 l 271 686 l 285 606 b 381 676 312 636 344 660 b 506 701 419 693 460 701 b 709 618 591 701 659 674 "},"o":{"ha":840,"x_min":0,"x_max":0,"o":"m 220 30 b 89 156 163 60 119 102 b 43 343 58 209 43 272 b 89 531 43 414 58 477 b 220 656 119 584 163 626 b 419 701 277 686 344 701 b 619 656 495 701 562 686 b 751 531 677 626 721 584 b 797 343 782 477 797 414 b 751 156 797 272 782 209 b 619 30 721 102 677 60 b 419 -15 562 0 495 -15 b 220 30 344 -15 277 0 m 536 218 b 581 343 566 250 581 292 b 536 468 581 394 566 436 b 419 517 506 500 468 517 b 304 468 372 517 334 500 b 260 343 275 436 260 394 b 304 218 260 292 275 250 b 419 169 334 186 372 169 b 536 218 468 169 506 186 "},"p":{"ha":883,"x_min":0,"x_max":0,"o":"m 683 655 b 800 528 733 625 772 583 b 842 343 828 474 842 413 b 800 158 842 274 828 212 b 683 31 772 103 733 61 b 513 -14 633 1 576 -14 b 300 67 427 -14 356 13 l 300 -297 l 82 -297 l 82 686 l 271 686 l 285 606 b 513 700 342 669 418 700 b 683 655 576 700 633 685 m 579 217 b 625 343 610 249 625 291 b 579 469 625 395 610 437 b 461 517 549 501 509 517 b 344 468 413 517 374 500 b 299 343 314 436 299 394 b 344 218 299 292 314 250 b 461 169 374 186 413 169 b 579 217 509 169 549 185 "},"q":{"ha":885,"x_min":0,"x_max":0,"o":"m 801 -297 l 583 -297 l 583 67 b 371 -14 527 13 456 -14 b 200 31 307 -14 250 1 b 83 158 150 61 111 103 b 42 343 56 212 42 274 b 83 528 42 413 56 474 b 200 655 111 583 150 625 b 371 700 250 685 307 700 b 599 606 465 700 541 669 l 613 686 l 801 686 m 540 218 b 585 343 570 250 585 292 b 540 468 585 394 570 436 b 422 517 509 500 470 517 b 304 469 374 517 335 501 b 258 343 274 437 258 395 b 304 217 258 291 274 249 b 422 169 335 185 374 169 b 540 218 470 169 509 186 "},"r":{"ha":640,"x_min":0,"x_max":0,"o":"m 567 684 b 649 633 598 672 625 656 l 557 474 b 503 500 538 486 519 494 b 450 508 486 506 469 508 b 340 464 404 508 367 494 b 300 333 313 434 300 391 l 300 0 l 82 0 l 82 686 l 272 686 l 289 600 b 472 701 333 668 394 701 b 567 684 504 701 535 696 "},"s":{"ha":703,"x_min":0,"x_max":0,"o":"m 115 224 b 231 176 149 203 187 188 b 363 160 275 165 319 160 b 453 208 423 160 453 176 b 428 246 453 225 444 238 b 344 263 411 254 383 260 b 137 328 257 267 188 289 b 60 481 85 367 60 418 b 143 644 60 549 88 603 b 368 704 199 684 274 704 b 522 685 422 704 473 698 b 647 631 570 672 612 654 l 563 485 b 378 529 511 514 449 529 b 272 479 307 529 272 513 b 294 447 272 465 279 455 b 367 431 308 440 332 434 b 591 364 465 423 540 401 b 668 208 642 327 668 275 b 583 42 668 138 640 83 b 349 -18 527 2 449 -18 b 32 74 227 -18 122 13 "},"t":{"ha":589,"x_min":0,"x_max":0,"o":"m 574 26 b 392 -14 520 0 459 -14 b 214 49 317 -14 257 7 b 149 253 170 91 149 159 l 149 513 l 32 513 l 32 686 l 149 686 l 149 857 l 365 881 l 365 686 l 536 686 l 536 513 l 365 513 l 365 253 b 386 191 365 225 372 204 b 443 171 400 178 419 171 b 522 190 470 171 496 177 l 574 26 "},"u":{"ha":853,"x_min":0,"x_max":0,"o":"m 771 0 l 582 0 l 568 79 b 473 9 542 49 510 25 b 350 -15 435 -7 394 -15 b 149 68 266 -15 199 13 b 74 299 99 124 74 200 l 74 686 l 292 686 l 292 311 b 324 207 292 267 303 232 b 414 169 346 182 376 169 b 515 213 456 169 489 184 b 553 326 540 242 553 280 l 553 686 l 771 686 "},"v":{"ha":810,"x_min":0,"x_max":0,"o":"m 807 686 l 517 0 l 294 0 l 3 686 l 240 686 l 322 479 l 407 231 l 492 479 l 575 686 "},"w":{"ha":1151,"x_min":0,"x_max":0,"o":"m 1149 686 l 919 0 l 713 0 l 656 168 l 576 389 l 497 168 l 440 0 l 232 0 l 3 686 l 233 686 l 294 475 l 347 264 l 504 686 l 649 686 l 806 263 l 858 475 l 918 686 "},"x":{"ha":763,"x_min":0,"x_max":0,"o":"m 758 0 l 508 0 l 449 99 l 381 214 l 313 99 l 250 0 l 4 0 l 235 349 l 22 686 l 268 686 l 332 582 l 382 488 l 435 582 l 499 686 l 739 686 l 528 349 "},"y":{"ha":799,"x_min":0,"x_max":0,"o":"m 796 686 l 368 -297 l 136 -297 l 269 10 l 3 686 l 238 686 l 317 469 l 392 246 l 472 469 l 560 686 "},"z":{"ha":696,"x_min":0,"x_max":0,"o":"m 649 190 l 649 0 l 35 0 l 35 72 l 329 501 l 61 501 l 61 686 l 639 686 l 639 617 l 346 190 "},"{":{"ha":518,"x_min":0,"x_max":0,"o":"m 319 458 b 240 390 303 428 276 406 b 319 322 276 375 303 352 b 343 208 335 293 343 255 l 343 39 b 362 -25 343 9 349 -12 b 424 -44 374 -38 395 -44 b 481 -42 445 -44 464 -44 l 481 -201 b 360 -214 444 -210 404 -214 b 132 13 208 -214 132 -138 l 132 225 b 40 313 132 283 101 313 l 40 468 b 132 556 101 468 132 497 l 132 768 b 360 994 132 919 208 994 b 481 982 397 994 437 990 l 481 821 b 424 825 457 824 438 825 b 362 806 395 825 374 819 b 343 742 349 793 343 771 l 343 571 b 319 458 343 525 335 487 "},"|":{"ha":426,"x_min":0,"x_max":0,"o":"m 321 1036 l 321 -107 l 106 -107 l 106 1036 "},"}":{"ha":518,"x_min":0,"x_max":0,"o":"m 478 313 b 386 225 417 313 386 283 l 386 13 b 158 -214 386 -138 310 -214 b 38 -201 114 -214 74 -210 l 38 -42 b 94 -44 54 -44 73 -44 b 156 -25 123 -44 144 -38 b 175 39 169 -12 175 9 l 175 208 b 199 322 175 255 183 293 b 278 390 216 352 242 375 b 199 458 242 406 216 428 b 175 571 183 487 175 525 l 175 742 b 156 806 175 771 169 793 b 94 825 144 819 123 825 b 38 821 80 825 61 824 l 38 982 b 158 994 81 990 121 994 b 386 768 310 994 386 919 l 386 556 b 478 468 386 497 417 468 "},"~":{"ha":860,"x_min":0,"x_max":0,"o":"m 499 294 b 421 335 476 304 450 317 b 360 367 397 349 377 359 b 314 378 344 374 329 378 b 219 303 279 378 247 353 l 72 357 b 148 502 85 418 110 466 b 289 556 185 538 232 556 b 364 542 315 556 340 551 b 454 500 388 532 418 519 b 518 469 482 486 503 476 b 560 460 533 463 547 460 b 640 536 594 460 621 485 l 789 481 b 715 335 778 420 753 372 b 568 281 676 299 627 281 b 499 294 544 281 521 285 "}," ":{"ha":325,"x_min":0,"x_max":0,"o":""},"¡":{"ha":397,"x_min":0,"x_max":0,"o":"m 290 675 b 325 590 313 653 325 625 b 290 506 325 556 313 528 b 200 472 266 483 236 472 b 110 505 163 472 133 483 b 75 590 87 527 75 555 b 110 675 75 625 87 653 b 200 708 133 697 163 708 b 290 675 236 708 266 697 m 300 394 l 318 -278 l 81 -278 l 99 394 "},"¢":{"ha":719,"x_min":0,"x_max":0,"o":"m 496 -131 l 318 -131 l 318 -6 b 116 113 232 13 165 53 b 43 342 67 174 43 250 b 117 570 43 432 68 509 b 318 690 167 632 234 672 l 318 814 l 496 814 l 496 694 b 688 594 568 681 632 647 l 567 463 b 429 517 528 499 482 517 b 307 469 379 517 338 501 b 260 343 275 437 260 395 b 306 217 260 291 275 249 b 429 169 337 185 378 169 b 574 229 486 169 534 189 l 697 99 b 496 -8 639 41 572 6 "},"£":{"ha":922,"x_min":0,"x_max":0,"o":"m 860 0 l 72 0 l 72 190 b 165 251 113 199 144 219 b 196 358 185 283 196 319 l 196 375 l 72 375 l 72 544 l 160 544 b 142 675 148 593 142 636 b 184 838 142 737 156 791 b 307 946 212 884 253 920 b 499 985 361 972 425 985 b 752 908 605 985 690 959 b 840 681 815 857 844 781 l 631 681 b 595 768 630 719 618 749 b 504 797 572 788 542 797 b 406 762 462 797 429 785 b 372 661 384 738 372 705 b 389 544 372 637 378 598 l 668 544 l 668 375 l 422 375 b 424 354 423 370 424 363 b 364 193 424 288 404 234 l 860 193 "},"¤":{"ha":868,"x_min":0,"x_max":0,"o":"m 153 299 b 125 431 134 338 125 382 b 154 565 125 478 135 523 l 72 647 l 221 794 l 313 703 b 433 725 350 718 390 725 b 556 703 476 725 517 718 l 647 794 l 796 647 l 717 568 b 746 431 736 526 746 481 b 717 297 746 386 736 342 l 794 221 l 647 74 l 557 163 b 433 142 517 149 476 142 b 313 161 390 142 350 148 l 224 72 l 75 221 l 153 299 m 524 342 b 558 432 547 364 558 394 b 524 524 558 471 547 502 b 433 558 502 547 471 558 b 344 524 396 558 367 547 b 311 432 322 500 311 470 b 345 342 311 395 322 365 b 433 308 368 320 397 308 b 524 342 471 308 502 319 "},"¥":{"ha":1071,"x_min":0,"x_max":0,"o":"m 731 514 l 861 514 l 861 365 l 642 365 l 642 303 l 861 303 l 861 154 l 642 154 l 642 0 l 415 0 l 415 154 l 196 154 l 196 303 l 415 303 l 415 365 l 196 365 l 196 514 l 329 514 l 33 972 l 299 972 l 531 594 l 767 972 l 1038 972 "},"¦":{"ha":426,"x_min":0,"x_max":0,"o":"m 321 1036 l 321 526 l 106 526 l 106 1036 m 321 417 l 321 -107 l 106 -107 l 106 417 "},"§":{"ha":868,"x_min":0,"x_max":0,"o":"m 776 286 b 800 197 792 258 800 229 b 754 82 800 154 785 115 b 626 4 724 49 681 23 b 436 -24 571 -14 507 -24 b 224 8 360 -24 289 -13 b 58 100 158 30 103 60 l 161 244 b 291 174 204 213 247 190 b 432 151 335 159 382 151 b 582 208 532 151 582 170 b 436 263 582 244 533 263 b 177 319 326 264 240 283 b 83 467 115 356 83 405 b 112 558 83 501 93 531 b 188 615 131 585 156 604 b 116 678 157 630 133 651 b 90 771 99 705 90 736 b 185 936 90 841 122 896 b 447 996 249 976 336 996 b 629 967 512 996 573 986 b 767 889 686 948 731 922 l 650 767 b 454 825 605 806 539 825 b 308 769 357 825 308 806 b 341 730 308 751 319 738 b 446 718 363 722 398 718 b 706 660 558 716 645 697 b 799 508 768 624 799 573 b 775 419 799 476 791 446 b 711 356 759 391 738 370 b 776 286 739 337 761 314 m 551 444 b 590 493 577 455 590 472 b 551 543 590 514 577 531 b 442 561 525 555 489 561 b 331 543 394 561 356 555 b 292 493 305 531 292 514 b 331 444 292 472 305 455 b 442 426 358 432 394 426 b 551 444 489 426 525 432 "},"¨":{"ha":736,"x_min":0,"x_max":0,"o":"m 102 798 b 69 878 80 817 69 844 b 103 956 69 911 81 937 b 181 985 125 975 151 985 b 259 956 211 985 237 975 b 292 878 281 937 292 911 b 259 798 292 844 281 817 b 181 769 237 779 211 769 b 102 798 150 769 124 779 m 410 798 b 378 878 389 817 378 844 b 411 956 378 911 389 937 b 489 985 433 975 459 985 b 568 956 519 985 546 975 b 601 878 590 937 601 911 b 568 798 601 844 590 817 b 489 769 546 779 519 769 b 410 798 458 769 432 779 "},"©":{"ha":1138,"x_min":0,"x_max":0,"o":"m 303 42 b 123 221 226 84 166 144 b 58 486 80 298 58 386 b 123 751 58 586 80 675 b 303 930 166 828 226 888 b 569 993 381 972 469 993 b 835 930 669 993 758 972 b 1014 751 912 888 971 828 b 1078 486 1056 675 1078 586 b 1014 221 1078 386 1056 298 b 835 42 971 144 912 84 b 569 -21 758 0 669 -21 b 303 42 469 -21 381 0 m 763 154 b 893 287 819 186 863 230 b 939 486 924 344 939 410 b 893 685 939 562 924 628 b 763 818 863 742 819 787 b 569 865 707 850 643 865 b 376 818 496 865 432 850 b 245 685 320 787 276 742 b 199 486 214 627 199 561 b 245 288 199 411 214 345 b 376 154 276 230 320 186 b 569 107 432 123 496 107 b 763 154 643 107 707 123 m 392 294 b 315 486 341 341 315 406 b 351 625 315 538 327 584 b 449 719 374 666 407 697 b 596 753 491 742 540 753 b 702 732 633 753 668 746 b 793 671 736 718 766 698 l 700 572 b 603 614 672 600 640 614 b 512 578 566 614 535 602 b 476 486 488 555 476 524 b 512 396 476 449 488 419 b 601 361 535 373 565 361 b 706 406 641 361 676 376 l 801 308 b 599 222 741 251 674 222 b 392 294 512 222 443 246 "},"ª":{"ha":650,"x_min":0,"x_max":0,"o":"m 113 569 b 54 743 74 612 54 670 b 113 917 54 816 74 874 b 272 981 153 959 206 981 b 424 918 337 981 388 960 l 431 972 l 567 972 l 567 515 l 431 515 l 424 567 b 272 506 388 526 337 506 b 113 569 206 506 153 527 m 235 815 b 208 743 217 797 208 773 b 235 672 208 713 217 690 b 304 644 252 653 275 644 b 374 672 333 644 356 653 b 400 743 391 690 400 713 b 374 815 400 773 391 797 b 304 842 356 833 333 842 b 235 815 275 842 252 833 m 568 436 l 568 301 l 82 301 l 82 436 "},"«":{"ha":821,"x_min":0,"x_max":0,"o":"m 269 408 l 464 97 l 239 97 l 44 408 l 239 719 l 464 719 m 578 408 l 772 97 l 547 97 l 353 408 l 547 719 l 772 719 "},"¬":{"ha":754,"x_min":0,"x_max":0,"o":"m 81 374 l 81 540 l 660 540 l 660 197 l 471 197 l 471 374 "},"­":{"ha":701,"x_min":0,"x_max":0,"o":"m 621 492 l 621 313 l 81 313 l 81 492 "},"®":{"ha":453,"x_min":0,"x_max":0,"o":"m 374 940 b 431 793 412 903 431 854 b 374 647 431 733 412 684 b 226 590 336 609 287 590 b 79 647 166 590 117 609 b 22 793 41 684 22 733 b 78 940 22 854 41 903 b 226 996 116 977 165 996 b 374 940 288 996 337 977 m 329 688 b 368 793 355 715 368 750 b 329 900 368 838 355 873 b 226 940 303 927 269 940 b 124 900 184 940 150 927 b 86 793 99 873 86 838 b 124 688 86 750 99 715 b 226 649 150 662 184 649 b 329 688 269 649 303 662 m 310 787 b 281 763 303 776 294 768 l 324 696 l 254 696 l 224 754 l 208 754 l 208 696 l 147 696 l 147 893 l 240 893 b 299 874 264 893 284 887 b 321 824 313 862 321 845 b 310 787 321 810 317 797 m 207 840 l 207 801 l 236 801 b 253 807 244 801 249 803 b 260 822 258 811 260 816 b 236 840 260 834 252 840 "},"¯":{"ha":617,"x_min":0,"x_max":0,"o":"m 510 943 l 510 786 l 93 786 l 93 943 "},"°":{"ha":518,"x_min":0,"x_max":0,"o":"m 110 656 b 53 793 72 692 53 738 b 110 929 53 849 72 894 b 258 982 149 964 198 982 b 406 929 319 982 368 964 b 464 793 445 894 464 849 b 406 656 464 738 445 692 b 258 603 368 621 319 603 b 110 656 198 603 149 621 m 308 745 b 328 793 321 758 328 774 b 308 840 328 812 321 827 b 258 860 295 853 279 860 b 208 840 238 860 221 853 b 189 793 195 827 189 812 b 208 745 189 774 195 758 b 258 726 221 733 238 726 b 308 745 279 726 295 733 "},"±":{"ha":764,"x_min":0,"x_max":0,"o":"m 279 457 l 85 457 l 85 647 l 279 647 l 279 842 l 485 842 l 485 647 l 679 647 l 679 457 l 485 457 l 485 275 l 279 275 m 685 190 l 685 11 l 81 11 l 81 190 "},"²":{"ha":519,"x_min":0,"x_max":0,"o":"m 465 746 l 465 619 l 50 619 l 50 751 b 97 872 50 805 66 845 b 233 924 129 899 174 916 b 308 941 268 927 293 933 b 332 976 324 949 332 961 b 313 1011 332 991 325 1003 b 261 1024 300 1019 282 1024 b 210 1011 241 1024 224 1019 b 186 976 196 1003 188 991 l 53 976 b 111 1095 53 1025 72 1064 b 258 1142 150 1126 199 1142 b 414 1097 324 1142 376 1127 b 471 974 452 1068 471 1026 b 426 863 471 925 456 888 b 300 818 397 839 355 824 b 216 797 261 813 233 806 b 190 751 199 788 190 773 l 190 746 "},"³":{"ha":525,"x_min":0,"x_max":0,"o":"m 461 840 b 481 772 474 820 481 797 b 421 653 481 722 461 683 b 260 610 381 624 327 610 b 103 658 197 610 144 626 b 40 778 61 690 40 730 l 186 778 b 263 732 189 747 214 732 b 320 745 287 732 306 736 b 342 782 334 754 342 766 b 264 832 342 815 316 832 l 181 832 l 181 936 l 260 936 b 336 981 311 936 336 951 b 315 1017 336 995 329 1007 b 258 1031 301 1026 282 1031 b 203 1017 237 1031 219 1026 b 176 981 188 1007 179 995 l 50 981 b 110 1097 51 1028 71 1066 b 258 1142 149 1127 198 1142 b 408 1097 319 1142 369 1127 b 468 982 448 1066 468 1028 b 410 883 468 938 449 905 b 461 840 431 874 448 859 "},"´":{"ha":371,"x_min":0,"x_max":0,"o":"m 403 972 l 257 767 l 75 767 l 168 972 "},"µ":{"ha":861,"x_min":0,"x_max":0,"o":"m 779 0 l 599 0 l 582 74 b 404 -12 531 16 472 -12 b 300 13 367 -12 332 -4 l 300 -297 l 82 -297 l 82 686 l 300 686 l 300 306 b 333 208 300 265 311 232 b 422 172 356 184 385 172 b 522 215 463 172 496 187 b 561 326 548 244 561 281 l 561 686 l 779 686 "},"¶":{"ha":1211,"x_min":0,"x_max":0,"o":"m 1029 769 l 1029 -281 l 810 -281 l 810 769 l 603 769 l 603 -281 l 383 -281 l 383 263 b 206 313 317 264 258 281 b 87 439 155 344 115 386 b 44 617 59 492 44 551 b 92 796 44 681 60 741 b 224 925 123 850 167 894 b 419 972 281 956 346 972 l 1165 972 l 1165 769 "},"·":{"ha":382,"x_min":0,"x_max":0,"o":"m 101 318 b 65 403 77 340 65 369 b 101 488 65 437 77 465 b 192 521 124 510 155 521 b 281 488 228 521 258 510 b 317 403 305 465 317 437 b 281 318 317 369 305 340 b 192 285 258 296 228 285 b 101 318 155 285 124 296 "},"¸":{"ha":475,"x_min":0,"x_max":0,"o":"m 395 -97 b 432 -196 420 -122 432 -155 b 380 -302 432 -239 415 -275 b 243 -343 345 -329 300 -343 b 136 -324 204 -343 169 -337 b 57 -271 104 -312 77 -294 l 131 -186 b 231 -224 160 -211 194 -224 b 275 -212 249 -224 264 -220 b 292 -181 286 -204 292 -194 b 275 -147 292 -167 286 -156 b 229 -135 264 -139 249 -135 b 181 -146 210 -135 194 -138 l 139 -107 l 192 31 l 326 19 l 296 -56 b 395 -97 338 -58 371 -72 "},"¹":{"ha":400,"x_min":0,"x_max":0,"o":"m 357 738 l 357 619 l 42 619 l 42 738 l 133 738 l 133 992 l 61 974 l 61 1090 l 256 1139 l 269 1139 l 269 738 "},"º":{"ha":613,"x_min":0,"x_max":0,"o":"m 121 569 b 54 743 76 611 54 669 b 121 917 54 817 76 875 b 304 981 165 959 226 981 b 488 917 382 981 443 959 b 556 743 533 874 556 816 b 488 569 556 670 533 612 b 304 506 443 527 382 506 b 121 569 226 506 165 527 m 374 671 b 400 743 391 688 400 713 b 374 815 400 774 391 798 b 304 842 357 833 334 842 b 235 815 275 842 252 833 b 208 743 217 798 208 774 b 235 671 208 713 217 688 b 304 644 252 653 275 644 b 374 671 334 644 357 653 m 543 436 l 543 301 l 67 301 l 67 436 "},"»":{"ha":821,"x_min":0,"x_max":0,"o":"m 468 408 l 274 97 l 49 97 l 243 408 l 49 719 l 274 719 m 776 408 l 582 97 l 357 97 l 551 408 l 357 719 l 582 719 "},"¼":{"ha":1186,"x_min":0,"x_max":0,"o":"m 357 578 l 357 460 l 42 460 l 42 578 l 133 578 l 133 832 l 61 814 l 61 931 l 256 979 l 269 979 l 269 578 m 907 972 l 369 0 l 217 0 l 753 972 m 1136 88 l 1076 88 l 1076 0 l 940 0 l 940 88 l 676 88 l 671 203 l 903 513 l 1076 513 l 1076 206 l 1136 206 m 940 206 l 940 372 l 815 206 "},"½":{"ha":1203,"x_min":0,"x_max":0,"o":"m 357 578 l 357 460 l 42 460 l 42 578 l 133 578 l 133 832 l 61 814 l 61 931 l 256 979 l 269 979 l 269 578 m 907 972 l 369 0 l 217 0 l 753 972 m 1147 126 l 1147 0 l 732 0 l 732 132 b 779 253 732 186 748 226 b 915 304 811 280 856 297 b 990 322 950 308 975 314 b 1014 357 1006 329 1014 341 b 994 392 1014 372 1007 383 b 943 404 981 400 964 404 b 892 392 923 404 906 400 b 868 357 878 383 870 372 l 735 357 b 793 476 735 405 754 445 b 940 522 832 507 881 522 b 1096 478 1006 522 1058 507 b 1153 354 1134 448 1153 407 b 1108 244 1153 305 1138 268 b 982 199 1079 219 1037 204 b 898 178 943 194 915 187 b 872 132 881 169 872 153 l 872 126 "},"¾":{"ha":1269,"x_min":0,"x_max":0,"o":"m 461 680 b 481 613 474 660 481 638 b 421 494 481 563 461 523 b 260 450 381 465 327 450 b 103 498 197 450 144 466 b 40 618 61 530 40 570 l 186 618 b 263 572 189 588 214 572 b 320 585 287 572 306 577 b 342 622 334 594 342 606 b 264 672 342 656 316 672 l 181 672 l 181 776 l 260 776 b 336 821 311 776 336 791 b 315 857 336 836 329 848 b 258 871 301 866 282 871 b 203 857 237 871 219 866 b 176 821 188 848 179 836 l 50 821 b 110 937 51 868 71 907 b 258 982 149 967 198 982 b 408 937 319 982 369 967 b 468 822 448 907 468 869 b 410 724 468 778 449 745 b 461 680 431 714 448 700 m 990 972 l 453 0 l 300 0 l 836 972 m 1219 88 l 1160 88 l 1160 0 l 1024 0 l 1024 88 l 760 88 l 754 203 l 986 513 l 1160 513 l 1160 206 l 1219 206 m 1024 206 l 1024 372 l 899 206 "},"¿":{"ha":828,"x_min":0,"x_max":0,"o":"m 531 679 b 567 594 555 657 567 629 b 531 508 567 559 555 531 b 440 475 508 486 477 475 b 351 509 404 475 374 486 b 315 594 327 532 315 560 b 351 679 315 629 327 657 b 440 713 374 701 404 713 b 531 679 477 713 508 701 m 516 202 b 399 122 491 166 452 140 b 307 76 357 109 326 94 b 278 13 288 58 278 37 b 315 -62 278 -19 290 -44 b 418 -89 340 -80 375 -89 b 524 -56 463 -89 498 -78 b 564 32 551 -34 564 -5 l 786 32 b 747 -131 790 -28 777 -82 b 618 -243 718 -179 675 -216 b 424 -283 562 -270 497 -283 b 223 -247 347 -283 280 -271 b 92 -144 166 -223 122 -189 b 46 15 61 -99 46 -46 b 92 156 46 71 61 118 b 235 247 123 194 171 224 b 308 294 269 260 294 276 b 331 364 323 312 331 335 l 331 399 l 553 399 l 553 346 b 516 202 553 286 541 238 "},"À":{"ha":1093,"x_min":0,"x_max":0,"o":"m 785 175 l 306 175 l 233 0 l -10 0 l 426 972 l 669 972 l 1103 0 l 857 0 m 388 371 l 704 371 l 547 754 m 306 1260 l 550 1260 l 653 1060 l 461 1060 "},"Á":{"ha":1093,"x_min":0,"x_max":0,"o":"m 785 175 l 306 175 l 233 0 l -10 0 l 426 972 l 669 972 l 1103 0 l 857 0 m 388 371 l 704 371 l 547 754 m 788 1260 l 632 1060 l 440 1060 l 543 1260 "},"Â":{"ha":1093,"x_min":0,"x_max":0,"o":"m 785 175 l 306 175 l 233 0 l -10 0 l 426 972 l 669 972 l 1103 0 l 857 0 m 388 371 l 704 371 l 547 754 m 615 1060 l 547 1124 l 479 1060 l 279 1060 l 474 1260 l 622 1260 l 815 1060 "},"Ã":{"ha":1093,"x_min":0,"x_max":0,"o":"m 785 175 l 306 175 l 233 0 l -10 0 l 426 972 l 669 972 l 1103 0 l 857 0 m 388 371 l 704 371 l 547 754 m 539 1082 b 468 1106 510 1098 487 1106 b 407 1060 440 1106 420 1090 l 294 1136 b 358 1229 308 1176 329 1207 b 453 1263 386 1251 418 1263 b 550 1235 486 1263 519 1253 b 622 1211 576 1219 600 1211 b 683 1258 650 1211 670 1227 l 794 1186 b 735 1087 781 1143 762 1109 b 643 1053 708 1064 677 1053 b 539 1082 609 1053 574 1063 "},"Ä":{"ha":1093,"x_min":0,"x_max":0,"o":"m 785 175 l 306 175 l 233 0 l -10 0 l 426 972 l 669 972 l 1103 0 l 857 0 m 388 371 l 704 371 l 547 754 m 302 1086 b 268 1169 279 1106 268 1134 b 302 1252 268 1205 279 1232 b 385 1282 325 1272 352 1282 b 467 1252 416 1282 444 1272 b 501 1169 490 1232 501 1205 b 467 1086 501 1134 490 1106 b 385 1056 444 1066 416 1056 b 302 1086 352 1056 325 1066 m 626 1086 b 592 1169 603 1106 592 1134 b 626 1252 592 1205 603 1232 b 708 1282 650 1272 677 1282 b 791 1252 741 1282 768 1272 b 825 1169 814 1232 825 1205 b 791 1086 825 1134 814 1106 b 708 1056 768 1066 741 1056 b 626 1086 677 1056 650 1066 "},"Å":{"ha":1093,"x_min":0,"x_max":0,"o":"m 306 175 l 233 0 l -10 0 l 408 932 b 353 1057 371 964 353 1006 b 407 1181 353 1108 371 1149 b 546 1229 443 1213 489 1229 b 686 1181 603 1229 650 1213 b 740 1057 722 1149 740 1108 b 686 935 740 1006 722 965 l 1103 0 l 857 0 l 785 175 m 503 1098 b 488 1057 493 1087 488 1074 b 503 1017 488 1041 493 1028 b 546 1001 514 1007 528 1001 b 588 1017 563 1001 578 1006 b 604 1057 599 1027 604 1040 b 588 1098 604 1074 599 1087 b 546 1114 578 1109 563 1114 b 503 1098 528 1114 514 1109 m 388 371 l 704 371 l 547 754 "},"Æ":{"ha":1428,"x_min":0,"x_max":0,"o":"m 1365 192 l 1365 0 l 683 0 l 683 175 l 326 175 l 214 0 l -42 0 l 585 972 l 1350 972 l 1350 782 l 896 782 l 896 585 l 1321 585 l 1321 401 l 896 401 l 896 192 m 683 376 l 683 614 l 685 757 l 596 607 l 449 376 "},"Ç":{"ha":978,"x_min":0,"x_max":0,"o":"m 717 -99 b 754 -196 742 -124 754 -156 b 701 -302 754 -239 737 -275 b 564 -343 666 -329 620 -343 b 457 -324 525 -343 489 -337 b 376 -269 425 -312 398 -294 l 450 -185 b 551 -222 481 -210 514 -222 b 597 -211 571 -222 586 -219 b 614 -181 608 -204 614 -194 b 597 -148 614 -167 608 -156 b 550 -136 585 -140 569 -136 b 501 -146 527 -136 511 -139 l 460 -107 l 493 -18 b 258 65 403 -8 325 20 b 104 241 192 109 140 168 b 50 486 68 314 50 395 b 116 752 50 586 72 675 b 300 931 160 829 221 889 b 569 994 379 973 469 994 b 939 843 713 994 836 944 l 799 703 b 575 792 737 762 662 792 b 420 753 517 792 465 779 b 316 646 375 728 341 692 b 279 486 291 600 279 546 b 316 326 279 426 291 373 b 420 219 341 280 375 244 b 575 181 465 193 517 181 b 708 206 621 181 666 189 b 819 278 751 222 788 246 l 953 129 b 633 -19 862 43 756 -6 l 618 -56 b 717 -99 660 -59 693 -74 "},"È":{"ha":925,"x_min":0,"x_max":0,"o":"m 863 192 l 863 0 l 106 0 l 106 972 l 847 972 l 847 782 l 326 782 l 326 585 l 819 585 l 819 401 l 326 401 l 326 192 m 247 1260 l 492 1260 l 594 1060 l 403 1060 "},"É":{"ha":925,"x_min":0,"x_max":0,"o":"m 863 192 l 863 0 l 106 0 l 106 972 l 847 972 l 847 782 l 326 782 l 326 585 l 819 585 l 819 401 l 326 401 l 326 192 m 731 1260 l 575 1060 l 383 1060 l 486 1260 "},"Ê":{"ha":925,"x_min":0,"x_max":0,"o":"m 863 192 l 863 0 l 106 0 l 106 972 l 847 972 l 847 782 l 326 782 l 326 585 l 819 585 l 819 401 l 326 401 l 326 192 m 557 1060 l 489 1124 l 421 1060 l 221 1060 l 415 1260 l 564 1260 l 757 1060 "},"Ë":{"ha":925,"x_min":0,"x_max":0,"o":"m 863 192 l 863 0 l 106 0 l 106 972 l 847 972 l 847 782 l 326 782 l 326 585 l 819 585 l 819 401 l 326 401 l 326 192 m 245 1086 b 211 1169 222 1106 211 1134 b 245 1252 211 1205 222 1232 b 328 1282 268 1272 295 1282 b 410 1252 359 1282 387 1272 b 444 1169 433 1232 444 1205 b 410 1086 444 1134 433 1106 b 328 1056 387 1066 359 1056 b 245 1086 295 1056 268 1066 m 569 1086 b 535 1169 546 1106 535 1134 b 569 1252 535 1205 546 1232 b 651 1282 593 1272 620 1282 b 734 1252 684 1282 711 1272 b 768 1169 757 1232 768 1205 b 734 1086 768 1134 757 1106 b 651 1056 711 1066 684 1056 b 569 1086 620 1056 593 1066 "},"Ì":{"ha":440,"x_min":0,"x_max":0,"o":"m 333 972 l 333 0 l 106 0 l 106 972 m -21 1260 l 224 1260 l 326 1060 l 135 1060 "},"Í":{"ha":440,"x_min":0,"x_max":0,"o":"m 333 972 l 333 0 l 106 0 l 106 972 m 461 1260 l 306 1060 l 114 1060 l 217 1260 "},"Î":{"ha":440,"x_min":0,"x_max":0,"o":"m 333 972 l 333 0 l 106 0 l 106 972 m 286 1060 l 221 1122 l 156 1060 l -44 1060 l 142 1260 l 299 1260 l 486 1060 "},"Ï":{"ha":440,"x_min":0,"x_max":0,"o":"m 333 972 l 333 0 l 106 0 l 106 972 m -24 1086 b -58 1169 -47 1106 -58 1134 b -24 1252 -58 1205 -47 1232 b 58 1282 -2 1272 26 1282 b 140 1252 90 1282 117 1272 b 175 1169 163 1232 175 1205 b 140 1086 175 1134 163 1106 b 58 1056 117 1066 90 1056 b -24 1086 26 1056 -2 1066 m 300 1086 b 265 1169 277 1106 265 1134 b 300 1252 265 1205 277 1232 b 382 1282 323 1272 350 1282 b 465 1252 414 1282 442 1272 b 499 1169 487 1232 499 1205 b 465 1086 499 1134 487 1106 b 382 1056 442 1066 414 1056 b 300 1086 350 1056 323 1066 "},"Ð":{"ha":1069,"x_min":0,"x_max":0,"o":"m 783 913 b 958 742 858 873 916 816 b 1019 486 999 669 1019 583 b 958 230 1019 389 999 303 b 783 60 916 156 858 100 b 519 0 707 20 619 0 l 119 0 l 119 400 l 15 400 l 15 576 l 119 576 l 119 972 l 519 972 b 783 913 619 972 707 952 m 717 275 b 790 486 766 328 790 398 b 717 697 790 574 766 644 b 517 776 669 750 602 776 l 347 776 l 347 576 l 544 576 l 544 400 l 347 400 l 347 196 l 517 196 b 717 275 602 196 669 222 "},"Ñ":{"ha":1079,"x_min":0,"x_max":0,"o":"m 974 972 l 974 0 l 769 0 l 329 601 l 332 339 l 332 0 l 106 0 l 106 972 l 310 972 l 750 368 l 747 628 l 747 972 m 538 1082 b 467 1106 509 1098 485 1106 b 406 1060 439 1106 419 1090 l 293 1136 b 356 1229 307 1176 328 1207 b 451 1263 384 1251 416 1263 b 549 1235 485 1263 517 1253 b 621 1211 575 1219 599 1211 b 682 1258 649 1211 669 1227 l 793 1186 b 733 1087 780 1143 760 1109 b 642 1053 706 1064 676 1053 b 538 1082 607 1053 573 1063 "},"Ò":{"ha":1147,"x_min":0,"x_max":0,"o":"m 298 40 b 115 218 219 82 158 141 b 50 486 72 295 50 384 b 115 754 50 588 72 677 b 298 933 158 831 219 891 b 574 996 377 975 469 996 b 849 933 678 996 770 975 b 1033 754 928 891 990 831 b 1097 486 1076 677 1097 588 b 1033 218 1097 384 1076 295 b 849 40 990 141 928 82 b 574 -24 770 -3 678 -24 b 298 40 469 -24 377 -3 m 728 217 b 833 325 773 243 808 279 b 869 486 857 371 869 425 b 833 647 869 547 857 601 b 728 755 808 694 773 729 b 574 793 684 780 632 793 b 419 755 515 793 464 780 b 316 647 375 729 341 694 b 279 486 291 601 279 547 b 316 325 279 425 291 371 b 419 217 341 279 375 243 b 574 179 464 192 515 179 b 728 217 632 179 684 192 m 332 1260 l 576 1260 l 679 1060 l 488 1060 "},"Ó":{"ha":1147,"x_min":0,"x_max":0,"o":"m 298 40 b 115 218 219 82 158 141 b 50 486 72 295 50 384 b 115 754 50 588 72 677 b 298 933 158 831 219 891 b 574 996 377 975 469 996 b 849 933 678 996 770 975 b 1033 754 928 891 990 831 b 1097 486 1076 677 1097 588 b 1033 218 1097 384 1076 295 b 849 40 990 141 928 82 b 574 -24 770 -3 678 -24 b 298 40 469 -24 377 -3 m 728 217 b 833 325 773 243 808 279 b 869 486 857 371 869 425 b 833 647 869 547 857 601 b 728 755 808 694 773 729 b 574 793 684 780 632 793 b 419 755 515 793 464 780 b 316 647 375 729 341 694 b 279 486 291 601 279 547 b 316 325 279 425 291 371 b 419 217 341 279 375 243 b 574 179 464 192 515 179 b 728 217 632 179 684 192 m 815 1260 l 660 1060 l 468 1060 l 571 1260 "},"Ô":{"ha":1147,"x_min":0,"x_max":0,"o":"m 298 40 b 115 218 219 82 158 141 b 50 486 72 295 50 384 b 115 754 50 588 72 677 b 298 933 158 831 219 891 b 574 996 377 975 469 996 b 849 933 678 996 770 975 b 1033 754 928 891 990 831 b 1097 486 1076 677 1097 588 b 1033 218 1097 384 1076 295 b 849 40 990 141 928 82 b 574 -24 770 -3 678 -24 b 298 40 469 -24 377 -3 m 728 217 b 833 325 773 243 808 279 b 869 486 857 371 869 425 b 833 647 869 547 857 601 b 728 755 808 694 773 729 b 574 793 684 780 632 793 b 419 755 515 793 464 780 b 316 647 375 729 341 694 b 279 486 291 601 279 547 b 316 325 279 425 291 371 b 419 217 341 279 375 243 b 574 179 464 192 515 179 b 728 217 632 179 684 192 m 642 1060 l 574 1124 l 506 1060 l 306 1060 l 500 1260 l 649 1260 l 842 1060 "},"Õ":{"ha":1147,"x_min":0,"x_max":0,"o":"m 298 40 b 115 218 219 82 158 141 b 50 486 72 295 50 384 b 115 754 50 588 72 677 b 298 933 158 831 219 891 b 574 996 377 975 469 996 b 849 933 678 996 770 975 b 1033 754 928 891 990 831 b 1097 486 1076 677 1097 588 b 1033 218 1097 384 1076 295 b 849 40 990 141 928 82 b 574 -24 770 -3 678 -24 b 298 40 469 -24 377 -3 m 728 217 b 833 325 773 243 808 279 b 869 486 857 371 869 425 b 833 647 869 547 857 601 b 728 755 808 694 773 729 b 574 793 684 780 632 793 b 419 755 515 793 464 780 b 316 647 375 729 341 694 b 279 486 291 601 279 547 b 316 325 279 425 291 371 b 419 217 341 279 375 243 b 574 179 464 192 515 179 b 728 217 632 179 684 192 m 567 1082 b 496 1106 538 1098 514 1106 b 435 1060 468 1106 448 1090 l 322 1136 b 385 1229 336 1176 357 1207 b 481 1263 414 1251 445 1263 b 578 1235 514 1263 546 1253 b 650 1211 604 1219 628 1211 b 711 1258 678 1211 698 1227 l 822 1186 b 763 1087 809 1143 789 1109 b 671 1053 736 1064 705 1053 b 567 1082 637 1053 602 1063 "},"Ö":{"ha":1147,"x_min":0,"x_max":0,"o":"m 298 40 b 115 218 219 82 158 141 b 50 486 72 295 50 384 b 115 754 50 588 72 677 b 298 933 158 831 219 891 b 574 996 377 975 469 996 b 849 933 678 996 770 975 b 1033 754 928 891 990 831 b 1097 486 1076 677 1097 588 b 1033 218 1097 384 1076 295 b 849 40 990 141 928 82 b 574 -24 770 -3 678 -24 b 298 40 469 -24 377 -3 m 728 217 b 833 325 773 243 808 279 b 869 486 857 371 869 425 b 833 647 869 547 857 601 b 728 755 808 694 773 729 b 574 793 684 780 632 793 b 419 755 515 793 464 780 b 316 647 375 729 341 694 b 279 486 291 601 279 547 b 316 325 279 425 291 371 b 419 217 341 279 375 243 b 574 179 464 192 515 179 b 728 217 632 179 684 192 m 330 1086 b 296 1169 307 1106 296 1134 b 330 1252 296 1205 307 1232 b 413 1282 353 1272 380 1282 b 494 1252 444 1282 471 1272 b 529 1169 518 1232 529 1205 b 494 1086 529 1134 518 1106 b 413 1056 471 1066 444 1056 b 330 1086 380 1056 353 1066 m 654 1086 b 619 1169 631 1106 619 1134 b 654 1252 619 1205 631 1232 b 736 1282 677 1272 705 1282 b 819 1252 769 1282 796 1272 b 853 1169 841 1232 853 1205 b 819 1086 853 1134 841 1106 b 736 1056 796 1066 769 1056 b 654 1086 705 1056 677 1066 "},"×":{"ha":649,"x_min":0,"x_max":0,"o":"m 454 436 l 583 306 l 451 176 l 325 304 l 197 176 l 65 306 l 194 436 l 65 567 l 197 697 l 325 568 l 451 697 l 583 567 "},"Ø":{"ha":1153,"x_min":0,"x_max":0,"o":"m 1058 714 b 1103 486 1088 646 1103 570 b 1038 218 1103 384 1081 295 b 853 40 994 141 933 82 b 576 -24 774 -3 682 -24 b 378 7 502 -24 436 -13 l 313 -99 l 108 -99 l 225 88 b 95 257 169 132 125 188 b 50 486 65 325 50 402 b 115 754 50 588 72 677 b 300 933 159 831 220 891 b 576 996 380 975 472 996 b 775 965 646 996 712 986 l 842 1071 l 1047 1071 l 928 883 b 1058 714 984 838 1028 781 m 417 760 b 310 650 372 734 336 697 b 272 486 285 603 272 548 b 291 368 272 444 278 404 b 343 274 303 332 321 300 l 665 788 b 576 799 636 795 606 799 b 417 760 516 799 463 786 m 736 213 b 843 322 782 238 818 275 b 881 486 868 369 881 424 b 811 699 881 571 857 642 l 489 185 b 576 174 517 177 546 174 b 736 213 637 174 690 187 "},"Ù":{"ha":1064,"x_min":0,"x_max":0,"o":"m 206 95 b 90 419 129 172 90 281 l 90 972 l 318 972 l 318 419 b 374 244 318 345 337 287 b 532 181 412 202 464 181 b 688 244 598 181 650 202 b 744 419 725 287 744 345 l 744 972 l 972 972 l 972 419 b 857 95 972 281 934 172 b 532 -21 780 18 672 -21 b 206 95 392 -21 284 18 m 290 1260 l 535 1260 l 638 1060 l 446 1060 "},"Ú":{"ha":1064,"x_min":0,"x_max":0,"o":"m 206 95 b 90 419 129 172 90 281 l 90 972 l 318 972 l 318 419 b 374 244 318 345 337 287 b 532 181 412 202 464 181 b 688 244 598 181 650 202 b 744 419 725 287 744 345 l 744 972 l 972 972 l 972 419 b 857 95 972 281 934 172 b 532 -21 780 18 672 -21 b 206 95 392 -21 284 18 m 772 1260 l 617 1060 l 425 1060 l 528 1260 "},"Û":{"ha":1064,"x_min":0,"x_max":0,"o":"m 206 95 b 90 419 129 172 90 281 l 90 972 l 318 972 l 318 419 b 374 244 318 345 337 287 b 532 181 412 202 464 181 b 688 244 598 181 650 202 b 744 419 725 287 744 345 l 744 972 l 972 972 l 972 419 b 857 95 972 281 934 172 b 532 -21 780 18 672 -21 b 206 95 392 -21 284 18 m 600 1060 l 532 1124 l 464 1060 l 264 1060 l 458 1260 l 607 1260 l 800 1060 "},"Ü":{"ha":1064,"x_min":0,"x_max":0,"o":"m 206 95 b 90 419 129 172 90 281 l 90 972 l 318 972 l 318 419 b 374 244 318 345 337 287 b 532 181 412 202 464 181 b 688 244 598 181 650 202 b 744 419 725 287 744 345 l 744 972 l 972 972 l 972 419 b 857 95 972 281 934 172 b 532 -21 780 18 672 -21 b 206 95 392 -21 284 18 m 287 1086 b 253 1169 264 1106 253 1134 b 287 1252 253 1205 264 1232 b 369 1282 309 1272 337 1282 b 451 1252 401 1282 428 1272 b 486 1169 475 1232 486 1205 b 451 1086 486 1134 475 1106 b 369 1056 428 1066 401 1056 b 287 1086 337 1056 309 1066 m 611 1086 b 576 1169 588 1106 576 1134 b 611 1252 576 1205 588 1232 b 693 1282 634 1272 662 1282 b 776 1252 725 1282 753 1272 b 810 1169 798 1232 810 1205 b 776 1086 810 1134 798 1106 b 693 1056 753 1066 725 1056 b 611 1086 662 1056 634 1066 "},"Ý":{"ha":986,"x_min":0,"x_max":0,"o":"m 600 381 l 600 0 l 374 0 l 374 381 l -8 972 l 258 972 l 489 594 l 725 972 l 996 972 m 733 1260 l 578 1060 l 386 1060 l 489 1260 "},"Þ":{"ha":969,"x_min":0,"x_max":0,"o":"m 767 794 b 897 672 823 766 867 725 b 943 488 928 619 943 558 b 897 303 943 417 928 356 b 767 181 867 250 823 209 b 571 138 711 152 646 138 l 333 138 l 333 0 l 106 0 l 106 972 l 333 972 l 333 838 l 571 838 b 767 794 646 838 711 823 m 675 380 b 717 488 703 407 717 443 b 675 595 717 532 703 568 b 563 636 647 622 610 636 l 332 636 l 332 339 l 563 339 b 675 380 610 339 647 353 "},"ß":{"ha":861,"x_min":0,"x_max":0,"o":"m 772 436 b 819 274 804 391 819 337 b 734 61 819 183 791 112 b 494 -15 677 10 597 -15 b 375 -3 465 -15 425 -11 l 375 190 b 458 178 403 182 431 178 b 565 210 505 178 540 189 b 603 306 590 232 603 264 b 559 402 603 348 588 380 b 431 435 530 424 487 435 l 386 435 l 386 614 l 421 614 b 511 638 460 614 490 622 b 543 704 532 654 543 676 b 510 772 543 733 532 756 b 422 797 489 789 459 797 b 300 675 341 797 300 756 l 300 0 l 82 0 l 82 697 b 170 910 82 789 111 860 b 419 986 229 961 312 986 b 595 954 486 986 545 975 b 712 863 646 933 684 903 b 753 728 739 824 753 779 b 723 610 753 683 743 644 b 640 533 703 575 675 550 b 772 436 697 514 741 481 "},"à":{"ha":883,"x_min":0,"x_max":0,"o":"m 801 0 l 613 0 l 599 82 b 371 -14 540 18 464 -14 b 201 31 307 -14 250 1 b 85 158 151 61 113 103 b 43 343 57 212 43 274 b 85 528 43 413 57 474 b 201 655 113 583 151 625 b 371 700 250 685 307 700 b 499 676 417 700 460 692 b 599 606 538 659 571 636 l 613 686 l 801 686 m 540 217 b 586 343 571 249 586 291 b 540 469 586 395 571 437 b 422 517 510 501 470 517 b 305 468 374 517 335 500 b 260 343 275 436 260 394 b 305 218 260 292 275 250 b 422 169 335 186 374 169 b 540 217 470 169 510 185 m 224 972 l 458 972 l 551 767 l 369 767 "},"á":{"ha":883,"x_min":0,"x_max":0,"o":"m 801 0 l 613 0 l 599 82 b 371 -14 540 18 464 -14 b 201 31 307 -14 250 1 b 85 158 151 61 113 103 b 43 343 57 212 43 274 b 85 528 43 413 57 474 b 201 655 113 583 151 625 b 371 700 250 685 307 700 b 499 676 417 700 460 692 b 599 606 538 659 571 636 l 613 686 l 801 686 m 540 217 b 586 343 571 249 586 291 b 540 469 586 395 571 437 b 422 517 510 501 470 517 b 305 468 374 517 335 500 b 260 343 275 436 260 394 b 305 218 260 292 275 250 b 422 169 335 186 374 169 b 540 217 470 169 510 185 m 667 972 l 521 767 l 339 767 l 432 972 "},"â":{"ha":883,"x_min":0,"x_max":0,"o":"m 801 0 l 613 0 l 599 82 b 371 -14 540 18 464 -14 b 201 31 307 -14 250 1 b 85 158 151 61 113 103 b 43 343 57 212 43 274 b 85 528 43 413 57 474 b 201 655 113 583 151 625 b 371 700 250 685 307 700 b 499 676 417 700 460 692 b 599 606 538 659 571 636 l 613 686 l 801 686 m 540 217 b 586 343 571 249 586 291 b 540 469 586 395 571 437 b 422 517 510 501 470 517 b 305 468 374 517 335 500 b 260 343 275 436 260 394 b 305 218 260 292 275 250 b 422 169 335 186 374 169 b 540 217 470 169 510 185 m 525 764 l 444 838 l 367 764 l 171 764 l 378 972 l 513 972 l 721 764 "},"ã":{"ha":883,"x_min":0,"x_max":0,"o":"m 801 0 l 613 0 l 599 82 b 371 -14 540 18 464 -14 b 201 31 307 -14 250 1 b 85 158 151 61 113 103 b 43 343 57 212 43 274 b 85 528 43 413 57 474 b 201 655 113 583 151 625 b 371 700 250 685 307 700 b 499 676 417 700 460 692 b 599 606 538 659 571 636 l 613 686 l 801 686 m 540 217 b 586 343 571 249 586 291 b 540 469 586 395 571 437 b 422 517 510 501 470 517 b 305 468 374 517 335 500 b 260 343 275 436 260 394 b 305 218 260 292 275 250 b 422 169 335 186 374 169 b 540 217 470 169 510 185 m 438 801 b 369 825 409 817 386 825 b 308 779 342 825 321 810 l 196 856 b 259 949 210 895 231 926 b 354 982 287 971 319 982 b 449 954 386 982 417 973 b 518 931 471 938 494 931 b 579 978 546 931 566 946 l 690 906 b 631 806 677 861 658 828 b 539 772 605 783 574 772 b 438 801 506 772 473 782 "},"ä":{"ha":883,"x_min":0,"x_max":0,"o":"m 801 0 l 613 0 l 599 82 b 371 -14 540 18 464 -14 b 201 31 307 -14 250 1 b 85 158 151 61 113 103 b 43 343 57 212 43 274 b 85 528 43 413 57 474 b 201 655 113 583 151 625 b 371 700 250 685 307 700 b 499 676 417 700 460 692 b 599 606 538 659 571 636 l 613 686 l 801 686 m 540 217 b 586 343 571 249 586 291 b 540 469 586 395 571 437 b 422 517 510 501 470 517 b 305 468 374 517 335 500 b 260 343 275 436 260 394 b 305 218 260 292 275 250 b 422 169 335 186 374 169 b 540 217 470 169 510 185 m 213 798 b 181 878 191 817 181 844 b 214 956 181 911 192 937 b 292 985 236 975 262 985 b 370 956 322 985 348 975 b 403 878 392 937 403 911 b 370 798 403 844 392 817 b 292 769 348 779 322 769 b 213 798 261 769 235 779 m 522 798 b 489 878 500 817 489 844 b 522 956 489 911 500 937 b 600 985 544 975 570 985 b 679 956 631 985 657 975 b 713 878 701 937 713 911 b 679 798 713 844 701 817 b 600 769 657 779 631 769 b 522 798 569 769 543 779 "},"å":{"ha":883,"x_min":0,"x_max":0,"o":"m 801 0 l 613 0 l 599 82 b 371 -14 540 18 464 -14 b 201 31 307 -14 250 1 b 85 158 151 61 113 103 b 43 343 57 212 43 274 b 85 528 43 413 57 474 b 201 655 113 583 151 625 b 371 700 250 685 307 700 b 499 676 417 700 460 692 b 599 606 538 659 571 636 l 613 686 l 801 686 m 540 217 b 586 343 571 249 586 291 b 540 469 586 395 571 437 b 422 517 510 501 470 517 b 305 468 374 517 335 500 b 260 343 275 436 260 394 b 305 218 260 292 275 250 b 422 169 335 186 374 169 b 540 217 470 169 510 185 m 306 797 b 251 919 269 828 251 869 b 306 1044 251 970 269 1012 b 444 1092 342 1076 388 1092 b 585 1044 502 1092 549 1076 b 639 919 621 1012 639 970 b 585 797 639 869 621 828 b 444 749 549 765 502 749 b 306 797 388 749 342 765 m 487 879 b 503 919 497 889 503 903 b 487 960 503 936 497 950 b 444 976 476 971 462 976 b 402 960 427 976 413 971 b 386 919 391 950 386 936 b 402 880 386 904 391 891 b 444 864 413 869 427 864 b 487 879 462 864 476 869 "},"æ":{"ha":1360,"x_min":0,"x_max":0,"o":"m 1170 658 b 1283 540 1219 631 1256 591 b 1322 364 1309 489 1322 431 b 1314 274 1322 336 1319 306 l 821 274 b 879 192 828 239 848 212 b 999 163 911 172 950 163 b 1099 178 1034 163 1067 168 b 1178 221 1130 188 1156 202 l 1293 97 b 1161 15 1256 62 1212 35 b 1001 -14 1110 -4 1057 -14 b 775 74 904 -14 829 15 l 765 0 l 593 0 l 586 75 b 368 -14 529 16 456 -14 b 200 31 305 -14 249 1 b 85 158 151 61 113 103 b 43 343 57 212 43 274 b 85 528 43 413 57 474 b 200 655 113 583 151 625 b 368 700 249 685 305 700 b 589 610 458 700 531 670 l 597 686 l 765 686 l 775 613 b 1000 700 831 671 906 700 b 1170 658 1065 700 1122 686 m 871 504 b 821 417 844 483 827 454 l 1124 417 b 1081 503 1123 452 1109 481 b 975 536 1054 525 1019 536 b 871 504 932 536 898 525 m 535 218 b 579 343 564 250 579 292 b 535 468 579 394 564 436 b 419 517 505 500 467 517 b 304 468 372 517 334 500 b 260 343 275 436 260 394 b 304 218 260 292 275 250 b 419 169 334 186 372 169 b 535 218 467 169 505 186 "},"ç":{"ha":719,"x_min":0,"x_max":0,"o":"m 553 -97 b 590 -196 578 -122 590 -155 b 538 -302 590 -239 573 -275 b 401 -343 503 -329 458 -343 b 294 -324 363 -343 327 -337 b 215 -271 262 -312 236 -294 l 289 -186 b 389 -224 319 -211 352 -224 b 433 -212 407 -224 422 -220 b 450 -181 444 -204 450 -194 b 433 -147 450 -167 444 -156 b 388 -135 422 -139 407 -135 b 339 -146 368 -135 352 -138 l 297 -107 l 335 -8 b 121 108 244 7 173 46 b 43 342 69 169 43 247 b 90 530 43 413 59 476 b 222 656 122 584 166 626 b 418 701 279 686 344 701 b 564 674 469 701 518 692 b 688 594 610 656 651 630 l 567 463 b 429 517 528 499 482 517 b 307 469 379 517 338 501 b 260 343 275 437 260 395 b 306 217 260 291 275 249 b 429 169 337 185 378 169 b 574 229 486 169 534 189 l 697 99 b 472 -12 631 34 556 -3 l 454 -56 b 553 -97 496 -58 529 -72 "},"è":{"ha":815,"x_min":0,"x_max":0,"o":"m 607 659 b 733 540 662 631 703 591 b 776 360 762 488 776 428 b 769 278 776 338 774 310 l 265 278 b 322 192 272 243 291 214 b 443 160 354 171 394 160 b 543 175 477 160 511 165 b 626 218 575 185 603 200 l 740 96 b 602 13 701 60 655 32 b 432 -17 549 -7 492 -17 b 225 27 352 -17 283 -2 b 90 151 167 56 122 98 b 43 342 59 205 43 269 b 90 529 43 412 59 475 b 219 656 121 584 164 626 b 413 701 275 686 339 701 b 607 659 488 701 552 687 m 313 496 b 267 403 286 474 270 443 l 569 403 b 526 496 567 443 552 474 b 419 529 499 518 464 529 b 313 496 376 529 341 518 m 193 972 l 428 972 l 521 767 l 339 767 "},"é":{"ha":815,"x_min":0,"x_max":0,"o":"m 607 659 b 733 540 662 631 703 591 b 776 360 762 488 776 428 b 769 278 776 338 774 310 l 265 278 b 322 192 272 243 291 214 b 443 160 354 171 394 160 b 543 175 477 160 511 165 b 626 218 575 185 603 200 l 740 96 b 602 13 701 60 655 32 b 432 -17 549 -7 492 -17 b 225 27 352 -17 283 -2 b 90 151 167 56 122 98 b 43 342 59 205 43 269 b 90 529 43 412 59 475 b 219 656 121 584 164 626 b 413 701 275 686 339 701 b 607 659 488 701 552 687 m 313 496 b 267 403 286 474 270 443 l 569 403 b 526 496 567 443 552 474 b 419 529 499 518 464 529 b 313 496 376 529 341 518 m 636 972 l 490 767 l 308 767 l 401 972 "},"ê":{"ha":815,"x_min":0,"x_max":0,"o":"m 607 659 b 733 540 662 631 703 591 b 776 360 762 488 776 428 b 769 278 776 338 774 310 l 265 278 b 322 192 272 243 291 214 b 443 160 354 171 394 160 b 543 175 477 160 511 165 b 626 218 575 185 603 200 l 740 96 b 602 13 701 60 655 32 b 432 -17 549 -7 492 -17 b 225 27 352 -17 283 -2 b 90 151 167 56 122 98 b 43 342 59 205 43 269 b 90 529 43 412 59 475 b 219 656 121 584 164 626 b 413 701 275 686 339 701 b 607 659 488 701 552 687 m 313 496 b 267 403 286 474 270 443 l 569 403 b 526 496 567 443 552 474 b 419 529 499 518 464 529 b 313 496 376 529 341 518 m 493 764 l 413 838 l 335 764 l 139 764 l 346 972 l 481 972 l 689 764 "},"ë":{"ha":815,"x_min":0,"x_max":0,"o":"m 607 659 b 733 540 662 631 703 591 b 776 360 762 488 776 428 b 769 278 776 338 774 310 l 265 278 b 322 192 272 243 291 214 b 443 160 354 171 394 160 b 543 175 477 160 511 165 b 626 218 575 185 603 200 l 740 96 b 602 13 701 60 655 32 b 432 -17 549 -7 492 -17 b 225 27 352 -17 283 -2 b 90 151 167 56 122 98 b 43 342 59 205 43 269 b 90 529 43 412 59 475 b 219 656 121 584 164 626 b 413 701 275 686 339 701 b 607 659 488 701 552 687 m 313 496 b 267 403 286 474 270 443 l 569 403 b 526 496 567 443 552 474 b 419 529 499 518 464 529 b 313 496 376 529 341 518 m 181 798 b 149 878 159 817 149 844 b 182 956 149 911 160 937 b 260 985 204 975 230 985 b 338 956 290 985 316 975 b 371 878 360 937 371 911 b 338 798 371 844 360 817 b 260 769 316 779 290 769 b 181 798 229 769 203 779 m 490 798 b 457 878 468 817 457 844 b 490 956 457 911 468 937 b 568 985 513 975 538 985 b 647 956 599 985 625 975 b 681 878 669 937 681 911 b 647 798 681 844 669 817 b 568 769 625 779 599 769 b 490 798 538 769 511 779 "},"ì":{"ha":382,"x_min":0,"x_max":0,"o":"m 300 686 l 300 0 l 82 0 l 82 686 m -10 972 l 225 972 l 296 767 l 113 767 "},"í":{"ha":382,"x_min":0,"x_max":0,"o":"m 300 686 l 300 0 l 82 0 l 82 686 m 392 972 l 269 767 l 86 767 l 157 972 "},"î":{"ha":382,"x_min":0,"x_max":0,"o":"m 300 686 l 300 0 l 82 0 l 82 686 m 256 764 l 190 838 l 126 764 l -67 764 l 121 972 l 263 972 l 449 764 "},"ï":{"ha":382,"x_min":0,"x_max":0,"o":"m 300 686 l 300 0 l 82 0 l 82 686 m -31 799 b -62 878 -52 818 -62 844 b -31 956 -62 910 -52 936 b 44 985 -9 975 16 985 b 120 956 74 985 99 975 b 151 878 141 936 151 910 b 120 799 151 844 141 818 b 44 769 99 779 74 769 b -31 799 16 769 -9 779 m 260 799 b 229 878 240 818 229 844 b 260 956 229 910 240 936 b 336 985 281 975 306 985 b 412 956 366 985 391 975 b 443 878 433 936 443 910 b 412 799 443 844 433 818 b 336 769 391 779 366 769 b 260 799 306 769 281 779 "},"ð":{"ha":814,"x_min":0,"x_max":0,"o":"m 710 626 b 768 343 749 540 768 446 b 723 155 768 272 753 209 b 596 29 693 101 650 59 b 406 -15 541 0 478 -15 b 215 27 333 -15 270 -1 b 88 148 161 55 118 96 b 43 329 58 200 43 261 b 85 504 43 395 57 453 b 202 623 113 555 152 595 b 376 665 253 651 311 665 b 485 642 419 665 455 657 b 362 748 455 682 414 718 b 192 808 309 778 253 798 l 228 969 b 418 918 300 960 363 943 l 481 993 l 601 901 l 547 839 b 710 626 618 782 672 711 m 513 211 b 556 329 541 242 556 281 b 513 446 556 376 541 415 b 406 492 485 476 449 492 b 298 446 362 492 326 476 b 256 329 270 415 256 376 b 298 211 256 281 270 242 b 406 165 326 181 362 165 b 513 211 449 165 485 181 "},"ñ":{"ha":858,"x_min":0,"x_max":0,"o":"m 709 618 b 785 388 759 563 785 486 l 785 0 l 567 0 l 567 375 b 533 479 567 419 556 454 b 442 517 511 504 481 517 b 339 474 399 517 365 502 b 300 361 313 445 300 407 l 300 0 l 82 0 l 82 686 l 271 686 l 285 606 b 381 676 312 636 344 660 b 506 701 419 693 460 701 b 709 618 591 701 659 674 m 449 801 b 381 825 420 817 397 825 b 319 779 353 825 332 810 l 207 856 b 270 949 221 895 242 926 b 365 982 298 971 330 982 b 460 954 397 982 428 973 b 529 931 482 938 505 931 b 590 978 557 931 577 946 l 701 906 b 642 806 688 861 669 828 b 550 772 616 783 585 772 b 449 801 518 772 484 782 "},"ò":{"ha":840,"x_min":0,"x_max":0,"o":"m 220 30 b 89 156 163 60 119 102 b 43 343 58 209 43 272 b 89 531 43 414 58 477 b 220 656 119 584 163 626 b 419 701 277 686 344 701 b 619 656 495 701 562 686 b 751 531 677 626 721 584 b 797 343 782 477 797 414 b 751 156 797 272 782 209 b 619 30 721 102 677 60 b 419 -15 562 0 495 -15 b 220 30 344 -15 277 0 m 536 218 b 581 343 566 250 581 292 b 536 468 581 394 566 436 b 419 517 506 500 468 517 b 304 468 372 517 334 500 b 260 343 275 436 260 394 b 304 218 260 292 275 250 b 419 169 334 186 372 169 b 536 218 468 169 506 186 m 199 972 l 433 972 l 526 767 l 344 767 "},"ó":{"ha":840,"x_min":0,"x_max":0,"o":"m 220 30 b 89 156 163 60 119 102 b 43 343 58 209 43 272 b 89 531 43 414 58 477 b 220 656 119 584 163 626 b 419 701 277 686 344 701 b 619 656 495 701 562 686 b 751 531 677 626 721 584 b 797 343 782 477 797 414 b 751 156 797 272 782 209 b 619 30 721 102 677 60 b 419 -15 562 0 495 -15 b 220 30 344 -15 277 0 m 536 218 b 581 343 566 250 581 292 b 536 468 581 394 566 436 b 419 517 506 500 468 517 b 304 468 372 517 334 500 b 260 343 275 436 260 394 b 304 218 260 292 275 250 b 419 169 334 186 372 169 b 536 218 468 169 506 186 m 642 972 l 496 767 l 314 767 l 407 972 "},"ô":{"ha":840,"x_min":0,"x_max":0,"o":"m 220 30 b 89 156 163 60 119 102 b 43 343 58 209 43 272 b 89 531 43 414 58 477 b 220 656 119 584 163 626 b 419 701 277 686 344 701 b 619 656 495 701 562 686 b 751 531 677 626 721 584 b 797 343 782 477 797 414 b 751 156 797 272 782 209 b 619 30 721 102 677 60 b 419 -15 562 0 495 -15 b 220 30 344 -15 277 0 m 536 218 b 581 343 566 250 581 292 b 536 468 581 394 566 436 b 419 517 506 500 468 517 b 304 468 372 517 334 500 b 260 343 275 436 260 394 b 304 218 260 292 275 250 b 419 169 334 186 372 169 b 536 218 468 169 506 186 m 500 764 l 419 838 l 342 764 l 146 764 l 353 972 l 488 972 l 696 764 "},"õ":{"ha":840,"x_min":0,"x_max":0,"o":"m 220 30 b 89 156 163 60 119 102 b 43 343 58 209 43 272 b 89 531 43 414 58 477 b 220 656 119 584 163 626 b 419 701 277 686 344 701 b 619 656 495 701 562 686 b 751 531 677 626 721 584 b 797 343 782 477 797 414 b 751 156 797 272 782 209 b 619 30 721 102 677 60 b 419 -15 562 0 495 -15 b 220 30 344 -15 277 0 m 536 218 b 581 343 566 250 581 292 b 536 468 581 394 566 436 b 419 517 506 500 468 517 b 304 468 372 517 334 500 b 260 343 275 436 260 394 b 304 218 260 292 275 250 b 419 169 334 186 372 169 b 536 218 468 169 506 186 m 413 801 b 344 825 384 817 361 825 b 283 779 317 825 296 810 l 171 856 b 234 949 185 895 206 926 b 329 982 262 971 294 982 b 424 954 361 982 392 973 b 493 931 446 938 469 931 b 554 978 521 931 541 946 l 665 906 b 606 806 652 861 633 828 b 514 772 580 783 549 772 b 413 801 481 772 448 782 "},"ö":{"ha":840,"x_min":0,"x_max":0,"o":"m 220 30 b 89 156 163 60 119 102 b 43 343 58 209 43 272 b 89 531 43 414 58 477 b 220 656 119 584 163 626 b 419 701 277 686 344 701 b 619 656 495 701 562 686 b 751 531 677 626 721 584 b 797 343 782 477 797 414 b 751 156 797 272 782 209 b 619 30 721 102 677 60 b 419 -15 562 0 495 -15 b 220 30 344 -15 277 0 m 536 218 b 581 343 566 250 581 292 b 536 468 581 394 566 436 b 419 517 506 500 468 517 b 304 468 372 517 334 500 b 260 343 275 436 260 394 b 304 218 260 292 275 250 b 419 169 334 186 372 169 b 536 218 468 169 506 186 m 187 798 b 154 878 165 817 154 844 b 188 956 154 911 165 937 b 265 985 210 975 236 985 b 344 956 296 985 322 975 b 376 878 366 937 376 911 b 344 798 376 844 366 817 b 265 769 322 779 296 769 b 187 798 235 769 209 779 m 495 798 b 463 878 473 817 463 844 b 496 956 463 911 474 937 b 574 985 518 975 544 985 b 653 956 604 985 631 975 b 686 878 675 937 686 911 b 653 798 686 844 675 817 b 574 769 631 779 604 769 b 495 798 543 769 517 779 "},"÷":{"ha":792,"x_min":0,"x_max":0,"o":"m 310 643 b 275 722 287 663 275 690 b 309 803 275 756 286 782 b 396 833 332 823 361 833 b 483 803 431 833 460 823 b 517 722 505 782 517 756 b 482 643 517 690 505 663 b 396 613 459 623 430 613 b 310 643 362 613 333 623 m 713 547 l 713 369 l 81 369 l 81 547 m 309 108 b 275 189 286 129 275 156 b 310 268 275 221 287 248 b 396 299 333 288 362 299 b 482 268 430 299 459 288 b 517 189 505 248 517 221 b 483 108 517 156 505 129 b 396 78 460 88 431 78 b 309 108 361 78 332 88 "},"ø":{"ha":835,"x_min":0,"x_max":0,"o":"m 757 509 b 792 343 780 459 792 404 b 746 156 792 272 776 209 b 615 30 715 102 672 60 b 417 -15 558 0 492 -15 b 290 1 371 -15 329 -10 l 240 -85 l 96 -85 l 178 56 b 78 176 134 87 101 127 b 43 343 55 225 43 281 b 89 530 43 413 58 476 b 219 656 119 584 163 626 b 417 701 276 686 342 701 b 546 683 466 701 509 695 l 596 768 l 739 768 l 657 631 b 757 509 700 599 734 559 m 303 468 b 260 343 274 436 260 394 b 286 240 260 305 269 271 l 447 514 b 417 517 434 516 424 517 b 303 468 370 517 333 500 m 531 218 b 575 343 560 250 575 292 b 549 444 575 381 566 415 l 389 172 b 417 169 402 170 411 169 b 531 218 464 169 502 186 "},"ù":{"ha":853,"x_min":0,"x_max":0,"o":"m 771 0 l 582 0 l 568 79 b 473 9 542 49 510 25 b 350 -15 435 -7 394 -15 b 149 68 266 -15 199 13 b 74 299 99 124 74 200 l 74 686 l 292 686 l 292 311 b 324 207 292 267 303 232 b 414 169 346 182 376 169 b 515 213 456 169 489 184 b 553 326 540 242 553 280 l 553 686 l 771 686 m 201 972 l 436 972 l 529 767 l 347 767 "},"ú":{"ha":853,"x_min":0,"x_max":0,"o":"m 771 0 l 582 0 l 568 79 b 473 9 542 49 510 25 b 350 -15 435 -7 394 -15 b 149 68 266 -15 199 13 b 74 299 99 124 74 200 l 74 686 l 292 686 l 292 311 b 324 207 292 267 303 232 b 414 169 346 182 376 169 b 515 213 456 169 489 184 b 553 326 540 242 553 280 l 553 686 l 771 686 m 644 972 l 499 767 l 317 767 l 410 972 "},"û":{"ha":853,"x_min":0,"x_max":0,"o":"m 771 0 l 582 0 l 568 79 b 473 9 542 49 510 25 b 350 -15 435 -7 394 -15 b 149 68 266 -15 199 13 b 74 299 99 124 74 200 l 74 686 l 292 686 l 292 311 b 324 207 292 267 303 232 b 414 169 346 182 376 169 b 515 213 456 169 489 184 b 553 326 540 242 553 280 l 553 686 l 771 686 m 503 764 l 422 838 l 344 764 l 149 764 l 356 972 l 490 972 l 699 764 "},"ü":{"ha":853,"x_min":0,"x_max":0,"o":"m 771 0 l 582 0 l 568 79 b 473 9 542 49 510 25 b 350 -15 435 -7 394 -15 b 149 68 266 -15 199 13 b 74 299 99 124 74 200 l 74 686 l 292 686 l 292 311 b 324 207 292 267 303 232 b 414 169 346 182 376 169 b 515 213 456 169 489 184 b 553 326 540 242 553 280 l 553 686 l 771 686 m 190 798 b 157 878 168 817 157 844 b 190 956 157 911 168 937 b 268 985 213 975 238 985 b 347 956 299 985 325 975 b 379 878 368 937 379 911 b 347 798 379 844 368 817 b 268 769 325 779 299 769 b 190 798 238 769 211 779 m 498 798 b 465 878 476 817 465 844 b 499 956 465 911 476 937 b 576 985 521 975 547 985 b 656 956 607 985 633 975 b 689 878 678 937 689 911 b 656 798 689 844 678 817 b 576 769 633 779 607 769 b 498 798 546 769 520 779 "},"ý":{"ha":799,"x_min":0,"x_max":0,"o":"m 796 686 l 368 -297 l 136 -297 l 269 10 l 3 686 l 238 686 l 317 469 l 392 246 l 472 469 l 560 686 m 619 972 l 474 767 l 292 767 l 385 972 "},"þ":{"ha":882,"x_min":0,"x_max":0,"o":"m 679 655 b 797 528 729 625 768 583 b 839 343 825 474 839 413 b 797 158 839 274 825 212 b 679 31 768 103 729 61 b 507 -14 629 1 572 -14 b 300 68 418 -14 349 13 l 300 -297 l 82 -297 l 82 972 l 300 972 l 300 618 b 507 700 349 673 418 700 b 679 655 572 700 629 685 m 578 217 b 624 343 608 249 624 291 b 578 469 624 395 608 437 b 460 517 547 501 508 517 b 342 469 412 517 372 501 b 296 343 311 437 296 395 b 342 217 296 291 311 249 b 460 169 372 185 412 169 b 578 217 508 169 547 185 "},"ÿ":{"ha":799,"x_min":0,"x_max":0,"o":"m 796 686 l 368 -297 l 136 -297 l 269 10 l 3 686 l 238 686 l 317 469 l 392 246 l 472 469 l 560 686 m 165 798 b 132 878 143 817 132 844 b 165 956 132 911 143 937 b 243 985 188 975 213 985 b 322 956 274 985 300 975 b 354 878 343 937 354 911 b 322 798 354 844 343 817 b 243 769 300 779 274 769 b 165 798 213 769 186 779 m 473 798 b 440 878 451 817 440 844 b 474 956 440 911 451 937 b 551 985 496 975 522 985 b 631 956 582 985 608 975 b 664 878 653 937 664 911 b 631 798 664 844 653 817 b 551 769 608 779 582 769 b 473 798 521 769 495 779 "},"Ā":{"ha":1093,"x_min":0,"x_max":0,"o":"m 785 175 l 306 175 l 233 0 l -10 0 l 426 972 l 669 972 l 1103 0 l 857 0 m 388 371 l 704 371 l 547 754 m 775 1229 l 775 1072 l 318 1072 l 318 1229 "},"ā":{"ha":883,"x_min":0,"x_max":0,"o":"m 801 0 l 613 0 l 599 82 b 371 -14 540 18 464 -14 b 201 31 307 -14 250 1 b 85 158 151 61 113 103 b 43 343 57 212 43 274 b 85 528 43 413 57 474 b 201 655 113 583 151 625 b 371 700 250 685 307 700 b 499 676 417 700 460 692 b 599 606 538 659 571 636 l 613 686 l 801 686 m 540 217 b 586 343 571 249 586 291 b 540 469 586 395 571 437 b 422 517 510 501 470 517 b 305 468 374 517 335 500 b 260 343 275 436 260 394 b 305 218 260 292 275 250 b 422 169 335 186 374 169 b 540 217 470 169 510 185 m 654 943 l 654 786 l 238 786 l 238 943 "},"Ă":{"ha":1093,"x_min":0,"x_max":0,"o":"m 785 175 l 306 175 l 233 0 l -10 0 l 426 972 l 669 972 l 1103 0 l 857 0 m 388 371 l 704 371 l 547 754 m 378 1110 b 317 1263 337 1147 317 1198 l 481 1263 b 499 1214 481 1242 487 1226 b 546 1196 511 1202 526 1196 b 594 1214 566 1196 582 1202 b 613 1263 606 1226 613 1242 l 775 1263 b 714 1110 775 1198 755 1147 b 546 1056 673 1074 617 1056 b 378 1110 475 1056 419 1074 "},"ă":{"ha":883,"x_min":0,"x_max":0,"o":"m 801 0 l 613 0 l 599 82 b 371 -14 540 18 464 -14 b 201 31 307 -14 250 1 b 85 158 151 61 113 103 b 43 343 57 212 43 274 b 85 528 43 413 57 474 b 201 655 113 583 151 625 b 371 700 250 685 307 700 b 499 676 417 700 460 692 b 599 606 538 659 571 636 l 613 686 l 801 686 m 540 217 b 586 343 571 249 586 291 b 540 469 586 395 571 437 b 422 517 510 501 470 517 b 305 468 374 517 335 500 b 260 343 275 436 260 394 b 305 218 260 292 275 250 b 422 169 335 186 374 169 b 540 217 470 169 510 185 m 278 820 b 217 972 237 857 217 907 l 381 972 b 399 924 381 952 387 936 b 446 906 411 912 426 906 b 494 924 466 906 482 912 b 513 972 506 936 513 952 l 675 972 b 614 820 675 907 655 857 b 446 765 573 784 517 765 b 278 820 375 765 319 784 "},"Ą":{"ha":1093,"x_min":0,"x_max":0,"o":"m 1167 -217 b 1088 -265 1142 -239 1115 -255 b 994 -279 1060 -274 1029 -279 b 881 -243 946 -279 909 -267 b 840 -143 854 -219 840 -186 b 908 0 840 -90 863 -43 l 857 0 l 785 175 l 306 175 l 233 0 l -10 0 l 426 972 l 669 972 l 1103 0 b 1017 -92 1045 -32 1017 -63 b 1026 -116 1017 -102 1020 -110 b 1054 -125 1033 -122 1042 -125 b 1101 -110 1071 -125 1087 -120 l 1167 -217 m 388 371 l 704 371 l 547 754 "},"ą":{"ha":883,"x_min":0,"x_max":0,"o":"m 867 -196 b 693 -261 818 -239 760 -261 b 584 -228 647 -261 610 -250 b 544 -136 558 -206 544 -175 b 613 1 544 -84 567 -38 l 599 82 b 371 -14 540 18 464 -14 b 201 31 307 -14 250 1 b 85 158 151 61 113 103 b 43 343 57 212 43 274 b 85 528 43 413 57 474 b 201 655 113 583 151 625 b 371 700 250 685 307 700 b 499 676 417 700 460 692 b 599 606 538 659 571 636 l 613 686 l 801 686 l 801 1 l 803 0 b 707 -86 739 -29 707 -57 b 718 -112 707 -96 711 -105 b 747 -122 725 -119 735 -122 b 777 -116 756 -122 766 -120 b 806 -100 788 -112 797 -106 l 867 -196 m 540 217 b 586 343 571 249 586 291 b 540 469 586 395 571 437 b 422 517 510 501 470 517 b 305 468 374 517 335 500 b 260 343 275 436 260 394 b 305 218 260 292 275 250 b 422 169 335 186 374 169 b 540 217 470 169 510 185 "},"Ć":{"ha":978,"x_min":0,"x_max":0,"o":"m 298 42 b 115 221 219 84 158 144 b 50 486 72 298 50 386 b 116 752 50 586 72 675 b 300 931 160 829 221 889 b 569 994 379 973 469 994 b 939 843 713 994 836 944 l 799 703 b 575 792 737 762 662 792 b 420 753 517 792 465 779 b 316 646 375 728 341 692 b 279 486 291 600 279 546 b 316 326 279 426 291 373 b 420 219 341 280 375 244 b 575 181 465 193 517 181 b 708 206 621 181 666 189 b 819 278 751 222 788 246 l 953 129 b 574 -22 848 28 722 -22 b 298 42 469 -22 377 -1 m 792 1260 l 636 1060 l 444 1060 l 547 1260 "},"ć":{"ha":719,"x_min":0,"x_max":0,"o":"m 222 28 b 90 153 165 58 121 99 b 43 342 59 206 43 269 b 90 530 43 413 59 476 b 222 656 122 584 166 626 b 418 701 279 686 344 701 b 564 674 469 701 518 692 b 688 594 610 656 651 630 l 567 463 b 429 517 528 499 482 517 b 307 469 379 517 338 501 b 260 343 275 437 260 395 b 306 217 260 291 275 249 b 429 169 337 185 378 169 b 574 229 486 169 534 189 l 697 99 b 422 -15 620 23 529 -15 b 222 28 345 -15 278 -1 m 626 972 l 481 767 l 299 767 l 392 972 "},"Ĉ":{"ha":978,"x_min":0,"x_max":0,"o":"m 298 42 b 115 221 219 84 158 144 b 50 486 72 298 50 386 b 116 752 50 586 72 675 b 300 931 160 829 221 889 b 569 994 379 973 469 994 b 939 843 713 994 836 944 l 799 703 b 575 792 737 762 662 792 b 420 753 517 792 465 779 b 316 646 375 728 341 692 b 279 486 291 600 279 546 b 316 326 279 426 291 373 b 420 219 341 280 375 244 b 575 181 465 193 517 181 b 708 206 621 181 666 189 b 819 278 751 222 788 246 l 953 129 b 574 -22 848 28 722 -22 b 298 42 469 -22 377 -1 m 619 1060 l 551 1124 l 483 1060 l 283 1060 l 478 1260 l 626 1260 l 819 1060 "},"ĉ":{"ha":719,"x_min":0,"x_max":0,"o":"m 222 28 b 90 153 165 58 121 99 b 43 342 59 206 43 269 b 90 530 43 413 59 476 b 222 656 122 584 166 626 b 418 701 279 686 344 701 b 564 674 469 701 518 692 b 688 594 610 656 651 630 l 567 463 b 429 517 528 499 482 517 b 307 469 379 517 338 501 b 260 343 275 437 260 395 b 306 217 260 291 275 249 b 429 169 337 185 378 169 b 574 229 486 169 534 189 l 697 99 b 422 -15 620 23 529 -15 b 222 28 345 -15 278 -1 m 483 764 l 403 838 l 325 764 l 129 764 l 336 972 l 471 972 l 679 764 "},"Ċ":{"ha":978,"x_min":0,"x_max":0,"o":"m 298 42 b 115 221 219 84 158 144 b 50 486 72 298 50 386 b 116 752 50 586 72 675 b 300 931 160 829 221 889 b 569 994 379 973 469 994 b 939 843 713 994 836 944 l 799 703 b 575 792 737 762 662 792 b 420 753 517 792 465 779 b 316 646 375 728 341 692 b 279 486 291 600 279 546 b 316 326 279 426 291 373 b 420 219 341 280 375 244 b 575 181 465 193 517 181 b 708 206 621 181 666 189 b 819 278 751 222 788 246 l 953 129 b 574 -22 848 28 722 -22 b 298 42 469 -22 377 -1 m 465 1083 b 431 1164 442 1105 431 1131 b 465 1245 431 1197 442 1224 b 551 1276 487 1266 516 1276 b 638 1245 587 1276 616 1266 b 672 1164 661 1224 672 1197 b 638 1083 672 1131 661 1105 b 551 1051 616 1062 587 1051 b 465 1083 516 1051 487 1062 "},"ċ":{"ha":719,"x_min":0,"x_max":0,"o":"m 222 28 b 90 153 165 58 121 99 b 43 342 59 206 43 269 b 90 530 43 413 59 476 b 222 656 122 584 166 626 b 418 701 279 686 344 701 b 564 674 469 701 518 692 b 688 594 610 656 651 630 l 567 463 b 429 517 528 499 482 517 b 307 469 379 517 338 501 b 260 343 275 437 260 395 b 306 217 260 291 275 249 b 429 169 337 185 378 169 b 574 229 486 169 534 189 l 697 99 b 422 -15 620 23 529 -15 b 222 28 345 -15 278 -1 m 319 800 b 286 878 297 820 286 846 b 319 956 286 909 297 935 b 404 986 342 976 370 986 b 488 956 438 986 466 976 b 521 878 510 935 521 909 b 488 800 521 846 510 820 b 404 769 466 780 438 769 b 319 800 370 769 342 780 "},"Č":{"ha":978,"x_min":0,"x_max":0,"o":"m 298 42 b 115 221 219 84 158 144 b 50 486 72 298 50 386 b 116 752 50 586 72 675 b 300 931 160 829 221 889 b 569 994 379 973 469 994 b 939 843 713 994 836 944 l 799 703 b 575 792 737 762 662 792 b 420 753 517 792 465 779 b 316 646 375 728 341 692 b 279 486 291 600 279 546 b 316 326 279 426 291 373 b 420 219 341 280 375 244 b 575 181 465 193 517 181 b 708 206 621 181 666 189 b 819 278 751 222 788 246 l 953 129 b 574 -22 848 28 722 -22 b 298 42 469 -22 377 -1 m 819 1264 l 626 1064 l 478 1064 l 283 1264 l 483 1264 l 551 1200 l 619 1264 "},"č":{"ha":719,"x_min":0,"x_max":0,"o":"m 222 28 b 90 153 165 58 121 99 b 43 342 59 206 43 269 b 90 530 43 413 59 476 b 222 656 122 584 166 626 b 418 701 279 686 344 701 b 564 674 469 701 518 692 b 688 594 610 656 651 630 l 567 463 b 429 517 528 499 482 517 b 307 469 379 517 338 501 b 260 343 275 437 260 395 b 306 217 260 291 275 249 b 429 169 337 185 378 169 b 574 229 486 169 534 189 l 697 99 b 422 -15 620 23 529 -15 b 222 28 345 -15 278 -1 m 679 972 l 471 764 l 336 764 l 129 972 l 325 972 l 403 899 l 483 972 "},"Ď":{"ha":1054,"x_min":0,"x_max":0,"o":"m 767 913 b 942 742 843 873 901 816 b 1004 486 984 669 1004 583 b 942 230 1004 389 984 303 b 767 60 901 156 843 100 b 504 0 692 20 604 0 l 106 0 l 106 972 l 504 972 b 767 913 604 972 692 952 m 701 276 b 776 486 751 328 776 398 b 742 638 776 544 765 595 b 647 738 720 681 688 715 b 504 774 605 762 558 774 l 333 774 l 333 199 l 504 199 b 701 276 586 199 651 225 m 747 1264 l 554 1064 l 406 1064 l 211 1264 l 411 1264 l 479 1200 l 547 1264 "},"ď":{"ha":988,"x_min":0,"x_max":0,"o":"m 801 972 l 801 0 l 613 0 l 599 82 b 371 -14 540 18 464 -14 b 201 31 307 -14 250 1 b 85 158 151 61 113 103 b 43 343 57 212 43 274 b 85 528 43 413 57 474 b 201 655 113 583 151 625 b 371 700 250 685 307 700 b 583 621 455 700 526 674 l 583 972 m 1086 972 l 985 681 l 840 681 l 903 972 m 540 217 b 586 343 571 249 586 291 b 540 469 586 395 571 437 b 422 517 510 501 470 517 b 305 468 374 517 335 500 b 260 343 275 436 260 394 b 305 218 260 292 275 250 b 422 169 335 186 374 169 b 540 217 470 169 510 185 "},"Đ":{"ha":1069,"x_min":0,"x_max":0,"o":"m 783 913 b 958 742 858 873 916 816 b 1019 486 999 669 1019 583 b 958 230 1019 389 999 303 b 783 60 916 156 858 100 b 519 0 707 20 619 0 l 119 0 l 119 400 l 15 400 l 15 576 l 119 576 l 119 972 l 519 972 b 783 913 619 972 707 952 m 717 275 b 790 486 766 328 790 398 b 717 697 790 574 766 644 b 517 776 669 750 602 776 l 347 776 l 347 576 l 544 576 l 544 400 l 347 400 l 347 196 l 517 196 b 717 275 602 196 669 222 "},"đ":{"ha":888,"x_min":0,"x_max":0,"o":"m 806 767 l 806 0 l 617 0 l 603 82 b 375 -14 544 18 469 -14 b 205 31 311 -14 254 1 b 89 158 155 61 117 103 b 47 343 61 212 47 274 b 89 528 47 413 61 474 b 205 655 117 583 155 625 b 375 700 254 685 311 700 b 588 621 459 700 530 674 l 588 767 l 463 767 l 463 894 l 588 894 l 588 972 l 806 972 l 806 894 l 893 894 l 893 767 m 544 217 b 590 343 575 249 590 291 b 544 469 590 395 575 437 b 426 517 514 501 475 517 b 308 468 378 517 339 500 b 263 343 278 436 263 394 b 308 218 263 292 278 250 b 426 169 339 186 378 169 b 544 217 475 169 514 185 "},"Ē":{"ha":925,"x_min":0,"x_max":0,"o":"m 863 192 l 863 0 l 106 0 l 106 972 l 847 972 l 847 782 l 326 782 l 326 585 l 819 585 l 819 401 l 326 401 l 326 192 m 717 1229 l 717 1072 l 260 1072 l 260 1229 "},"ē":{"ha":815,"x_min":0,"x_max":0,"o":"m 607 659 b 733 540 662 631 703 591 b 776 360 762 488 776 428 b 769 278 776 338 774 310 l 265 278 b 322 192 272 243 291 214 b 443 160 354 171 394 160 b 543 175 477 160 511 165 b 626 218 575 185 603 200 l 740 96 b 602 13 701 60 655 32 b 432 -17 549 -7 492 -17 b 225 27 352 -17 283 -2 b 90 151 167 56 122 98 b 43 342 59 205 43 269 b 90 529 43 412 59 475 b 219 656 121 584 164 626 b 413 701 275 686 339 701 b 607 659 488 701 552 687 m 313 496 b 267 403 286 474 270 443 l 569 403 b 526 496 567 443 552 474 b 419 529 499 518 464 529 b 313 496 376 529 341 518 m 622 943 l 622 786 l 206 786 l 206 943 "},"Ĕ":{"ha":925,"x_min":0,"x_max":0,"o":"m 863 192 l 863 0 l 106 0 l 106 972 l 847 972 l 847 782 l 326 782 l 326 585 l 819 585 l 819 401 l 326 401 l 326 192 m 321 1110 b 260 1263 280 1147 260 1198 l 424 1263 b 442 1214 424 1242 430 1226 b 489 1196 454 1202 469 1196 b 538 1214 509 1196 525 1202 b 556 1263 550 1226 556 1242 l 718 1263 b 657 1110 718 1198 698 1147 b 489 1056 616 1074 560 1056 b 321 1110 418 1056 362 1074 "},"ĕ":{"ha":815,"x_min":0,"x_max":0,"o":"m 607 659 b 733 540 662 631 703 591 b 776 360 762 488 776 428 b 769 278 776 338 774 310 l 265 278 b 322 192 272 243 291 214 b 443 160 354 171 394 160 b 543 175 477 160 511 165 b 626 218 575 185 603 200 l 740 96 b 602 13 701 60 655 32 b 432 -17 549 -7 492 -17 b 225 27 352 -17 283 -2 b 90 151 167 56 122 98 b 43 342 59 205 43 269 b 90 529 43 412 59 475 b 219 656 121 584 164 626 b 413 701 275 686 339 701 b 607 659 488 701 552 687 m 313 496 b 267 403 286 474 270 443 l 569 403 b 526 496 567 443 552 474 b 419 529 499 518 464 529 b 313 496 376 529 341 518 m 246 820 b 185 972 205 857 185 907 l 349 972 b 367 924 349 952 355 936 b 414 906 379 912 394 906 b 463 924 434 906 450 912 b 481 972 475 936 481 952 l 643 972 b 582 820 643 907 623 857 b 414 765 541 784 485 765 b 246 820 343 765 287 784 "},"Ė":{"ha":925,"x_min":0,"x_max":0,"o":"m 863 192 l 863 0 l 106 0 l 106 972 l 847 972 l 847 782 l 326 782 l 326 585 l 819 585 l 819 401 l 326 401 l 326 192 m 402 1083 b 368 1164 379 1105 368 1131 b 402 1245 368 1197 379 1224 b 489 1276 425 1266 454 1276 b 576 1245 524 1276 553 1266 b 610 1164 598 1224 610 1197 b 576 1083 610 1131 598 1105 b 489 1051 553 1062 524 1051 b 402 1083 454 1051 425 1062 "},"ė":{"ha":815,"x_min":0,"x_max":0,"o":"m 607 659 b 733 540 662 631 703 591 b 776 360 762 488 776 428 b 769 278 776 338 774 310 l 265 278 b 322 192 272 243 291 214 b 443 160 354 171 394 160 b 543 175 477 160 511 165 b 626 218 575 185 603 200 l 740 96 b 602 13 701 60 655 32 b 432 -17 549 -7 492 -17 b 225 27 352 -17 283 -2 b 90 151 167 56 122 98 b 43 342 59 205 43 269 b 90 529 43 412 59 475 b 219 656 121 584 164 626 b 413 701 275 686 339 701 b 607 659 488 701 552 687 m 313 496 b 267 403 286 474 270 443 l 569 403 b 526 496 567 443 552 474 b 419 529 499 518 464 529 b 313 496 376 529 341 518 m 329 800 b 296 878 307 820 296 846 b 329 956 296 909 307 935 b 414 986 351 976 380 986 b 498 956 448 986 476 976 b 531 878 520 935 531 909 b 498 800 531 846 520 820 b 414 769 476 780 448 769 b 329 800 380 769 351 780 "},"Ę":{"ha":925,"x_min":0,"x_max":0,"o":"m 926 -217 b 847 -265 901 -239 875 -255 b 754 -279 819 -274 788 -279 b 641 -243 706 -279 668 -267 b 600 -143 614 -219 600 -186 b 668 0 600 -90 623 -43 l 106 0 l 106 972 l 847 972 l 847 782 l 326 782 l 326 585 l 819 585 l 819 401 l 326 401 l 326 192 l 863 192 l 863 0 b 776 -92 805 -32 776 -63 b 786 -116 776 -102 780 -110 b 814 -125 793 -122 802 -125 b 861 -110 831 -125 846 -120 l 926 -217 "},"ę":{"ha":815,"x_min":0,"x_max":0,"o":"m 608 659 b 734 539 663 631 705 591 b 778 358 763 487 778 427 b 771 278 778 335 775 308 l 265 278 b 322 192 272 243 291 214 b 442 160 354 171 394 160 b 544 175 479 160 513 165 b 626 218 576 185 603 200 l 742 96 b 576 0 696 57 641 25 b 482 -86 513 -24 482 -53 b 518 -122 482 -110 494 -122 b 564 -106 534 -122 549 -117 l 624 -201 b 547 -245 601 -220 576 -234 b 460 -261 519 -256 489 -261 b 355 -228 415 -261 380 -250 b 317 -136 329 -206 317 -175 b 331 -72 317 -115 321 -94 b 371 -14 340 -51 353 -31 b 130 97 268 -3 188 34 b 43 342 72 160 43 242 b 94 538 43 419 60 484 b 228 660 128 592 172 633 b 413 701 284 688 346 701 b 608 659 488 701 553 687 m 315 496 b 267 403 287 474 271 443 l 568 403 b 524 497 565 444 550 476 b 418 529 497 519 462 529 b 315 496 376 529 342 518 "},"Ě":{"ha":925,"x_min":0,"x_max":0,"o":"m 863 192 l 863 0 l 106 0 l 106 972 l 847 972 l 847 782 l 326 782 l 326 585 l 819 585 l 819 401 l 326 401 l 326 192 m 757 1264 l 564 1064 l 415 1064 l 221 1264 l 421 1264 l 489 1200 l 557 1264 "},"ě":{"ha":815,"x_min":0,"x_max":0,"o":"m 607 659 b 733 540 662 631 703 591 b 776 360 762 488 776 428 b 769 278 776 338 774 310 l 265 278 b 322 192 272 243 291 214 b 443 160 354 171 394 160 b 543 175 477 160 511 165 b 626 218 575 185 603 200 l 740 96 b 602 13 701 60 655 32 b 432 -17 549 -7 492 -17 b 225 27 352 -17 283 -2 b 90 151 167 56 122 98 b 43 342 59 205 43 269 b 90 529 43 412 59 475 b 219 656 121 584 164 626 b 413 701 275 686 339 701 b 607 659 488 701 552 687 m 313 496 b 267 403 286 474 270 443 l 569 403 b 526 496 567 443 552 474 b 419 529 499 518 464 529 b 313 496 376 529 341 518 m 689 972 l 481 764 l 346 764 l 139 972 l 335 972 l 413 899 l 493 972 "},"Ĝ":{"ha":1044,"x_min":0,"x_max":0,"o":"m 981 142 b 799 20 931 89 871 48 b 563 -22 728 -8 649 -22 b 292 40 460 -22 370 -1 b 113 218 215 82 155 141 b 50 486 71 295 50 384 b 117 751 50 585 72 673 b 303 931 161 828 223 888 b 579 996 384 974 475 996 b 783 957 654 996 722 983 b 950 839 843 931 899 892 l 813 703 b 705 774 782 733 746 757 b 578 799 664 790 621 799 b 356 715 484 799 410 771 b 275 486 302 659 275 582 b 311 322 275 424 287 369 b 414 213 335 275 369 238 b 568 174 458 187 510 174 b 788 244 660 174 733 197 l 788 393 l 524 393 l 524 575 l 981 575 m 636 1060 l 568 1124 l 500 1060 l 300 1060 l 494 1260 l 643 1260 l 836 1060 "},"ĝ":{"ha":853,"x_min":0,"x_max":0,"o":"m 760 24 b 799 -106 786 -13 799 -56 b 751 -258 799 -163 783 -214 b 618 -359 720 -302 675 -335 b 418 -394 561 -383 494 -394 b 224 -358 344 -394 279 -382 b 95 -256 168 -334 125 -300 b 50 -101 65 -211 50 -160 b 51 -68 50 -87 50 -75 l 261 -68 b 299 -174 259 -113 272 -149 b 418 -211 327 -199 366 -211 b 531 -180 464 -211 502 -201 b 574 -97 559 -159 574 -131 b 534 -16 574 -62 560 -35 b 421 13 508 3 470 13 b 222 56 345 13 278 27 b 90 177 165 84 121 125 b 43 360 59 229 43 290 b 91 538 43 426 59 486 b 224 660 123 591 167 631 b 419 704 281 690 346 704 b 575 671 476 704 528 693 l 656 771 l 815 656 l 724 549 b 793 360 770 496 793 433 b 756 219 793 309 781 262 b 653 113 732 176 697 140 b 760 24 699 91 735 62 m 536 242 b 581 360 566 271 581 311 b 537 477 581 409 566 448 b 419 521 508 506 469 521 b 303 477 371 521 332 506 b 258 360 273 448 258 409 b 303 242 258 312 273 272 b 419 197 332 212 371 197 b 536 242 468 197 506 212 m 507 796 l 426 869 l 349 796 l 153 796 l 360 1004 l 494 1004 l 703 796 "},"Ğ":{"ha":1044,"x_min":0,"x_max":0,"o":"m 981 142 b 799 20 931 89 871 48 b 563 -22 728 -8 649 -22 b 292 40 460 -22 370 -1 b 113 218 215 82 155 141 b 50 486 71 295 50 384 b 117 751 50 585 72 673 b 303 931 161 828 223 888 b 579 996 384 974 475 996 b 783 957 654 996 722 983 b 950 839 843 931 899 892 l 813 703 b 705 774 782 733 746 757 b 578 799 664 790 621 799 b 356 715 484 799 410 771 b 275 486 302 659 275 582 b 311 322 275 424 287 369 b 414 213 335 275 369 238 b 568 174 458 187 510 174 b 788 244 660 174 733 197 l 788 393 l 524 393 l 524 575 l 981 575 m 399 1110 b 338 1263 358 1147 338 1198 l 501 1263 b 519 1214 501 1242 507 1226 b 567 1196 531 1202 547 1196 b 615 1214 587 1196 603 1202 b 633 1263 627 1226 633 1242 l 796 1263 b 735 1110 796 1198 775 1147 b 567 1056 694 1074 638 1056 b 399 1110 495 1056 439 1074 "},"ğ":{"ha":853,"x_min":0,"x_max":0,"o":"m 760 24 b 799 -106 786 -13 799 -56 b 751 -258 799 -163 783 -214 b 618 -359 720 -302 675 -335 b 418 -394 561 -383 494 -394 b 224 -358 344 -394 279 -382 b 95 -256 168 -334 125 -300 b 50 -101 65 -211 50 -160 b 51 -68 50 -87 50 -75 l 261 -68 b 299 -174 259 -113 272 -149 b 418 -211 327 -199 366 -211 b 531 -180 464 -211 502 -201 b 574 -97 559 -159 574 -131 b 534 -16 574 -62 560 -35 b 421 13 508 3 470 13 b 222 56 345 13 278 27 b 90 177 165 84 121 125 b 43 360 59 229 43 290 b 91 538 43 426 59 486 b 224 660 123 591 167 631 b 419 704 281 690 346 704 b 575 671 476 704 528 693 l 656 771 l 815 656 l 724 549 b 793 360 770 496 793 433 b 756 219 793 309 781 262 b 653 113 732 176 697 140 b 760 24 699 91 735 62 m 536 242 b 581 360 566 271 581 311 b 537 477 581 409 566 448 b 419 521 508 506 469 521 b 303 477 371 521 332 506 b 258 360 273 448 258 409 b 303 242 258 312 273 272 b 419 197 332 212 371 197 b 536 242 468 197 506 212 m 258 820 b 197 972 218 857 197 907 l 361 972 b 379 924 361 952 367 936 b 426 906 391 912 407 906 b 475 924 447 906 463 912 b 493 972 487 936 493 952 l 656 972 b 594 820 656 907 635 857 b 426 765 554 784 498 765 b 258 820 355 765 299 784 "},"Ġ":{"ha":1044,"x_min":0,"x_max":0,"o":"m 981 142 b 799 20 931 89 871 48 b 563 -22 728 -8 649 -22 b 292 40 460 -22 370 -1 b 113 218 215 82 155 141 b 50 486 71 295 50 384 b 117 751 50 585 72 673 b 303 931 161 828 223 888 b 579 996 384 974 475 996 b 783 957 654 996 722 983 b 950 839 843 931 899 892 l 813 703 b 705 774 782 733 746 757 b 578 799 664 790 621 799 b 356 715 484 799 410 771 b 275 486 302 659 275 582 b 311 322 275 424 287 369 b 414 213 335 275 369 238 b 568 174 458 187 510 174 b 788 244 660 174 733 197 l 788 393 l 524 393 l 524 575 l 981 575 m 481 1083 b 447 1164 459 1105 447 1131 b 481 1245 447 1197 459 1224 b 568 1276 504 1266 533 1276 b 655 1245 603 1276 632 1266 b 689 1164 678 1224 689 1197 b 655 1083 689 1131 678 1105 b 568 1051 632 1062 603 1051 b 481 1083 533 1051 504 1062 "},"ġ":{"ha":853,"x_min":0,"x_max":0,"o":"m 760 24 b 799 -106 786 -13 799 -56 b 751 -258 799 -163 783 -214 b 618 -359 720 -302 675 -335 b 418 -394 561 -383 494 -394 b 224 -358 344 -394 279 -382 b 95 -256 168 -334 125 -300 b 50 -101 65 -211 50 -160 b 51 -68 50 -87 50 -75 l 261 -68 b 299 -174 259 -113 272 -149 b 418 -211 327 -199 366 -211 b 531 -180 464 -211 502 -201 b 574 -97 559 -159 574 -131 b 534 -16 574 -62 560 -35 b 421 13 508 3 470 13 b 222 56 345 13 278 27 b 90 177 165 84 121 125 b 43 360 59 229 43 290 b 91 538 43 426 59 486 b 224 660 123 591 167 631 b 419 704 281 690 346 704 b 575 671 476 704 528 693 l 656 771 l 815 656 l 724 549 b 793 360 770 496 793 433 b 756 219 793 309 781 262 b 653 113 732 176 697 140 b 760 24 699 91 735 62 m 536 242 b 581 360 566 271 581 311 b 537 477 581 409 566 448 b 419 521 508 506 469 521 b 303 477 371 521 332 506 b 258 360 273 448 258 409 b 303 242 258 312 273 272 b 419 197 332 212 371 197 b 536 242 468 197 506 212 m 342 800 b 308 878 319 820 308 846 b 342 956 308 909 319 935 b 426 986 364 976 392 986 b 510 956 461 986 489 976 b 543 878 532 935 543 909 b 510 800 543 846 532 820 b 426 769 489 780 461 769 b 342 800 392 769 364 780 "},"Ģ":{"ha":1044,"x_min":0,"x_max":0,"o":"m 981 142 b 799 20 931 89 871 48 b 563 -22 728 -8 649 -22 b 292 40 460 -22 370 -1 b 113 218 215 82 155 141 b 50 486 71 295 50 384 b 117 751 50 585 72 673 b 303 931 161 828 223 888 b 579 996 384 974 475 996 b 783 957 654 996 722 983 b 950 839 843 931 899 892 l 813 703 b 705 774 782 733 746 757 b 578 799 664 790 621 799 b 356 715 484 799 410 771 b 275 486 302 659 275 582 b 311 322 275 424 287 369 b 414 213 335 275 369 238 b 568 174 458 187 510 174 b 788 244 660 174 733 197 l 788 393 l 524 393 l 524 575 l 981 575 m 658 -99 b 688 -168 678 -117 688 -140 b 674 -241 688 -189 683 -214 b 619 -371 664 -268 646 -312 l 514 -371 l 540 -243 b 493 -217 520 -239 504 -231 b 476 -165 482 -204 476 -187 b 506 -99 476 -138 486 -116 b 582 -72 526 -81 551 -72 b 658 -99 613 -72 639 -81 "},"ģ":{"ha":853,"x_min":0,"x_max":0,"o":"m 343 793 b 313 871 323 813 313 839 b 329 954 313 897 318 925 b 393 1101 340 984 362 1033 l 496 1101 l 463 958 b 511 924 483 952 499 941 b 529 867 523 908 529 889 b 499 792 529 836 519 811 b 421 763 478 772 452 763 b 343 793 389 763 363 773 m 760 24 b 799 -106 786 -13 799 -56 b 751 -258 799 -163 783 -214 b 618 -359 720 -302 675 -335 b 418 -394 561 -383 494 -394 b 224 -358 344 -394 279 -382 b 95 -256 168 -334 125 -300 b 50 -101 65 -211 50 -160 b 51 -68 50 -87 50 -75 l 261 -68 b 299 -174 259 -113 272 -149 b 418 -211 327 -199 366 -211 b 531 -180 464 -211 502 -201 b 574 -97 559 -159 574 -131 b 534 -16 574 -62 560 -35 b 421 13 508 3 470 13 b 222 56 345 13 278 27 b 90 177 165 84 121 125 b 43 360 59 229 43 290 b 91 538 43 426 59 486 b 224 660 123 591 167 631 b 419 704 281 690 346 704 b 575 671 476 704 528 693 l 656 771 l 815 656 l 724 549 b 793 360 770 496 793 433 b 756 219 793 309 781 262 b 653 113 732 176 697 140 b 760 24 699 91 735 62 m 536 242 b 581 360 566 271 581 311 b 537 477 581 409 566 448 b 419 521 508 506 469 521 b 303 477 371 521 332 506 b 258 360 273 448 258 409 b 303 242 258 312 273 272 b 419 197 332 212 371 197 b 536 242 468 197 506 212 "},"Ĥ":{"ha":1079,"x_min":0,"x_max":0,"o":"m 972 972 l 972 0 l 746 0 l 746 390 l 333 390 l 333 0 l 106 0 l 106 972 l 333 972 l 333 596 l 746 596 l 746 972 m 608 1060 l 540 1124 l 472 1060 l 272 1060 l 467 1260 l 615 1260 l 808 1060 "},"ĥ":{"ha":858,"x_min":0,"x_max":0,"o":"m 710 617 b 785 388 760 560 785 484 l 785 0 l 567 0 l 567 375 b 534 479 567 419 556 454 b 443 517 512 504 482 517 b 340 474 400 517 366 502 b 300 361 313 445 300 407 l 300 0 l 82 0 l 82 972 l 300 972 l 300 611 b 510 701 353 671 423 701 b 710 617 594 701 661 673 m 268 1050 l 188 1124 l 110 1050 l -86 1050 l 121 1258 l 256 1258 l 464 1050 "},"Ħ":{"ha":1100,"x_min":0,"x_max":0,"o":"m 1072 715 l 983 715 l 983 0 l 756 0 l 756 378 l 344 378 l 344 0 l 117 0 l 117 715 l 28 715 l 28 851 l 117 851 l 117 972 l 344 972 l 344 851 l 756 851 l 756 972 l 983 972 l 983 851 l 1072 851 m 756 578 l 756 718 l 344 718 l 344 578 "},"ħ":{"ha":858,"x_min":0,"x_max":0,"o":"m 708 622 b 785 376 759 568 785 487 l 785 0 l 567 0 l 567 375 b 531 481 567 421 555 456 b 442 517 508 505 478 517 b 340 474 401 517 367 503 b 300 360 313 446 300 408 l 300 0 l 82 0 l 82 767 l 3 767 l 3 894 l 82 894 l 82 972 l 300 972 l 300 894 l 457 894 l 457 767 l 300 767 l 300 619 b 504 701 352 674 420 701 b 708 622 588 701 656 675 "},"Ĩ":{"ha":440,"x_min":0,"x_max":0,"o":"m 333 972 l 333 0 l 106 0 l 106 972 m 213 1082 b 142 1106 184 1098 160 1106 b 81 1060 114 1106 94 1090 l -32 1136 b 31 1229 -18 1176 3 1207 b 126 1263 59 1251 91 1263 b 224 1235 160 1263 192 1253 b 296 1211 250 1219 274 1211 b 357 1258 324 1211 344 1227 l 468 1186 b 408 1087 455 1143 435 1109 b 317 1053 381 1064 351 1053 b 213 1082 282 1053 248 1063 "},"ĩ":{"ha":382,"x_min":0,"x_max":0,"o":"m 300 686 l 300 0 l 82 0 l 82 686 m 186 801 b 126 825 161 817 141 825 b 63 781 100 825 78 810 l -47 856 b 16 949 -33 895 -12 926 b 111 982 44 971 76 982 b 197 954 141 982 169 973 b 258 931 220 938 241 931 b 321 975 285 931 306 945 l 431 906 b 372 806 418 861 398 828 b 279 772 345 783 314 772 b 186 801 249 772 218 782 "},"Ī":{"ha":440,"x_min":0,"x_max":0,"o":"m 333 972 l 333 0 l 106 0 l 106 972 m 442 1229 l 442 1072 l -1 1072 l -1 1229 "},"ī":{"ha":382,"x_min":0,"x_max":0,"o":"m 300 686 l 300 0 l 82 0 l 82 686 m 383 943 l 383 786 l -1 786 l -1 943 "},"Ĭ":{"ha":440,"x_min":0,"x_max":0,"o":"m 333 972 l 333 0 l 106 0 l 106 972 m 51 1110 b -10 1263 11 1147 -10 1198 l 154 1263 b 172 1214 154 1242 160 1226 b 219 1196 184 1202 200 1196 b 268 1214 240 1196 256 1202 b 286 1263 280 1226 286 1242 l 449 1263 b 388 1110 449 1198 428 1147 b 219 1056 347 1074 291 1056 b 51 1110 148 1056 92 1074 "},"ĭ":{"ha":382,"x_min":0,"x_max":0,"o":"m 300 686 l 300 0 l 82 0 l 82 686 m 33 820 b -24 972 -5 857 -24 907 l 135 972 b 150 923 135 951 140 934 b 192 906 160 911 174 906 b 234 923 210 906 224 911 b 249 972 244 934 249 951 l 408 972 b 351 820 408 907 389 857 b 192 765 313 784 260 765 b 33 820 124 765 71 784 "},"Į":{"ha":440,"x_min":0,"x_max":0,"o":"m 397 -217 b 318 -265 372 -239 346 -255 b 225 -279 290 -274 259 -279 b 112 -243 177 -279 139 -267 b 71 -143 84 -219 71 -186 b 139 0 71 -90 94 -43 l 106 0 l 106 972 l 333 972 l 333 0 b 247 -92 276 -32 247 -63 b 257 -116 247 -102 250 -110 b 285 -125 263 -122 273 -125 b 332 -110 301 -125 317 -120 l 397 -217 "},"į":{"ha":382,"x_min":0,"x_max":0,"o":"m 107 800 b 74 878 85 820 74 846 b 107 956 74 909 85 935 b 192 986 129 976 157 986 b 276 956 226 986 254 976 b 308 878 297 935 308 909 b 276 800 308 846 297 820 b 192 769 254 780 226 769 b 107 800 157 769 129 780 m 356 -201 b 281 -245 334 -220 309 -234 b 193 -261 252 -256 223 -261 b 93 -229 150 -261 117 -250 b 57 -143 69 -208 57 -179 b 76 -67 57 -117 63 -92 b 129 0 89 -43 107 -20 l 82 0 l 82 686 l 300 686 l 300 0 b 238 -44 271 -15 250 -30 b 218 -90 225 -59 218 -75 b 251 -125 218 -113 229 -125 b 296 -108 267 -125 282 -119 l 356 -201 "},"İ":{"ha":440,"x_min":0,"x_max":0,"o":"m 333 972 l 333 0 l 106 0 l 106 972 m 134 1083 b 100 1164 111 1105 100 1131 b 134 1245 100 1197 111 1224 b 221 1276 157 1266 186 1276 b 308 1245 256 1276 285 1266 b 342 1164 330 1224 342 1197 b 308 1083 342 1131 330 1105 b 221 1051 285 1062 256 1051 b 134 1083 186 1051 157 1062 "},"ı":{"ha":382,"x_min":0,"x_max":0,"o":"m 300 686 l 300 0 l 82 0 l 82 686 "},"Ĳ":{"ha":1424,"x_min":0,"x_max":0,"o":"m 333 972 l 333 0 l 106 0 l 106 972 m 1333 413 b 1280 183 1333 325 1316 248 b 1128 33 1244 119 1194 69 b 899 -19 1062 -2 986 -19 b 583 93 763 -19 658 18 b 468 411 507 168 469 274 l 690 411 b 746 242 691 338 710 282 b 899 183 782 203 833 183 b 1051 244 963 183 1014 203 b 1106 415 1087 284 1106 341 l 1106 775 l 822 775 l 822 972 l 1333 972 "},"ĳ":{"ha":767,"x_min":0,"x_max":0,"o":"m 99 788 b 64 872 76 810 64 838 b 100 958 64 907 76 936 b 192 992 124 981 155 992 b 283 958 229 992 259 981 b 319 872 307 936 319 907 b 284 788 319 838 308 810 b 192 754 260 765 230 754 b 99 788 154 754 123 765 m 300 686 l 300 0 l 82 0 l 82 686 m 483 788 b 447 872 459 810 447 838 b 483 958 447 906 459 935 b 575 992 507 980 538 992 b 668 958 613 992 644 980 b 704 872 692 935 704 906 b 668 788 704 838 692 810 b 575 754 644 765 613 754 b 483 788 538 754 507 765 m 326 -128 b 397 -147 352 -141 376 -147 b 449 -123 420 -147 438 -139 b 465 -47 460 -107 465 -81 l 465 686 l 683 686 l 683 -47 b 620 -256 683 -137 662 -206 b 443 -329 578 -305 519 -329 b 278 -285 389 -329 334 -314 "},"Ĵ":{"ha":983,"x_min":0,"x_max":0,"o":"m 893 413 b 840 183 893 325 875 248 b 688 33 804 119 753 69 b 458 -19 622 -2 545 -19 b 142 93 323 -19 218 18 b 28 411 67 168 29 274 l 250 411 b 306 242 251 338 269 282 b 458 183 342 203 393 183 b 610 244 523 183 574 203 b 665 415 647 284 665 341 l 665 775 l 382 775 l 382 972 l 893 972 m 699 1060 l 633 1122 l 568 1060 l 368 1060 l 554 1260 l 711 1260 l 899 1060 "},"ĵ":{"ha":385,"x_min":0,"x_max":0,"o":"m -56 -128 b 15 -147 -30 -141 -6 -147 b 67 -123 38 -147 56 -139 b 83 -47 78 -107 83 -81 l 83 686 l 301 686 l 301 -47 b 238 -256 301 -137 280 -206 b 61 -329 196 -305 137 -329 b -104 -285 7 -329 -48 -314 m 257 764 l 192 838 l 128 764 l -65 764 l 122 972 l 264 972 l 450 764 "},"Ķ":{"ha":950,"x_min":0,"x_max":0,"o":"m 674 0 l 332 386 l 332 0 l 106 0 l 106 972 l 332 972 l 332 592 l 651 972 l 932 972 l 522 496 l 969 0 m 565 -99 b 594 -168 585 -117 594 -140 b 581 -241 594 -189 590 -214 b 526 -371 571 -268 553 -312 l 421 -371 l 447 -243 b 400 -217 427 -239 411 -231 b 383 -165 389 -204 383 -187 b 413 -99 383 -138 393 -116 b 489 -72 433 -81 458 -72 b 565 -99 520 -72 546 -81 "},"ķ":{"ha":765,"x_min":0,"x_max":0,"o":"m 508 0 l 299 272 l 299 0 l 82 0 l 82 972 l 299 972 l 299 426 l 489 686 l 738 686 l 490 361 l 778 0 m 458 -99 b 488 -168 478 -117 488 -140 b 474 -241 488 -189 483 -214 b 419 -371 464 -268 446 -312 l 314 -371 l 340 -243 b 293 -217 320 -239 304 -231 b 276 -165 282 -204 276 -187 b 306 -99 276 -138 286 -116 b 382 -72 326 -81 351 -72 b 458 -99 413 -72 439 -81 "},"ĸ":{"ha":765,"x_min":0,"x_max":0,"o":"m 508 0 l 299 269 l 299 0 l 82 0 l 82 686 l 299 686 l 299 428 l 489 686 l 738 686 l 493 361 l 778 0 "},"Ĺ":{"ha":846,"x_min":0,"x_max":0,"o":"m 333 972 l 333 206 l 822 206 l 822 0 l 106 0 l 106 972 m 461 1260 l 306 1060 l 114 1060 l 217 1260 "},"ĺ":{"ha":382,"x_min":0,"x_max":0,"o":"m 300 972 l 300 0 l 82 0 l 82 972 m 413 1258 l 267 1053 l 85 1053 l 178 1258 "},"Ļ":{"ha":846,"x_min":0,"x_max":0,"o":"m 333 972 l 333 206 l 822 206 l 822 0 l 106 0 l 106 972 m 550 -99 b 579 -168 569 -117 579 -140 b 565 -241 579 -189 575 -214 b 511 -371 556 -268 538 -312 l 406 -371 l 432 -243 b 385 -217 412 -239 396 -231 b 368 -165 374 -204 368 -187 b 398 -99 368 -138 378 -116 b 474 -72 418 -81 443 -72 b 550 -99 505 -72 531 -81 "},"ļ":{"ha":382,"x_min":0,"x_max":0,"o":"m 300 972 l 300 0 l 82 0 l 82 972 m 268 -99 b 297 -168 288 -117 297 -140 b 283 -241 297 -189 293 -214 b 229 -371 274 -268 256 -312 l 124 -371 l 150 -243 b 103 -217 130 -239 114 -231 b 86 -165 92 -204 86 -187 b 116 -99 86 -138 96 -116 b 192 -72 136 -81 161 -72 b 268 -99 223 -72 249 -81 "},"Ľ":{"ha":846,"x_min":0,"x_max":0,"o":"m 333 972 l 333 201 l 822 201 l 822 0 l 106 0 l 106 972 m 772 972 l 664 667 l 511 667 l 575 972 "},"ľ":{"ha":515,"x_min":0,"x_max":0,"o":"m 300 972 l 300 0 l 82 0 l 82 972 m 586 972 l 485 681 l 342 681 l 403 972 "},"Ŀ":{"ha":846,"x_min":0,"x_max":0,"o":"m 333 206 l 822 206 l 822 0 l 106 0 l 106 972 l 333 972 m 497 417 b 460 507 472 441 460 471 b 497 596 460 543 472 573 b 592 631 522 619 554 631 b 686 596 630 631 661 619 b 724 507 711 573 724 543 b 686 417 724 471 711 441 b 592 382 661 394 630 382 b 497 417 554 382 522 394 "},"ŀ":{"ha":610,"x_min":0,"x_max":0,"o":"m 300 972 l 300 0 l 82 0 l 82 972 m 409 376 b 374 461 385 399 374 427 b 409 546 374 495 385 524 b 500 579 433 568 463 579 b 590 546 536 579 566 568 b 625 461 613 524 625 495 b 590 376 625 427 613 399 b 500 343 566 354 536 343 b 409 376 463 343 433 354 "},"Ł":{"ha":857,"x_min":0,"x_max":0,"o":"m 833 201 l 833 0 l 117 0 l 117 313 l 19 265 l 19 440 l 117 489 l 117 972 l 344 972 l 344 603 l 494 678 l 494 499 l 344 425 l 344 201 "},"ł":{"ha":446,"x_min":0,"x_max":0,"o":"m 422 513 l 332 468 l 332 0 l 114 0 l 114 363 l 24 318 l 24 479 l 114 524 l 114 972 l 332 972 l 332 629 l 422 674 "},"Ń":{"ha":1079,"x_min":0,"x_max":0,"o":"m 974 972 l 974 0 l 769 0 l 329 601 l 332 339 l 332 0 l 106 0 l 106 972 l 310 972 l 750 368 l 747 628 l 747 972 m 786 1260 l 631 1060 l 439 1060 l 542 1260 "},"ń":{"ha":858,"x_min":0,"x_max":0,"o":"m 709 618 b 785 388 759 563 785 486 l 785 0 l 567 0 l 567 375 b 533 479 567 419 556 454 b 442 517 511 504 481 517 b 339 474 399 517 365 502 b 300 361 313 445 300 407 l 300 0 l 82 0 l 82 686 l 271 686 l 285 606 b 381 676 312 636 344 660 b 506 701 419 693 460 701 b 709 618 591 701 659 674 m 678 972 l 532 767 l 350 767 l 443 972 "},"Ņ":{"ha":1079,"x_min":0,"x_max":0,"o":"m 974 972 l 974 0 l 769 0 l 329 601 l 332 339 l 332 0 l 106 0 l 106 972 l 310 972 l 750 368 l 747 628 l 747 972 m 625 -99 b 654 -168 644 -117 654 -140 b 640 -241 654 -189 650 -214 b 586 -371 631 -268 613 -312 l 481 -371 l 507 -243 b 460 -217 487 -239 471 -231 b 443 -165 449 -204 443 -187 b 473 -99 443 -138 453 -116 b 549 -72 493 -81 518 -72 b 625 -99 580 -72 606 -81 "},"ņ":{"ha":858,"x_min":0,"x_max":0,"o":"m 709 618 b 785 388 759 563 785 486 l 785 0 l 567 0 l 567 375 b 533 479 567 419 556 454 b 442 517 511 504 481 517 b 339 474 399 517 365 502 b 300 361 313 445 300 407 l 300 0 l 82 0 l 82 686 l 271 686 l 285 606 b 381 676 312 636 344 660 b 506 701 419 693 460 701 b 709 618 591 701 659 674 m 510 -99 b 539 -168 529 -117 539 -140 b 525 -241 539 -189 534 -214 b 471 -371 516 -268 498 -312 l 365 -371 l 392 -243 b 344 -217 371 -239 356 -231 b 328 -165 333 -204 328 -187 b 358 -99 328 -138 338 -116 b 433 -72 378 -81 403 -72 b 510 -99 465 -72 490 -81 "},"Ň":{"ha":1079,"x_min":0,"x_max":0,"o":"m 974 972 l 974 0 l 769 0 l 329 601 l 332 339 l 332 0 l 106 0 l 106 972 l 310 972 l 750 368 l 747 628 l 747 972 m 814 1264 l 621 1064 l 472 1064 l 278 1264 l 478 1264 l 546 1200 l 614 1264 "},"ň":{"ha":858,"x_min":0,"x_max":0,"o":"m 709 618 b 785 388 759 563 785 486 l 785 0 l 567 0 l 567 375 b 533 479 567 419 556 454 b 442 517 511 504 481 517 b 339 474 399 517 365 502 b 300 361 313 445 300 407 l 300 0 l 82 0 l 82 686 l 271 686 l 285 606 b 381 676 312 636 344 660 b 506 701 419 693 460 701 b 709 618 591 701 659 674 m 732 972 l 524 764 l 389 764 l 182 972 l 378 972 l 456 899 l 536 972 "},"ŉ":{"ha":1093,"x_min":0,"x_max":0,"o":"m 944 618 b 1019 388 994 563 1019 486 l 1019 0 l 801 0 l 801 375 b 768 479 801 419 790 454 b 676 517 746 504 715 517 b 574 474 634 517 600 502 b 535 361 548 445 535 407 l 535 0 l 317 0 l 317 686 l 506 686 l 519 606 b 616 676 546 636 578 660 b 740 701 653 693 695 701 b 944 618 825 701 893 674 m 281 951 b 313 869 302 930 313 903 b 294 780 313 842 306 812 b 228 629 282 748 260 698 l 122 629 l 157 778 b 106 815 136 785 119 797 b 88 875 94 832 88 852 b 119 952 88 906 98 932 b 200 982 140 972 167 982 b 281 951 233 982 260 972 "},"Ŋ":{"ha":1079,"x_min":0,"x_max":0,"o":"m 974 -36 b 916 -243 974 -127 954 -196 b 750 -314 878 -290 822 -314 b 563 -271 690 -314 627 -300 l 601 -112 b 674 -132 629 -125 653 -132 b 747 -32 723 -132 747 -99 l 747 31 l 329 601 l 332 339 l 332 0 l 106 0 l 106 972 l 308 972 l 751 368 l 747 625 l 747 972 l 974 972 "},"ŋ":{"ha":858,"x_min":0,"x_max":0,"o":"m 709 618 b 785 388 759 563 785 486 l 785 -35 b 720 -241 785 -125 763 -193 b 543 -312 677 -289 618 -312 b 378 -268 489 -312 434 -298 l 429 -112 b 497 -132 452 -125 475 -132 b 567 -32 544 -132 567 -99 l 567 375 b 533 479 567 419 556 454 b 442 517 511 504 481 517 b 339 474 399 517 365 502 b 300 361 313 445 300 407 l 300 0 l 82 0 l 82 686 l 271 686 l 285 606 b 381 676 312 636 344 660 b 506 701 419 693 460 701 b 709 618 591 701 659 674 "},"Ō":{"ha":1147,"x_min":0,"x_max":0,"o":"m 298 40 b 115 218 219 82 158 141 b 50 486 72 295 50 384 b 115 754 50 588 72 677 b 298 933 158 831 219 891 b 574 996 377 975 469 996 b 849 933 678 996 770 975 b 1033 754 928 891 990 831 b 1097 486 1076 677 1097 588 b 1033 218 1097 384 1076 295 b 849 40 990 141 928 82 b 574 -24 770 -3 678 -24 b 298 40 469 -24 377 -3 m 728 217 b 833 325 773 243 808 279 b 869 486 857 371 869 425 b 833 647 869 547 857 601 b 728 755 808 694 773 729 b 574 793 684 780 632 793 b 419 755 515 793 464 780 b 316 647 375 729 341 694 b 279 486 291 601 279 547 b 316 325 279 425 291 371 b 419 217 341 279 375 243 b 574 179 464 192 515 179 b 728 217 632 179 684 192 m 803 1229 l 803 1072 l 346 1072 l 346 1229 "},"ō":{"ha":840,"x_min":0,"x_max":0,"o":"m 220 30 b 89 156 163 60 119 102 b 43 343 58 209 43 272 b 89 531 43 414 58 477 b 220 656 119 584 163 626 b 419 701 277 686 344 701 b 619 656 495 701 562 686 b 751 531 677 626 721 584 b 797 343 782 477 797 414 b 751 156 797 272 782 209 b 619 30 721 102 677 60 b 419 -15 562 0 495 -15 b 220 30 344 -15 277 0 m 536 218 b 581 343 566 250 581 292 b 536 468 581 394 566 436 b 419 517 506 500 468 517 b 304 468 372 517 334 500 b 260 343 275 436 260 394 b 304 218 260 292 275 250 b 419 169 334 186 372 169 b 536 218 468 169 506 186 m 629 943 l 629 786 l 213 786 l 213 943 "},"Ŏ":{"ha":1147,"x_min":0,"x_max":0,"o":"m 298 40 b 115 218 219 82 158 141 b 50 486 72 295 50 384 b 115 754 50 588 72 677 b 298 933 158 831 219 891 b 574 996 377 975 469 996 b 849 933 678 996 770 975 b 1033 754 928 891 990 831 b 1097 486 1076 677 1097 588 b 1033 218 1097 384 1076 295 b 849 40 990 141 928 82 b 574 -24 770 -3 678 -24 b 298 40 469 -24 377 -3 m 728 217 b 833 325 773 243 808 279 b 869 486 857 371 869 425 b 833 647 869 547 857 601 b 728 755 808 694 773 729 b 574 793 684 780 632 793 b 419 755 515 793 464 780 b 316 647 375 729 341 694 b 279 486 291 601 279 547 b 316 325 279 425 291 371 b 419 217 341 279 375 243 b 574 179 464 192 515 179 b 728 217 632 179 684 192 m 406 1110 b 344 1263 365 1147 344 1198 l 508 1263 b 526 1214 508 1242 514 1226 b 574 1196 538 1202 554 1196 b 622 1214 594 1196 610 1202 b 640 1263 634 1226 640 1242 l 803 1263 b 742 1110 803 1198 782 1147 b 574 1056 701 1074 645 1056 b 406 1110 502 1056 446 1074 "},"ŏ":{"ha":840,"x_min":0,"x_max":0,"o":"m 220 30 b 89 156 163 60 119 102 b 43 343 58 209 43 272 b 89 531 43 414 58 477 b 220 656 119 584 163 626 b 419 701 277 686 344 701 b 619 656 495 701 562 686 b 751 531 677 626 721 584 b 797 343 782 477 797 414 b 751 156 797 272 782 209 b 619 30 721 102 677 60 b 419 -15 562 0 495 -15 b 220 30 344 -15 277 0 m 536 218 b 581 343 566 250 581 292 b 536 468 581 394 566 436 b 419 517 506 500 468 517 b 304 468 372 517 334 500 b 260 343 275 436 260 394 b 304 218 260 292 275 250 b 419 169 334 186 372 169 b 536 218 468 169 506 186 m 251 820 b 190 972 211 857 190 907 l 354 972 b 372 924 354 952 360 936 b 419 906 384 912 400 906 b 468 924 440 906 456 912 b 486 972 480 936 486 952 l 649 972 b 588 820 649 907 628 857 b 419 765 547 784 491 765 b 251 820 348 765 292 784 "},"Ő":{"ha":1147,"x_min":0,"x_max":0,"o":"m 298 40 b 115 218 219 82 158 141 b 50 486 72 295 50 384 b 115 754 50 588 72 677 b 298 933 158 831 219 891 b 574 996 377 975 469 996 b 849 933 678 996 770 975 b 1033 754 928 891 990 831 b 1097 486 1076 677 1097 588 b 1033 218 1097 384 1076 295 b 849 40 990 141 928 82 b 574 -24 770 -3 678 -24 b 298 40 469 -24 377 -3 m 728 217 b 833 325 773 243 808 279 b 869 486 857 371 869 425 b 833 647 869 547 857 601 b 728 755 808 694 773 729 b 574 793 684 780 632 793 b 419 755 515 793 464 780 b 316 647 375 729 341 694 b 279 486 291 601 279 547 b 316 325 279 425 291 371 b 419 217 341 279 375 243 b 574 179 464 192 515 179 b 728 217 632 179 684 192 m 651 1258 l 517 1053 l 333 1053 l 432 1258 m 938 1258 l 788 1053 l 604 1053 l 725 1258 "},"ő":{"ha":840,"x_min":0,"x_max":0,"o":"m 220 30 b 89 156 163 60 119 102 b 43 343 58 209 43 272 b 89 531 43 414 58 477 b 220 656 119 584 163 626 b 419 701 277 686 344 701 b 619 656 495 701 562 686 b 751 531 677 626 721 584 b 797 343 782 477 797 414 b 751 156 797 272 782 209 b 619 30 721 102 677 60 b 419 -15 562 0 495 -15 b 220 30 344 -15 277 0 m 536 218 b 581 343 566 250 581 292 b 536 468 581 394 566 436 b 419 517 506 500 468 517 b 304 468 372 517 334 500 b 260 343 275 436 260 394 b 304 218 260 292 275 250 b 419 169 334 186 372 169 b 536 218 468 169 506 186 m 492 972 l 361 767 l 182 767 l 276 972 m 783 972 l 633 767 l 451 767 l 567 972 "},"Œ":{"ha":1428,"x_min":0,"x_max":0,"o":"m 731 0 b 565 -21 674 -14 619 -21 b 292 42 461 -21 370 0 b 113 219 215 83 155 142 b 50 488 71 295 50 385 b 113 756 50 590 71 680 b 292 931 155 831 215 890 b 565 993 370 972 461 993 b 733 972 613 993 669 986 l 1350 972 l 1350 783 l 907 783 l 907 585 l 1324 585 l 1324 401 l 907 401 l 907 192 l 1365 192 l 1365 0 m 317 326 b 422 219 342 280 377 244 b 579 182 468 194 520 182 b 707 203 625 182 668 189 l 707 768 b 575 790 665 783 621 790 b 360 708 485 790 413 763 b 279 486 306 653 279 579 b 317 326 279 426 292 373 "},"œ":{"ha":1329,"x_min":0,"x_max":0,"o":"m 1126 659 b 1247 541 1178 631 1218 591 b 1289 368 1275 491 1289 433 b 1281 278 1289 338 1286 308 l 778 278 b 840 193 786 242 807 213 b 953 163 874 173 911 163 b 1056 178 990 163 1024 168 b 1135 224 1087 189 1113 204 l 1250 100 b 1119 13 1213 61 1169 32 b 958 -15 1068 -6 1015 -15 b 792 14 898 -15 843 -6 b 667 101 742 33 700 63 b 551 15 635 64 597 36 b 394 -15 505 -5 453 -15 b 209 30 324 -15 262 0 b 86 156 156 60 115 102 b 43 343 57 210 43 273 b 86 530 43 413 57 476 b 209 656 115 584 156 626 b 394 701 262 686 324 701 b 553 671 454 701 507 691 b 669 583 600 650 639 621 b 790 672 702 622 742 652 b 943 701 837 691 888 701 b 1126 659 1013 701 1075 687 m 831 498 b 779 403 802 475 785 444 l 1078 403 b 1041 497 1080 443 1067 474 b 938 532 1015 520 980 532 b 831 498 895 532 859 521 m 533 218 b 578 343 563 250 578 292 b 533 468 578 394 563 436 b 418 517 504 500 465 517 b 303 467 371 517 333 500 b 260 343 274 434 260 393 b 303 219 260 293 274 252 b 418 169 333 186 371 169 b 533 218 465 169 504 186 "},"Ŕ":{"ha":1006,"x_min":0,"x_max":0,"o":"m 333 321 l 333 0 l 106 0 l 106 972 l 579 972 b 764 931 650 972 711 959 b 886 815 817 904 857 865 b 929 643 915 765 929 708 b 872 453 929 569 910 506 b 708 340 833 400 779 363 l 983 0 l 713 0 l 465 321 m 665 742 b 553 778 638 766 601 778 l 332 778 l 332 504 l 553 504 b 665 540 602 504 639 516 b 704 640 691 563 704 597 b 665 742 704 684 691 718 m 733 1260 l 578 1060 l 386 1060 l 489 1260 "},"ŕ":{"ha":640,"x_min":0,"x_max":0,"o":"m 567 684 b 649 633 598 672 625 656 l 557 474 b 503 500 538 486 519 494 b 450 508 486 506 469 508 b 340 464 404 508 367 494 b 300 333 313 434 300 391 l 300 0 l 82 0 l 82 686 l 272 686 l 289 600 b 472 701 333 668 394 701 b 567 684 504 701 535 696 m 557 972 l 411 767 l 229 767 l 322 972 "},"Ŗ":{"ha":1006,"x_min":0,"x_max":0,"o":"m 333 321 l 333 0 l 106 0 l 106 972 l 579 972 b 764 931 650 972 711 959 b 886 815 817 904 857 865 b 929 643 915 765 929 708 b 872 453 929 569 910 506 b 708 340 833 400 779 363 l 983 0 l 713 0 l 465 321 m 665 742 b 553 778 638 766 601 778 l 332 778 l 332 504 l 553 504 b 665 540 602 504 639 516 b 704 640 691 563 704 597 b 665 742 704 684 691 718 m 596 -99 b 625 -168 615 -117 625 -140 b 611 -241 625 -189 620 -214 b 557 -371 602 -268 584 -312 l 451 -371 l 478 -243 b 431 -217 457 -239 442 -231 b 414 -165 419 -204 414 -187 b 444 -99 414 -138 424 -116 b 519 -72 464 -81 489 -72 b 596 -99 551 -72 576 -81 "},"ŗ":{"ha":640,"x_min":0,"x_max":0,"o":"m 567 684 b 649 633 598 672 625 656 l 557 474 b 503 500 538 486 519 494 b 450 508 486 506 469 508 b 340 464 404 508 367 494 b 300 333 313 434 300 391 l 300 0 l 82 0 l 82 686 l 272 686 l 289 600 b 472 701 333 668 394 701 b 567 684 504 701 535 696 m 268 -99 b 297 -168 288 -117 297 -140 b 283 -241 297 -189 293 -214 b 229 -371 274 -268 256 -312 l 124 -371 l 150 -243 b 103 -217 130 -239 114 -231 b 86 -165 92 -204 86 -187 b 116 -99 86 -138 96 -116 b 192 -72 136 -81 161 -72 b 268 -99 223 -72 249 -81 "},"Ř":{"ha":1006,"x_min":0,"x_max":0,"o":"m 333 321 l 333 0 l 106 0 l 106 972 l 579 972 b 764 931 650 972 711 959 b 886 815 817 904 857 865 b 929 643 915 765 929 708 b 872 453 929 569 910 506 b 708 340 833 400 779 363 l 983 0 l 713 0 l 465 321 m 665 742 b 553 778 638 766 601 778 l 332 778 l 332 504 l 553 504 b 665 540 602 504 639 516 b 704 640 691 563 704 597 b 665 742 704 684 691 718 m 760 1264 l 567 1064 l 418 1064 l 224 1264 l 424 1264 l 492 1200 l 560 1264 "},"ř":{"ha":640,"x_min":0,"x_max":0,"o":"m 567 684 b 649 633 598 672 625 656 l 557 474 b 503 500 538 486 519 494 b 450 508 486 506 469 508 b 340 464 404 508 367 494 b 300 333 313 434 300 391 l 300 0 l 82 0 l 82 686 l 272 686 l 289 600 b 472 701 333 668 394 701 b 567 684 504 701 535 696 m 611 972 l 403 764 l 268 764 l 61 972 l 257 972 l 335 899 l 415 972 "},"Ś":{"ha":915,"x_min":0,"x_max":0,"o":"m 235 14 b 44 115 162 38 98 72 l 163 281 b 464 179 249 213 349 179 b 601 208 521 179 567 189 b 651 288 634 228 651 254 b 604 361 651 319 636 344 b 454 399 573 379 523 391 b 163 492 322 413 225 444 b 71 694 102 539 71 606 b 121 851 71 754 88 806 b 261 957 154 897 201 932 b 469 994 321 982 391 994 b 667 965 537 994 603 985 b 838 883 732 946 788 919 l 731 724 b 479 803 655 776 571 803 b 344 775 423 803 378 794 b 293 700 310 756 293 731 b 337 629 293 669 308 646 b 483 592 366 613 415 600 b 778 494 615 577 713 544 b 875 286 843 443 875 374 b 824 124 875 225 858 171 b 679 16 789 78 741 41 b 465 -22 617 -9 546 -22 b 235 14 386 -22 309 -10 m 699 1260 l 543 1060 l 351 1060 l 454 1260 "},"ś":{"ha":703,"x_min":0,"x_max":0,"o":"m 115 224 b 231 176 149 203 187 188 b 363 160 275 165 319 160 b 453 208 423 160 453 176 b 428 246 453 225 444 238 b 344 263 411 254 383 260 b 137 328 257 267 188 289 b 60 481 85 367 60 418 b 143 644 60 549 88 603 b 368 704 199 684 274 704 b 522 685 422 704 473 698 b 647 631 570 672 612 654 l 563 485 b 378 529 511 514 449 529 b 272 479 307 529 272 513 b 294 447 272 465 279 455 b 367 431 308 440 332 434 b 591 364 465 423 540 401 b 668 208 642 327 668 275 b 583 42 668 138 640 83 b 349 -18 527 2 449 -18 b 32 74 227 -18 122 13 m 574 972 l 428 767 l 246 767 l 339 972 "},"Ŝ":{"ha":915,"x_min":0,"x_max":0,"o":"m 235 14 b 44 115 162 38 98 72 l 163 281 b 464 179 249 213 349 179 b 601 208 521 179 567 189 b 651 288 634 228 651 254 b 604 361 651 319 636 344 b 454 399 573 379 523 391 b 163 492 322 413 225 444 b 71 694 102 539 71 606 b 121 851 71 754 88 806 b 261 957 154 897 201 932 b 469 994 321 982 391 994 b 667 965 537 994 603 985 b 838 883 732 946 788 919 l 731 724 b 479 803 655 776 571 803 b 344 775 423 803 378 794 b 293 700 310 756 293 731 b 337 629 293 669 308 646 b 483 592 366 613 415 600 b 778 494 615 577 713 544 b 875 286 843 443 875 374 b 824 124 875 225 858 171 b 679 16 789 78 741 41 b 465 -22 617 -9 546 -22 b 235 14 386 -22 309 -10 m 526 1060 l 458 1124 l 390 1060 l 190 1060 l 385 1260 l 533 1260 l 726 1060 "},"ŝ":{"ha":703,"x_min":0,"x_max":0,"o":"m 115 224 b 231 176 149 203 187 188 b 363 160 275 165 319 160 b 453 208 423 160 453 176 b 428 246 453 225 444 238 b 344 263 411 254 383 260 b 137 328 257 267 188 289 b 60 481 85 367 60 418 b 143 644 60 549 88 603 b 368 704 199 684 274 704 b 522 685 422 704 473 698 b 647 631 570 672 612 654 l 563 485 b 378 529 511 514 449 529 b 272 479 307 529 272 513 b 294 447 272 465 279 455 b 367 431 308 440 332 434 b 591 364 465 423 540 401 b 668 208 642 327 668 275 b 583 42 668 138 640 83 b 349 -18 527 2 449 -18 b 32 74 227 -18 122 13 m 432 764 l 351 838 l 274 764 l 78 764 l 285 972 l 419 972 l 628 764 "},"Ş":{"ha":915,"x_min":0,"x_max":0,"o":"m 781 78 b 528 -19 718 23 633 -9 l 513 -56 b 612 -99 554 -59 587 -74 b 649 -196 636 -124 649 -156 b 596 -302 649 -239 631 -275 b 458 -343 561 -329 515 -343 b 351 -324 419 -343 384 -337 b 271 -269 319 -312 292 -294 l 344 -185 b 446 -222 375 -210 409 -222 b 492 -211 465 -222 481 -219 b 508 -181 503 -204 508 -194 b 491 -148 508 -167 503 -156 b 444 -136 479 -140 464 -136 b 396 -146 422 -136 406 -139 l 354 -107 l 388 -18 b 200 27 322 -11 259 4 b 44 115 141 50 89 79 l 163 281 b 464 179 249 213 349 179 b 601 208 521 179 567 189 b 651 288 634 228 651 254 b 604 361 651 319 636 344 b 454 399 573 379 523 391 b 163 492 322 413 225 444 b 71 694 102 539 71 606 b 121 851 71 754 88 806 b 261 957 154 897 201 932 b 469 994 321 982 391 994 b 667 965 537 994 603 985 b 838 883 732 946 788 919 l 731 724 b 479 803 655 776 571 803 b 344 775 423 803 378 794 b 293 700 310 756 293 731 b 337 629 293 669 308 646 b 483 592 366 613 415 600 b 778 494 615 577 713 544 b 875 286 843 443 875 374 b 781 78 875 203 844 134 "},"ş":{"ha":703,"x_min":0,"x_max":0,"o":"m 603 58 b 418 -14 559 19 498 -5 l 401 -56 b 501 -97 443 -58 476 -72 b 538 -196 525 -122 538 -155 b 485 -302 538 -239 520 -275 b 349 -343 451 -329 405 -343 b 242 -324 310 -343 274 -337 b 163 -271 209 -312 183 -294 l 236 -186 b 336 -224 266 -211 299 -224 b 381 -212 355 -224 369 -220 b 397 -181 392 -204 397 -194 b 381 -147 397 -167 392 -156 b 335 -135 369 -139 354 -135 b 286 -146 315 -135 299 -138 l 244 -107 l 281 -14 b 32 74 188 -5 105 25 l 115 224 b 231 176 149 203 187 188 b 363 160 275 165 319 160 b 453 208 423 160 453 176 b 428 246 453 225 444 238 b 344 263 411 254 383 260 b 137 328 257 267 188 289 b 60 481 85 367 60 418 b 143 644 60 549 88 603 b 368 704 199 684 274 704 b 522 685 422 704 473 698 b 647 631 570 672 612 654 l 563 485 b 378 529 511 514 449 529 b 272 479 307 529 272 513 b 294 447 272 465 279 455 b 367 431 308 440 332 434 b 591 364 465 423 540 401 b 668 208 642 327 668 275 b 603 58 668 146 646 96 "},"Š":{"ha":915,"x_min":0,"x_max":0,"o":"m 235 14 b 44 115 162 38 98 72 l 163 281 b 464 179 249 213 349 179 b 601 208 521 179 567 189 b 651 288 634 228 651 254 b 604 361 651 319 636 344 b 454 399 573 379 523 391 b 163 492 322 413 225 444 b 71 694 102 539 71 606 b 121 851 71 754 88 806 b 261 957 154 897 201 932 b 469 994 321 982 391 994 b 667 965 537 994 603 985 b 838 883 732 946 788 919 l 731 724 b 479 803 655 776 571 803 b 344 775 423 803 378 794 b 293 700 310 756 293 731 b 337 629 293 669 308 646 b 483 592 366 613 415 600 b 778 494 615 577 713 544 b 875 286 843 443 875 374 b 824 124 875 225 858 171 b 679 16 789 78 741 41 b 465 -22 617 -9 546 -22 b 235 14 386 -22 309 -10 m 726 1264 l 533 1064 l 385 1064 l 190 1264 l 390 1264 l 458 1200 l 526 1264 "},"š":{"ha":703,"x_min":0,"x_max":0,"o":"m 115 224 b 231 176 149 203 187 188 b 363 160 275 165 319 160 b 453 208 423 160 453 176 b 428 246 453 225 444 238 b 344 263 411 254 383 260 b 137 328 257 267 188 289 b 60 481 85 367 60 418 b 143 644 60 549 88 603 b 368 704 199 684 274 704 b 522 685 422 704 473 698 b 647 631 570 672 612 654 l 563 485 b 378 529 511 514 449 529 b 272 479 307 529 272 513 b 294 447 272 465 279 455 b 367 431 308 440 332 434 b 591 364 465 423 540 401 b 668 208 642 327 668 275 b 583 42 668 138 640 83 b 349 -18 527 2 449 -18 b 32 74 227 -18 122 13 m 628 972 l 419 764 l 285 764 l 78 972 l 274 972 l 351 899 l 432 972 "},"Ţ":{"ha":864,"x_min":0,"x_max":0,"o":"m 478 -56 b 577 -99 519 -59 553 -74 b 614 -196 602 -124 614 -156 b 561 -302 614 -239 596 -275 b 424 -343 526 -329 480 -343 b 317 -324 385 -343 349 -337 b 236 -269 284 -312 257 -294 l 310 -185 b 411 -222 340 -210 374 -222 b 457 -211 431 -222 446 -219 b 474 -181 468 -204 474 -194 b 456 -148 474 -167 468 -156 b 410 -136 445 -140 429 -136 b 361 -146 388 -136 371 -139 l 319 -107 l 360 0 l 318 0 l 318 774 l 22 774 l 22 972 l 843 972 l 843 774 l 546 774 l 546 0 l 500 0 "},"ţ":{"ha":589,"x_min":0,"x_max":0,"o":"m 512 -97 b 549 -196 536 -122 549 -155 b 497 -302 549 -239 531 -275 b 360 -343 462 -329 416 -343 b 253 -324 321 -343 285 -337 b 174 -271 220 -312 194 -294 l 247 -186 b 347 -224 277 -211 310 -224 b 392 -212 366 -224 381 -220 b 408 -181 403 -204 408 -194 b 392 -147 408 -167 403 -156 b 346 -135 381 -139 365 -135 b 297 -146 326 -135 310 -138 l 256 -107 l 296 0 b 149 253 198 31 149 115 l 149 513 l 32 513 l 32 686 l 149 686 l 149 857 l 365 881 l 365 686 l 536 686 l 536 513 l 365 513 l 365 253 b 386 191 365 225 372 204 b 443 171 400 178 419 171 b 522 190 470 171 496 177 l 574 26 b 431 -12 530 5 482 -8 l 413 -56 b 512 -97 454 -58 487 -72 "},"Ť":{"ha":864,"x_min":0,"x_max":0,"o":"m 843 774 l 546 774 l 546 0 l 318 0 l 318 774 l 22 774 l 22 972 l 843 972 m 700 1264 l 507 1064 l 358 1064 l 164 1264 l 364 1264 l 432 1200 l 500 1264 "},"ť":{"ha":703,"x_min":0,"x_max":0,"o":"m 789 899 l 683 597 l 535 597 l 596 899 m 574 26 b 392 -14 520 0 459 -14 b 214 49 317 -14 257 7 b 149 253 170 91 149 159 l 149 513 l 32 513 l 32 686 l 149 686 l 149 857 l 365 881 l 365 686 l 497 686 l 497 513 l 365 513 l 365 253 b 386 191 365 225 372 204 b 443 171 400 178 419 171 b 522 190 470 171 496 177 "},"Ŧ":{"ha":864,"x_min":0,"x_max":0,"o":"m 546 778 l 546 563 l 717 563 l 717 393 l 546 393 l 546 0 l 318 0 l 318 393 l 147 393 l 147 563 l 318 563 l 318 778 l 22 778 l 22 972 l 843 972 l 843 778 "},"ŧ":{"ha":589,"x_min":0,"x_max":0,"o":"m 574 26 b 392 -14 520 0 459 -14 b 214 49 317 -14 257 7 b 149 253 170 91 149 159 l 149 292 l 54 292 l 54 425 l 149 425 l 149 521 l 32 521 l 32 686 l 149 686 l 149 857 l 365 881 l 365 686 l 536 686 l 536 521 l 365 521 l 365 425 l 490 425 l 490 292 l 365 292 l 365 253 b 386 191 365 225 372 204 b 443 171 400 178 419 171 b 522 194 473 171 499 179 l 574 26 "},"Ũ":{"ha":1064,"x_min":0,"x_max":0,"o":"m 206 95 b 90 419 129 172 90 281 l 90 972 l 318 972 l 318 419 b 374 244 318 345 337 287 b 532 181 412 202 464 181 b 688 244 598 181 650 202 b 744 419 725 287 744 345 l 744 972 l 972 972 l 972 419 b 857 95 972 281 934 172 b 532 -21 780 18 672 -21 b 206 95 392 -21 284 18 m 524 1082 b 453 1106 495 1098 471 1106 b 392 1060 425 1106 405 1090 l 279 1136 b 342 1229 293 1176 314 1207 b 438 1263 371 1251 402 1263 b 535 1235 471 1263 503 1253 b 607 1211 561 1219 585 1211 b 668 1258 635 1211 655 1227 l 779 1186 b 719 1087 766 1143 746 1109 b 628 1053 693 1064 662 1053 b 524 1082 594 1053 559 1063 "},"ũ":{"ha":853,"x_min":0,"x_max":0,"o":"m 771 0 l 582 0 l 568 79 b 473 9 542 49 510 25 b 350 -15 435 -7 394 -15 b 149 68 266 -15 199 13 b 74 299 99 124 74 200 l 74 686 l 292 686 l 292 311 b 324 207 292 267 303 232 b 414 169 346 182 376 169 b 515 213 456 169 489 184 b 553 326 540 242 553 280 l 553 686 l 771 686 m 415 801 b 347 825 387 817 364 825 b 286 779 319 825 299 810 l 174 856 b 237 949 188 895 209 926 b 332 982 265 971 297 982 b 426 954 363 982 395 973 b 496 931 449 938 472 931 b 557 978 524 931 544 946 l 668 906 b 609 806 655 861 635 828 b 517 772 583 783 552 772 b 415 801 484 772 450 782 "},"Ū":{"ha":1064,"x_min":0,"x_max":0,"o":"m 206 95 b 90 419 129 172 90 281 l 90 972 l 318 972 l 318 419 b 374 244 318 345 337 287 b 532 181 412 202 464 181 b 688 244 598 181 650 202 b 744 419 725 287 744 345 l 744 972 l 972 972 l 972 419 b 857 95 972 281 934 172 b 532 -21 780 18 672 -21 b 206 95 392 -21 284 18 m 760 1229 l 760 1072 l 303 1072 l 303 1229 "},"ū":{"ha":853,"x_min":0,"x_max":0,"o":"m 771 0 l 582 0 l 568 79 b 473 9 542 49 510 25 b 350 -15 435 -7 394 -15 b 149 68 266 -15 199 13 b 74 299 99 124 74 200 l 74 686 l 292 686 l 292 311 b 324 207 292 267 303 232 b 414 169 346 182 376 169 b 515 213 456 169 489 184 b 553 326 540 242 553 280 l 553 686 l 771 686 m 632 943 l 632 786 l 215 786 l 215 943 "},"Ŭ":{"ha":1064,"x_min":0,"x_max":0,"o":"m 206 95 b 90 419 129 172 90 281 l 90 972 l 318 972 l 318 419 b 374 244 318 345 337 287 b 532 181 412 202 464 181 b 688 244 598 181 650 202 b 744 419 725 287 744 345 l 744 972 l 972 972 l 972 419 b 857 95 972 281 934 172 b 532 -21 780 18 672 -21 b 206 95 392 -21 284 18 m 363 1110 b 301 1263 322 1147 301 1198 l 465 1263 b 483 1214 465 1242 471 1226 b 531 1196 495 1202 511 1196 b 579 1214 551 1196 567 1202 b 597 1263 591 1226 597 1242 l 760 1263 b 699 1110 760 1198 739 1147 b 531 1056 658 1074 602 1056 b 363 1110 459 1056 403 1074 "},"ŭ":{"ha":853,"x_min":0,"x_max":0,"o":"m 771 0 l 582 0 l 568 79 b 473 9 542 49 510 25 b 350 -15 435 -7 394 -15 b 149 68 266 -15 199 13 b 74 299 99 124 74 200 l 74 686 l 292 686 l 292 311 b 324 207 292 267 303 232 b 414 169 346 182 376 169 b 515 213 456 169 489 184 b 553 326 540 242 553 280 l 553 686 l 771 686 m 254 820 b 193 972 213 857 193 907 l 357 972 b 375 924 357 952 363 936 b 422 906 387 912 403 906 b 471 924 443 906 459 912 b 489 972 483 936 489 952 l 651 972 b 590 820 651 907 631 857 b 422 765 550 784 494 765 b 254 820 351 765 295 784 "},"Ů":{"ha":1064,"x_min":0,"x_max":0,"o":"m 206 95 b 90 419 129 172 90 281 l 90 972 l 318 972 l 318 419 b 374 244 318 345 337 287 b 532 181 412 202 464 181 b 688 244 598 181 650 202 b 744 419 725 287 744 345 l 744 972 l 972 972 l 972 419 b 857 95 972 281 934 172 b 532 -21 780 18 672 -21 b 206 95 392 -21 284 18 m 392 1083 b 338 1206 356 1115 338 1156 b 392 1330 338 1256 356 1298 b 531 1378 428 1362 474 1378 b 671 1330 588 1378 635 1362 b 725 1206 707 1298 725 1256 b 671 1083 725 1156 707 1115 b 531 1035 635 1051 588 1035 b 392 1083 474 1035 428 1051 m 573 1165 b 589 1206 584 1175 589 1189 b 573 1247 589 1222 584 1236 b 531 1263 562 1257 548 1263 b 488 1247 513 1263 499 1257 b 472 1206 478 1236 472 1222 b 488 1166 472 1190 478 1177 b 531 1150 499 1155 513 1150 b 573 1165 548 1150 562 1155 "},"ů":{"ha":853,"x_min":0,"x_max":0,"o":"m 771 0 l 582 0 l 568 79 b 473 9 542 49 510 25 b 350 -15 435 -7 394 -15 b 149 68 266 -15 199 13 b 74 299 99 124 74 200 l 74 686 l 292 686 l 292 311 b 324 207 292 267 303 232 b 414 169 346 182 376 169 b 515 213 456 169 489 184 b 553 326 540 242 553 280 l 553 686 l 771 686 m 283 797 b 229 919 247 828 229 869 b 283 1044 229 970 247 1012 b 422 1092 319 1076 366 1092 b 563 1044 480 1092 526 1076 b 617 919 599 1012 617 970 b 563 797 617 869 599 828 b 422 749 526 765 480 749 b 283 797 366 749 319 765 m 465 879 b 481 919 475 889 481 903 b 465 960 481 936 475 950 b 422 976 454 971 440 976 b 380 960 405 976 391 971 b 364 919 369 950 364 936 b 380 880 364 904 369 891 b 422 864 391 869 405 864 b 465 879 440 864 454 869 "},"Ű":{"ha":1064,"x_min":0,"x_max":0,"o":"m 206 95 b 90 419 129 172 90 281 l 90 972 l 318 972 l 318 419 b 374 244 318 345 337 287 b 532 181 412 202 464 181 b 688 244 598 181 650 202 b 744 419 725 287 744 345 l 744 972 l 972 972 l 972 419 b 857 95 972 281 934 172 b 532 -21 780 18 672 -21 b 206 95 392 -21 284 18 m 608 1258 l 474 1053 l 290 1053 l 389 1258 m 894 1258 l 744 1053 l 561 1053 l 682 1258 "},"ű":{"ha":853,"x_min":0,"x_max":0,"o":"m 771 0 l 582 0 l 568 79 b 473 9 542 49 510 25 b 350 -15 435 -7 394 -15 b 149 68 266 -15 199 13 b 74 299 99 124 74 200 l 74 686 l 292 686 l 292 311 b 324 207 292 267 303 232 b 414 169 346 182 376 169 b 515 213 456 169 489 184 b 553 326 540 242 553 280 l 553 686 l 771 686 m 494 972 l 364 767 l 185 767 l 279 972 m 786 972 l 636 767 l 454 767 l 569 972 "},"Ų":{"ha":1064,"x_min":0,"x_max":0,"o":"m 972 419 b 899 147 972 309 948 218 b 689 0 851 75 781 26 b 604 -92 632 -32 604 -63 b 614 -116 604 -102 607 -110 b 642 -125 620 -122 630 -125 b 689 -110 658 -125 674 -120 l 754 -217 b 675 -265 729 -239 703 -255 b 582 -279 647 -274 616 -279 b 469 -243 534 -279 496 -267 b 428 -143 441 -219 428 -186 b 478 -18 428 -98 444 -56 b 192 111 355 -8 259 35 b 90 419 124 187 90 290 l 90 972 l 318 972 l 318 419 b 374 244 318 345 337 287 b 532 181 412 202 464 181 b 688 244 598 181 650 202 b 744 419 725 287 744 345 l 744 972 l 972 972 "},"ų":{"ha":853,"x_min":0,"x_max":0,"o":"m 835 -196 b 661 -261 786 -239 728 -261 b 552 -228 615 -261 578 -250 b 513 -136 526 -206 513 -175 b 582 3 513 -84 536 -38 l 568 79 b 473 9 542 49 510 25 b 350 -15 435 -7 394 -15 b 149 68 266 -15 199 13 b 74 299 99 124 74 200 l 74 686 l 292 686 l 292 311 b 324 207 292 267 303 232 b 414 169 346 182 376 169 b 515 213 456 169 489 184 b 553 326 540 242 553 280 l 553 686 l 771 686 l 771 0 b 675 -86 707 -29 675 -57 b 686 -112 675 -96 679 -105 b 715 -122 694 -119 703 -122 b 745 -116 725 -122 734 -120 b 774 -100 756 -112 765 -106 l 835 -196 "},"Ŵ":{"ha":1538,"x_min":0,"x_max":0,"o":"m 1525 972 l 1185 0 l 969 0 l 878 271 l 767 597 l 658 271 l 565 0 l 354 0 l 13 972 l 261 972 l 383 585 l 463 308 l 683 972 l 847 972 l 1074 304 l 1158 585 l 1276 972 m 833 1060 l 765 1124 l 697 1060 l 497 1060 l 692 1260 l 840 1260 l 1033 1060 "},"ŵ":{"ha":1151,"x_min":0,"x_max":0,"o":"m 1149 686 l 919 0 l 713 0 l 656 168 l 576 389 l 497 168 l 440 0 l 232 0 l 3 686 l 233 686 l 294 475 l 347 264 l 504 686 l 649 686 l 806 263 l 858 475 l 918 686 m 656 764 l 575 838 l 497 764 l 301 764 l 508 972 l 643 972 l 851 764 "},"Ŷ":{"ha":986,"x_min":0,"x_max":0,"o":"m 600 381 l 600 0 l 374 0 l 374 381 l -8 972 l 258 972 l 489 594 l 725 972 l 996 972 m 560 1060 l 492 1124 l 424 1060 l 224 1060 l 418 1260 l 567 1260 l 760 1060 "},"ŷ":{"ha":799,"x_min":0,"x_max":0,"o":"m 796 686 l 368 -297 l 136 -297 l 269 10 l 3 686 l 238 686 l 317 469 l 392 246 l 472 469 l 560 686 m 478 764 l 397 838 l 319 764 l 124 764 l 331 972 l 465 972 l 674 764 "},"Ÿ":{"ha":986,"x_min":0,"x_max":0,"o":"m 600 381 l 600 0 l 374 0 l 374 381 l -8 972 l 258 972 l 489 594 l 725 972 l 996 972 m 248 1086 b 214 1169 225 1106 214 1134 b 248 1252 214 1205 225 1232 b 331 1282 271 1272 298 1282 b 413 1252 362 1282 389 1272 b 447 1169 436 1232 447 1205 b 413 1086 447 1134 436 1106 b 331 1056 389 1066 362 1056 b 248 1086 298 1056 271 1066 m 572 1086 b 538 1169 549 1106 538 1134 b 572 1252 538 1205 549 1232 b 654 1282 595 1272 623 1282 b 737 1252 687 1282 714 1272 b 771 1169 759 1232 771 1205 b 737 1086 771 1134 759 1106 b 654 1056 714 1066 687 1056 b 572 1086 623 1056 595 1066 "},"Ź":{"ha":876,"x_min":0,"x_max":0,"o":"m 829 199 l 829 0 l 35 0 l 35 85 l 507 779 l 65 779 l 65 972 l 821 972 l 821 890 l 353 199 m 689 1260 l 533 1060 l 342 1060 l 444 1260 "},"ź":{"ha":696,"x_min":0,"x_max":0,"o":"m 649 190 l 649 0 l 35 0 l 35 72 l 329 501 l 61 501 l 61 686 l 639 686 l 639 617 l 346 190 m 572 972 l 426 767 l 244 767 l 338 972 "},"Ż":{"ha":876,"x_min":0,"x_max":0,"o":"m 829 199 l 829 0 l 35 0 l 35 85 l 507 779 l 65 779 l 65 972 l 821 972 l 821 890 l 353 199 m 360 1083 b 326 1164 338 1105 326 1131 b 360 1245 326 1197 338 1224 b 447 1276 383 1266 412 1276 b 534 1245 482 1276 511 1266 b 568 1164 557 1224 568 1197 b 534 1083 568 1131 557 1105 b 447 1051 511 1062 482 1051 b 360 1083 412 1051 383 1062 "},"ż":{"ha":696,"x_min":0,"x_max":0,"o":"m 649 190 l 649 0 l 35 0 l 35 72 l 329 501 l 61 501 l 61 686 l 639 686 l 639 617 l 346 190 m 267 800 b 233 878 244 820 233 846 b 267 956 233 909 244 935 b 351 986 289 976 317 986 b 435 956 386 986 414 976 b 468 878 457 935 468 909 b 435 800 468 846 457 820 b 351 769 414 780 386 769 b 267 800 317 769 289 780 "},"Ž":{"ha":876,"x_min":0,"x_max":0,"o":"m 829 199 l 829 0 l 35 0 l 35 85 l 507 779 l 65 779 l 65 972 l 821 972 l 821 890 l 353 199 m 715 1264 l 522 1064 l 374 1064 l 179 1264 l 379 1264 l 447 1200 l 515 1264 "},"ž":{"ha":696,"x_min":0,"x_max":0,"o":"m 649 190 l 649 0 l 35 0 l 35 72 l 329 501 l 61 501 l 61 686 l 639 686 l 639 617 l 346 190 m 626 972 l 418 764 l 283 764 l 76 972 l 272 972 l 350 899 l 431 972 "},"ſ":{"ha":481,"x_min":0,"x_max":0,"o":"m 537 978 b 625 928 571 967 600 950 l 554 788 b 457 822 525 811 492 822 b 394 797 431 822 410 814 b 371 722 379 781 371 756 l 371 0 l 150 0 l 150 511 l 29 511 l 29 686 l 150 686 l 150 722 b 190 875 150 783 163 834 b 293 965 216 916 250 946 b 431 994 336 985 381 994 b 537 978 468 994 503 989 "},"ƒ":{"ha":632,"x_min":0,"x_max":0,"o":"m 614 685 l 614 511 l 428 511 l 428 -1 b 354 -209 428 -91 403 -160 b 167 -282 305 -258 243 -282 b 64 -266 132 -282 98 -277 b -31 -221 30 -255 -2 -240 l 40 -75 b 78 -94 53 -84 66 -91 b 121 -100 91 -98 105 -100 b 185 -72 148 -100 169 -91 b 208 7 200 -54 208 -27 l 208 511 l 88 511 l 88 686 l 208 686 l 208 722 b 247 875 208 783 221 834 b 350 965 273 916 307 946 b 488 994 393 985 438 994 b 594 977 525 994 560 989 b 683 928 629 966 658 949 l 611 788 b 514 822 581 811 549 822 b 452 797 489 822 468 814 b 428 722 436 781 428 756 l 428 685 "},"Ǽ":{"ha":1428,"x_min":0,"x_max":0,"o":"m 1365 192 l 1365 0 l 683 0 l 683 175 l 326 175 l 214 0 l -42 0 l 585 972 l 1350 972 l 1350 782 l 896 782 l 896 585 l 1321 585 l 1321 401 l 896 401 l 896 192 m 683 376 l 683 614 l 685 757 l 596 607 l 449 376 m 1010 1260 l 854 1060 l 663 1060 l 765 1260 "},"ǽ":{"ha":1360,"x_min":0,"x_max":0,"o":"m 1170 658 b 1283 540 1219 631 1256 591 b 1322 364 1309 489 1322 431 b 1314 274 1322 336 1319 306 l 821 274 b 879 192 828 239 848 212 b 999 163 911 172 950 163 b 1099 178 1034 163 1067 168 b 1178 221 1130 188 1156 202 l 1293 97 b 1161 15 1256 62 1212 35 b 1001 -14 1110 -4 1057 -14 b 775 74 904 -14 829 15 l 765 0 l 593 0 l 586 75 b 368 -14 529 16 456 -14 b 200 31 305 -14 249 1 b 85 158 151 61 113 103 b 43 343 57 212 43 274 b 85 528 43 413 57 474 b 200 655 113 583 151 625 b 368 700 249 685 305 700 b 589 610 458 700 531 670 l 597 686 l 765 686 l 775 613 b 1000 700 831 671 906 700 b 1170 658 1065 700 1122 686 m 871 504 b 821 417 844 483 827 454 l 1124 417 b 1081 503 1123 452 1109 481 b 975 536 1054 525 1019 536 b 871 504 932 536 898 525 m 535 218 b 579 343 564 250 579 292 b 535 468 579 394 564 436 b 419 517 505 500 467 517 b 304 468 372 517 334 500 b 260 343 275 436 260 394 b 304 218 260 292 275 250 b 419 169 334 186 372 169 b 535 218 467 169 505 186 m 903 972 l 757 767 l 575 767 l 668 972 "},"Ǿ":{"ha":1153,"x_min":0,"x_max":0,"o":"m 1058 714 b 1103 486 1088 646 1103 570 b 1038 218 1103 384 1081 295 b 853 40 994 141 933 82 b 576 -24 774 -3 682 -24 b 378 7 502 -24 436 -13 l 313 -99 l 108 -99 l 225 88 b 95 257 169 132 125 188 b 50 486 65 325 50 402 b 115 754 50 588 72 677 b 300 933 159 831 220 891 b 576 996 380 975 472 996 b 775 965 646 996 712 986 l 842 1071 l 1047 1071 l 928 883 b 1058 714 984 838 1028 781 m 417 760 b 310 650 372 734 336 697 b 272 486 285 603 272 548 b 291 368 272 444 278 404 b 343 274 303 332 321 300 l 665 788 b 576 799 636 795 606 799 b 417 760 516 799 463 786 m 736 213 b 843 322 782 238 818 275 b 881 486 868 369 881 424 b 811 699 881 571 857 642 l 489 185 b 576 174 517 177 546 174 b 736 213 637 174 690 187 m 818 1260 l 663 1060 l 471 1060 l 574 1260 "},"ǿ":{"ha":835,"x_min":0,"x_max":0,"o":"m 757 509 b 792 343 780 459 792 404 b 746 156 792 272 776 209 b 615 30 715 102 672 60 b 417 -15 558 0 492 -15 b 290 1 371 -15 329 -10 l 240 -85 l 96 -85 l 178 56 b 78 176 134 87 101 127 b 43 343 55 225 43 281 b 89 530 43 413 58 476 b 219 656 119 584 163 626 b 417 701 276 686 342 701 b 546 683 466 701 509 695 l 596 768 l 739 768 l 657 631 b 757 509 700 599 734 559 m 303 468 b 260 343 274 436 260 394 b 286 240 260 305 269 271 l 447 514 b 417 517 434 516 424 517 b 303 468 370 517 333 500 m 531 218 b 575 343 560 250 575 292 b 549 444 575 381 566 415 l 389 172 b 417 169 402 170 411 169 b 531 218 464 169 502 186 m 638 972 l 492 767 l 310 767 l 403 972 "},"Ș":{"ha":915,"x_min":0,"x_max":0,"o":"m 235 14 b 44 115 162 38 98 72 l 163 281 b 464 179 249 213 349 179 b 601 208 521 179 567 189 b 651 288 634 228 651 254 b 604 361 651 319 636 344 b 454 399 573 379 523 391 b 163 492 322 413 225 444 b 71 694 102 539 71 606 b 121 851 71 754 88 806 b 261 957 154 897 201 932 b 469 994 321 982 391 994 b 667 965 537 994 603 985 b 838 883 732 946 788 919 l 731 724 b 479 803 655 776 571 803 b 344 775 423 803 378 794 b 293 700 310 756 293 731 b 337 629 293 669 308 646 b 483 592 366 613 415 600 b 778 494 615 577 713 544 b 875 286 843 443 875 374 b 824 124 875 225 858 171 b 679 16 789 78 741 41 b 465 -22 617 -9 546 -22 b 235 14 386 -22 309 -10 m 543 -99 b 572 -168 563 -117 572 -140 b 558 -241 572 -189 568 -214 b 504 -371 549 -268 531 -312 l 399 -371 l 425 -243 b 378 -217 405 -239 389 -231 b 361 -165 367 -204 361 -187 b 391 -99 361 -138 371 -116 b 467 -72 411 -81 436 -72 b 543 -99 498 -72 524 -81 "},"ș":{"ha":703,"x_min":0,"x_max":0,"o":"m 115 224 b 231 176 149 203 187 188 b 363 160 275 165 319 160 b 453 208 423 160 453 176 b 428 246 453 225 444 238 b 344 263 411 254 383 260 b 137 328 257 267 188 289 b 60 481 85 367 60 418 b 143 644 60 549 88 603 b 368 704 199 684 274 704 b 522 685 422 704 473 698 b 647 631 570 672 612 654 l 563 485 b 378 529 511 514 449 529 b 272 479 307 529 272 513 b 294 447 272 465 279 455 b 367 431 308 440 332 434 b 591 364 465 423 540 401 b 668 208 642 327 668 275 b 583 42 668 138 640 83 b 349 -18 527 2 449 -18 b 32 74 227 -18 122 13 m 435 -99 b 464 -168 454 -117 464 -140 b 450 -241 464 -189 459 -214 b 396 -371 441 -268 423 -312 l 290 -371 l 317 -243 b 269 -217 296 -239 281 -231 b 253 -165 258 -204 253 -187 b 283 -99 253 -138 263 -116 b 358 -72 303 -81 328 -72 b 435 -99 390 -72 415 -81 "},"Ț":{"ha":864,"x_min":0,"x_max":0,"o":"m 843 774 l 546 774 l 546 0 l 318 0 l 318 774 l 22 774 l 22 972 l 843 972 m 508 -99 b 538 -168 528 -117 538 -140 b 524 -241 538 -189 533 -214 b 469 -371 514 -268 496 -312 l 364 -371 l 390 -243 b 343 -217 370 -239 354 -231 b 326 -165 332 -204 326 -187 b 356 -99 326 -138 336 -116 b 432 -72 376 -81 401 -72 b 508 -99 463 -72 489 -81 "},"ț":{"ha":589,"x_min":0,"x_max":0,"o":"m 574 26 b 392 -14 520 0 459 -14 b 214 49 317 -14 257 7 b 149 253 170 91 149 159 l 149 513 l 32 513 l 32 686 l 149 686 l 149 857 l 365 881 l 365 686 l 536 686 l 536 513 l 365 513 l 365 253 b 386 191 365 225 372 204 b 443 171 400 178 419 171 b 522 190 470 171 496 177 l 574 26 m 447 -99 b 476 -168 467 -117 476 -140 b 463 -241 476 -189 472 -214 b 408 -371 453 -268 435 -312 l 303 -371 l 329 -243 b 282 -217 309 -239 293 -231 b 265 -165 271 -204 265 -187 b 295 -99 265 -138 275 -116 b 371 -72 315 -81 340 -72 b 447 -99 402 -72 428 -81 "},"ȷ":{"ha":385,"x_min":0,"x_max":0,"o":"m -56 -128 b 15 -147 -30 -141 -6 -147 b 67 -123 38 -147 56 -139 b 83 -47 78 -107 83 -81 l 83 686 l 301 686 l 301 -47 b 238 -256 301 -137 280 -206 b 61 -329 196 -305 137 -329 b -104 -285 7 -329 -48 -314 "},"ˆ":{"ha":613,"x_min":0,"x_max":0,"o":"m 372 764 l 292 838 l 214 764 l 18 764 l 225 972 l 360 972 l 568 764 "},"ˇ":{"ha":600,"x_min":0,"x_max":0,"o":"m 576 972 l 368 764 l 233 764 l 26 972 l 222 972 l 300 899 l 381 972 "},"˘":{"ha":531,"x_min":0,"x_max":0,"o":"m 101 820 b 40 972 61 857 40 907 l 204 972 b 222 924 204 952 210 936 b 269 906 234 912 250 906 b 318 924 290 906 306 912 b 336 972 330 936 336 952 l 499 972 b 438 820 499 907 478 857 b 269 765 397 784 341 765 b 101 820 198 765 142 784 "},"˙":{"ha":351,"x_min":0,"x_max":0,"o":"m 85 800 b 51 878 63 820 51 846 b 85 956 51 909 63 935 b 169 986 107 976 135 986 b 253 956 204 986 232 976 b 286 878 275 935 286 909 b 253 800 286 846 275 820 b 169 769 232 780 204 769 b 85 800 135 769 107 780 "},"˚":{"ha":550,"x_min":0,"x_max":0,"o":"m 124 797 b 69 919 88 828 69 869 b 124 1044 69 970 88 1012 b 263 1092 160 1076 206 1092 b 403 1044 320 1092 367 1076 b 457 919 439 1012 457 970 b 403 797 457 869 439 828 b 263 749 367 765 320 749 b 124 797 206 749 160 765 m 305 879 b 321 919 316 889 321 903 b 305 960 321 936 316 950 b 263 976 294 971 280 976 b 220 960 245 976 231 971 b 204 919 209 950 204 936 b 220 880 204 904 209 891 b 263 864 231 869 245 864 b 305 879 280 864 294 869 "},"˛":{"ha":549,"x_min":0,"x_max":0,"o":"m 213 -228 b 174 -136 187 -206 174 -175 b 220 -20 174 -94 189 -56 b 347 64 251 16 294 44 l 432 0 b 336 -86 368 -29 336 -57 b 347 -112 336 -96 340 -105 b 376 -122 355 -119 364 -122 b 406 -116 386 -122 396 -120 b 435 -100 417 -112 426 -106 l 496 -196 b 322 -261 447 -239 389 -261 b 213 -228 276 -261 240 -250 "},"˜":{"ha":621,"x_min":0,"x_max":0,"o":"m 300 801 b 232 825 271 817 249 825 b 171 779 204 825 184 810 l 58 856 b 122 949 72 895 93 926 b 217 982 150 971 181 982 b 311 954 248 982 280 973 b 381 931 333 938 356 931 b 442 978 408 931 429 946 l 553 906 b 494 806 540 861 520 828 b 401 772 467 783 437 772 b 300 801 369 772 335 782 "},"˝":{"ha":676,"x_min":0,"x_max":0,"o":"m 404 972 l 274 767 l 94 767 l 189 972 m 696 972 l 546 767 l 364 767 l 479 972 "},"̀":{"ha":0,"x_min":0,"x_max":0,"o":"m -572 972 l -337 972 l -244 767 l -426 767 "},"́":{"ha":0,"x_min":0,"x_max":0,"o":"m -18 972 l -164 767 l -346 767 l -253 972 "},"̂":{"ha":0,"x_min":0,"x_max":0,"o":"m -265 764 l -346 838 l -424 764 l -619 764 l -412 972 l -278 972 l -69 764 "},"̃":{"ha":0,"x_min":0,"x_max":0,"o":"m -344 801 b -412 825 -373 817 -396 825 b -474 779 -440 825 -461 810 l -586 856 b -523 949 -572 895 -551 926 b -428 982 -495 971 -463 982 b -333 954 -396 982 -365 973 b -264 931 -311 938 -288 931 b -203 978 -236 931 -216 946 l -92 906 b -151 806 -105 861 -124 828 b -243 772 -177 783 -208 772 b -344 801 -275 772 -309 782 "},"̄":{"ha":0,"x_min":0,"x_max":0,"o":"m -103 943 l -103 786 l -519 786 l -519 943 "},"̆":{"ha":0,"x_min":0,"x_max":0,"o":"m -468 820 b -529 972 -509 857 -529 907 l -365 972 b -347 924 -365 952 -359 936 b -300 906 -335 912 -319 906 b -251 924 -280 906 -263 912 b -233 972 -239 936 -233 952 l -71 972 b -132 820 -71 907 -91 857 b -300 765 -173 784 -229 765 b -468 820 -371 765 -427 784 "},"̇":{"ha":0,"x_min":0,"x_max":0,"o":"m -278 800 b -311 878 -300 820 -311 846 b -278 956 -311 909 -300 935 b -193 986 -256 976 -227 986 b -109 956 -159 986 -131 976 b -76 878 -87 935 -76 909 b -109 800 -76 846 -87 820 b -193 769 -131 780 -159 769 b -278 800 -227 769 -256 780 "},"̈":{"ha":0,"x_min":0,"x_max":0,"o":"m -581 798 b -614 878 -603 817 -614 844 b -581 956 -614 911 -603 937 b -503 985 -558 975 -532 985 b -424 956 -472 985 -446 975 b -392 878 -403 937 -392 911 b -424 798 -392 844 -403 817 b -503 769 -446 779 -472 769 b -581 798 -533 769 -559 779 m -273 798 b -306 878 -295 817 -306 844 b -272 956 -306 911 -294 937 b -194 985 -250 975 -224 985 b -115 956 -164 985 -137 975 b -82 878 -93 937 -82 911 b -115 798 -82 844 -93 817 b -194 769 -137 779 -164 769 b -273 798 -225 769 -251 779 "},"̊":{"ha":0,"x_min":0,"x_max":0,"o":"m -406 797 b -460 919 -442 828 -460 869 b -406 1044 -460 970 -442 1012 b -267 1092 -369 1076 -323 1092 b -126 1044 -209 1092 -162 1076 b -72 919 -90 1012 -72 970 b -126 797 -72 869 -90 828 b -267 749 -162 765 -209 749 b -406 797 -323 749 -369 765 m -224 879 b -208 919 -214 889 -208 903 b -224 960 -208 936 -214 950 b -267 976 -235 971 -249 976 b -309 960 -284 976 -298 971 b -325 919 -320 950 -325 936 b -309 880 -325 904 -320 891 b -267 864 -298 869 -284 864 b -224 879 -249 864 -235 869 "},"̋":{"ha":0,"x_min":0,"x_max":0,"o":"m -308 972 l -439 767 l -618 767 l -524 972 m -17 972 l -167 767 l -349 767 l -233 972 "},"̌":{"ha":0,"x_min":0,"x_max":0,"o":"m -71 972 l -279 764 l -414 764 l -621 972 l -425 972 l -347 899 l -267 972 "},"̒":{"ha":0,"x_min":0,"x_max":0,"o":"m -95 917 b -75 850 -82 898 -75 876 b -110 764 -75 815 -87 786 b -200 731 -133 742 -163 731 b -291 765 -238 731 -268 742 b -325 856 -314 788 -325 819 b -306 954 -325 886 -319 919 b -232 1122 -293 989 -268 1045 l -114 1122 l -151 957 b -95 917 -127 950 -109 936 "},"̦":{"ha":0,"x_min":0,"x_max":0,"o":"m -40 -99 b -11 -168 -21 -117 -11 -140 b -25 -241 -11 -189 -16 -214 b -79 -371 -34 -268 -52 -312 l -185 -371 l -158 -243 b -206 -217 -179 -239 -194 -231 b -222 -165 -217 -204 -222 -187 b -192 -99 -222 -138 -212 -116 b -117 -72 -172 -81 -147 -72 b -40 -99 -85 -72 -60 -81 "},"̧":{"ha":0,"x_min":0,"x_max":0,"o":"m -127 -97 b -90 -196 -103 -122 -90 -155 b -142 -302 -90 -239 -108 -275 b -279 -343 -177 -329 -223 -343 b -386 -324 -318 -343 -354 -337 b -465 -271 -419 -312 -445 -294 l -392 -186 b -292 -224 -362 -211 -329 -224 b -247 -212 -273 -224 -258 -220 b -231 -181 -236 -204 -231 -194 b -247 -147 -231 -167 -236 -156 b -293 -135 -258 -139 -274 -135 b -342 -146 -312 -135 -329 -138 l -383 -107 l -331 31 l -196 19 l -226 -56 b -127 -97 -185 -58 -152 -72 "},"̨":{"ha":0,"x_min":0,"x_max":0,"o":"m -306 -228 b -346 -136 -333 -206 -346 -175 b -299 -20 -346 -94 -330 -56 b -172 64 -268 16 -226 44 l -87 0 b -183 -86 -151 -29 -183 -57 b -172 -112 -183 -96 -180 -105 b -143 -122 -165 -119 -155 -122 b -113 -116 -134 -122 -124 -120 b -85 -100 -103 -112 -93 -106 l -24 -196 b -197 -261 -73 -239 -131 -261 b -306 -228 -244 -261 -280 -250 "},"μ":{"ha":861,"x_min":0,"x_max":0,"o":"m 779 0 l 599 0 l 582 74 b 404 -12 531 16 472 -12 b 300 13 367 -12 332 -4 l 300 -297 l 82 -297 l 82 686 l 300 686 l 300 306 b 333 208 300 265 311 232 b 422 172 356 184 385 172 b 522 215 463 172 496 187 b 561 326 548 244 561 281 l 561 686 l 779 686 "},"π":{"ha":965,"x_min":0,"x_max":0,"o":"m 782 217 b 846 149 782 171 803 149 b 870 151 852 149 860 150 b 892 156 880 153 887 155 l 910 0 b 790 -17 865 -11 825 -17 b 629 38 724 -17 670 2 b 568 204 588 75 568 130 l 568 506 l 382 506 l 382 0 l 163 0 l 163 506 l 26 506 l 26 686 l 919 686 l 919 506 l 782 506 "},"Ѐ":{"ha":925,"x_min":0,"x_max":0,"o":"m 863 192 l 863 0 l 106 0 l 106 972 l 847 972 l 847 782 l 326 782 l 326 585 l 819 585 l 819 401 l 326 401 l 326 192 m 247 1260 l 492 1260 l 594 1060 l 403 1060 "},"Ё":{"ha":925,"x_min":0,"x_max":0,"o":"m 863 192 l 863 0 l 106 0 l 106 972 l 847 972 l 847 782 l 326 782 l 326 585 l 819 585 l 819 401 l 326 401 l 326 192 m 245 1086 b 211 1169 222 1106 211 1134 b 245 1252 211 1205 222 1232 b 328 1282 268 1272 295 1282 b 410 1252 359 1282 387 1272 b 444 1169 433 1232 444 1205 b 410 1086 444 1134 433 1106 b 328 1056 387 1066 359 1056 b 245 1086 295 1056 268 1066 m 569 1086 b 535 1169 546 1106 535 1134 b 569 1252 535 1205 546 1232 b 651 1282 593 1272 620 1282 b 734 1252 684 1282 711 1272 b 768 1169 757 1232 768 1205 b 734 1086 768 1134 757 1106 b 651 1056 711 1066 684 1056 b 569 1086 620 1056 593 1066 "},"Ђ":{"ha":1124,"x_min":0,"x_max":0,"o":"m 1010 564 b 1093 333 1066 509 1093 432 b 1003 83 1093 227 1063 143 b 746 -22 944 22 858 -13 l 706 167 b 822 215 756 173 795 189 b 861 318 848 240 861 275 b 822 419 861 361 848 394 b 714 456 795 443 759 456 b 592 413 663 456 622 441 b 547 299 562 385 547 347 l 547 0 l 319 0 l 319 775 l 22 775 l 22 972 l 843 972 l 843 785 l 547 785 l 547 569 b 779 646 609 620 687 646 b 1010 564 878 646 955 619 "},"Ѓ":{"ha":811,"x_min":0,"x_max":0,"o":"m 774 774 l 333 774 l 333 0 l 106 0 l 106 972 l 774 972 m 690 1260 l 535 1060 l 343 1060 l 446 1260 "},"Є":{"ha":978,"x_min":0,"x_max":0,"o":"m 953 129 b 569 -22 848 28 720 -22 b 297 41 467 -22 376 -1 b 115 219 219 83 158 143 b 50 486 72 296 50 385 b 115 751 50 586 72 675 b 299 931 159 828 220 888 b 569 994 377 973 468 994 b 942 840 714 994 838 943 l 800 707 b 576 799 737 768 663 799 b 395 742 507 799 447 780 b 288 592 344 705 308 655 l 703 592 l 703 396 l 283 396 b 387 234 300 328 334 274 b 576 174 439 194 502 174 b 708 199 623 174 667 182 b 818 274 750 216 787 241 l 953 129 "},"Ѕ":{"ha":915,"x_min":0,"x_max":0,"o":"m 235 14 b 44 115 162 38 98 72 l 163 281 b 464 179 249 213 349 179 b 601 208 521 179 567 189 b 651 288 634 228 651 254 b 604 361 651 319 636 344 b 454 399 573 379 523 391 b 163 492 322 413 225 444 b 71 694 102 539 71 606 b 121 851 71 754 88 806 b 261 957 154 897 201 932 b 469 994 321 982 391 994 b 667 965 537 994 603 985 b 838 883 732 946 788 919 l 731 724 b 479 803 655 776 571 803 b 344 775 423 803 378 794 b 293 700 310 756 293 731 b 337 629 293 669 308 646 b 483 592 366 613 415 600 b 778 494 615 577 713 544 b 875 286 843 443 875 374 b 824 124 875 225 858 171 b 679 16 789 78 741 41 b 465 -22 617 -9 546 -22 b 235 14 386 -22 309 -10 "},"І":{"ha":440,"x_min":0,"x_max":0,"o":"m 333 972 l 333 0 l 106 0 l 106 972 "},"Ї":{"ha":440,"x_min":0,"x_max":0,"o":"m 333 972 l 333 0 l 106 0 l 106 972 m -24 1086 b -58 1169 -47 1106 -58 1134 b -24 1252 -58 1205 -47 1232 b 58 1282 -2 1272 26 1282 b 140 1252 90 1282 117 1272 b 175 1169 163 1232 175 1205 b 140 1086 175 1134 163 1106 b 58 1056 117 1066 90 1056 b -24 1086 26 1056 -2 1066 m 300 1086 b 265 1169 277 1106 265 1134 b 300 1252 265 1205 277 1232 b 382 1282 323 1272 350 1282 b 465 1252 414 1282 442 1272 b 499 1169 487 1232 499 1205 b 465 1086 499 1134 487 1106 b 382 1056 442 1066 414 1056 b 300 1086 350 1056 323 1066 "},"Ј":{"ha":983,"x_min":0,"x_max":0,"o":"m 893 413 b 840 183 893 325 875 248 b 688 33 804 119 753 69 b 458 -19 622 -2 545 -19 b 142 93 323 -19 218 18 b 28 411 67 168 29 274 l 250 411 b 306 242 251 338 269 282 b 458 183 342 203 393 183 b 610 244 523 183 574 203 b 665 415 647 284 665 341 l 665 775 l 382 775 l 382 972 l 893 972 "},"Љ":{"ha":1636,"x_min":0,"x_max":0,"o":"m 1469 589 b 1567 343 1534 531 1567 450 b 1467 90 1567 234 1534 149 b 1185 0 1401 30 1307 0 l 746 0 l 746 764 l 451 764 l 438 478 b 383 211 432 368 414 279 b 259 58 352 144 310 92 b 68 -17 208 23 144 -2 l 25 189 b 129 235 69 199 104 214 b 188 331 154 255 174 287 b 217 518 203 375 212 438 l 242 972 l 974 972 l 974 675 l 1192 675 b 1469 589 1312 675 1405 646 m 1298 238 b 1340 339 1326 262 1340 295 b 1298 440 1340 382 1326 416 b 1175 475 1270 463 1229 475 l 972 475 l 972 201 l 1175 201 b 1298 238 1229 201 1270 213 "},"Њ":{"ha":1589,"x_min":0,"x_max":0,"o":"m 1425 563 b 1521 329 1489 508 1521 430 b 1423 87 1521 225 1488 145 b 1153 0 1358 29 1268 0 l 714 0 l 714 422 l 333 422 l 333 0 l 106 0 l 106 972 l 333 972 l 333 628 l 714 628 l 714 972 l 938 972 l 938 644 l 1160 644 b 1425 563 1273 644 1361 617 m 1256 233 b 1294 325 1281 253 1294 284 b 1256 415 1294 365 1281 395 b 1143 444 1230 434 1192 444 l 938 444 l 938 201 l 1143 201 b 1256 233 1192 201 1230 212 "},"Ћ":{"ha":1139,"x_min":0,"x_max":0,"o":"m 986 562 b 1065 322 1039 506 1065 426 l 1065 0 l 838 0 l 838 321 b 801 424 838 365 825 400 b 696 461 776 449 741 461 b 589 417 652 461 617 447 b 547 306 561 388 547 351 l 547 0 l 321 0 l 321 778 l 22 778 l 22 972 l 843 972 l 843 788 l 547 788 l 547 569 b 760 646 606 620 676 646 b 986 562 858 646 933 618 "},"Ќ":{"ha":950,"x_min":0,"x_max":0,"o":"m 674 0 l 332 386 l 332 0 l 106 0 l 106 972 l 332 972 l 332 592 l 651 972 l 932 972 l 522 496 l 969 0 m 713 1260 l 557 1060 l 365 1060 l 468 1260 "},"Ѝ":{"ha":1081,"x_min":0,"x_max":0,"o":"m 974 972 l 974 0 l 747 0 l 747 339 l 751 606 l 313 0 l 106 0 l 106 972 l 332 972 l 332 628 l 329 364 l 768 972 m 308 1260 l 553 1260 l 656 1060 l 464 1060 "},"Ў":{"ha":1001,"x_min":0,"x_max":0,"o":"m 640 232 b 546 78 608 166 576 115 b 445 0 515 42 482 16 b 313 -24 409 -16 364 -24 b 207 -12 275 -24 240 -20 b 119 22 174 -4 144 7 l 197 199 b 283 178 225 185 254 178 b 400 251 334 178 373 202 l 408 265 l 10 972 l 276 972 l 431 685 l 525 489 l 617 685 l 756 972 l 1011 972 m 407 1293 b 444 1222 413 1261 426 1237 b 521 1200 463 1207 488 1200 b 597 1222 553 1200 578 1207 b 635 1293 615 1237 627 1261 l 771 1254 b 521 1046 745 1115 662 1046 b 269 1254 381 1046 297 1115 "},"Џ":{"ha":1079,"x_min":0,"x_max":0,"o":"m 972 0 l 650 0 l 650 -200 l 431 -200 l 431 0 l 106 0 l 106 972 l 333 972 l 333 206 l 746 206 l 746 972 l 972 972 "},"А":{"ha":1093,"x_min":0,"x_max":0,"o":"m 785 175 l 306 175 l 233 0 l -10 0 l 426 972 l 669 972 l 1103 0 l 857 0 m 388 371 l 704 371 l 547 754 "},"Б":{"ha":1006,"x_min":0,"x_max":0,"o":"m 860 529 b 953 306 922 477 953 403 b 859 78 953 206 922 130 b 590 0 797 26 707 0 l 106 0 l 106 972 l 865 972 l 865 776 l 328 776 l 328 607 l 590 607 b 860 529 708 607 798 581 m 699 222 b 733 307 722 242 733 270 b 596 419 733 382 688 419 l 328 419 l 328 193 l 596 193 b 699 222 641 193 675 203 "},"В":{"ha":1008,"x_min":0,"x_max":0,"o":"m 913 415 b 954 272 940 372 954 325 b 856 72 954 187 922 120 b 586 0 791 24 701 0 l 106 0 l 106 972 l 586 972 b 833 903 691 972 773 949 b 924 714 894 856 924 794 b 891 590 924 667 913 625 b 800 508 869 554 839 527 b 913 415 847 488 885 457 m 329 592 l 590 592 b 674 617 626 592 654 600 b 703 688 693 633 703 657 b 673 759 703 718 693 742 b 590 785 653 776 625 785 l 329 785 m 697 221 b 731 301 719 240 731 267 b 697 383 731 337 719 364 b 601 411 674 402 642 411 l 329 411 l 329 192 l 601 192 b 697 221 642 192 674 201 "},"Г":{"ha":811,"x_min":0,"x_max":0,"o":"m 774 774 l 333 774 l 333 0 l 106 0 l 106 972 l 774 972 "},"Д":{"ha":1176,"x_min":0,"x_max":0,"o":"m 1147 -200 l 932 -200 l 932 0 l 232 0 l 232 -200 l 17 -200 l 17 206 l 129 206 b 205 320 164 235 190 273 b 235 535 220 367 230 438 l 260 972 l 992 972 l 992 206 l 1147 206 m 458 513 b 433 316 455 432 446 366 b 379 190 420 266 402 224 l 767 190 l 767 767 l 471 767 l 458 513 "},"Е":{"ha":925,"x_min":0,"x_max":0,"o":"m 863 192 l 863 0 l 106 0 l 106 972 l 847 972 l 847 782 l 326 782 l 326 585 l 819 585 l 819 401 l 326 401 l 326 192 "},"Ж":{"ha":1404,"x_min":0,"x_max":0,"o":"m 1140 0 l 813 392 l 813 0 l 592 0 l 592 392 l 264 0 l -19 0 l 399 494 l 15 972 l 290 972 l 592 589 l 592 972 l 813 972 l 813 589 l 1114 972 l 1388 972 l 1001 499 l 1424 0 "},"З":{"ha":890,"x_min":0,"x_max":0,"o":"m 795 412 b 835 268 822 371 835 323 b 787 114 835 209 819 157 b 650 13 755 70 709 37 b 440 -24 591 -12 521 -24 b 212 15 362 -24 285 -11 b 22 122 138 41 75 77 l 131 279 b 277 199 180 243 228 216 b 432 174 326 182 377 174 b 567 206 489 174 534 184 b 615 293 599 227 615 256 b 575 374 615 327 602 354 b 467 404 548 394 512 404 l 247 404 l 247 585 l 464 585 b 556 613 503 585 534 594 b 590 690 579 632 590 658 b 548 774 590 725 576 753 b 429 804 520 794 480 804 b 150 710 332 804 239 773 l 42 858 b 224 960 94 902 155 936 b 442 996 293 984 366 996 b 633 960 514 996 578 984 b 760 861 688 937 730 904 b 806 714 791 819 806 769 b 774 588 806 667 795 625 b 686 504 753 552 724 524 b 795 412 732 484 769 453 "},"И":{"ha":1081,"x_min":0,"x_max":0,"o":"m 974 972 l 974 0 l 747 0 l 747 339 l 751 606 l 313 0 l 106 0 l 106 972 l 332 972 l 332 628 l 329 364 l 768 972 "},"Й":{"ha":1081,"x_min":0,"x_max":0,"o":"m 974 972 l 974 0 l 747 0 l 747 339 l 751 606 l 313 0 l 106 0 l 106 972 l 332 972 l 332 628 l 329 364 l 768 972 m 438 1293 b 475 1222 444 1261 456 1237 b 551 1200 494 1207 519 1200 b 627 1222 584 1200 609 1207 b 665 1293 645 1237 658 1261 l 801 1254 b 551 1046 775 1115 692 1046 b 300 1254 412 1046 328 1115 "},"К":{"ha":950,"x_min":0,"x_max":0,"o":"m 674 0 l 332 386 l 332 0 l 106 0 l 106 972 l 332 972 l 332 592 l 651 972 l 932 972 l 522 496 l 969 0 "},"Л":{"ha":1094,"x_min":0,"x_max":0,"o":"m 989 0 l 763 0 l 763 764 l 451 764 l 438 478 b 383 211 432 368 414 279 b 259 58 352 144 310 92 b 68 -17 208 23 144 -2 l 25 189 b 129 235 69 199 104 214 b 188 331 154 255 174 287 b 217 518 203 375 212 438 l 242 972 l 989 972 "},"М":{"ha":1283,"x_min":0,"x_max":0,"o":"m 1178 972 l 1178 0 l 951 0 l 951 608 l 665 258 l 621 258 l 332 610 l 332 0 l 106 0 l 106 972 l 310 972 l 642 558 l 974 972 "},"Н":{"ha":1079,"x_min":0,"x_max":0,"o":"m 972 972 l 972 0 l 746 0 l 746 390 l 333 390 l 333 0 l 106 0 l 106 972 l 333 972 l 333 596 l 746 596 l 746 972 "},"О":{"ha":1147,"x_min":0,"x_max":0,"o":"m 298 40 b 115 218 219 82 158 141 b 50 486 72 295 50 384 b 115 754 50 588 72 677 b 298 933 158 831 219 891 b 574 996 377 975 469 996 b 849 933 678 996 770 975 b 1033 754 928 891 990 831 b 1097 486 1076 677 1097 588 b 1033 218 1097 384 1076 295 b 849 40 990 141 928 82 b 574 -24 770 -3 678 -24 b 298 40 469 -24 377 -3 m 728 217 b 833 325 773 243 808 279 b 869 486 857 371 869 425 b 833 647 869 547 857 601 b 728 755 808 694 773 729 b 574 793 684 780 632 793 b 419 755 515 793 464 780 b 316 647 375 729 341 694 b 279 486 291 601 279 547 b 316 325 279 425 291 371 b 419 217 341 279 375 243 b 574 179 464 192 515 179 b 728 217 632 179 684 192 "},"П":{"ha":1086,"x_min":0,"x_max":0,"o":"m 981 972 l 981 0 l 746 0 l 746 763 l 342 763 l 342 0 l 106 0 l 106 972 "},"Р":{"ha":969,"x_min":0,"x_max":0,"o":"m 767 930 b 897 808 823 902 867 861 b 943 624 928 756 943 694 b 897 439 943 553 928 492 b 767 317 867 386 823 346 b 571 275 711 289 646 275 l 333 275 l 333 0 l 106 0 l 106 972 l 571 972 b 767 930 646 972 711 958 m 674 514 b 717 622 703 541 717 577 b 674 731 717 668 703 704 b 560 771 646 757 608 771 l 332 771 l 332 474 l 560 474 b 674 514 608 474 646 487 "},"С":{"ha":978,"x_min":0,"x_max":0,"o":"m 298 42 b 115 221 219 84 158 144 b 50 486 72 298 50 386 b 116 752 50 586 72 675 b 300 931 160 829 221 889 b 569 994 379 973 469 994 b 939 843 713 994 836 944 l 799 703 b 575 792 737 762 662 792 b 420 753 517 792 465 779 b 316 646 375 728 341 692 b 279 486 291 600 279 546 b 316 326 279 426 291 373 b 420 219 341 280 375 244 b 575 181 465 193 517 181 b 708 206 621 181 666 189 b 819 278 751 222 788 246 l 953 129 b 574 -22 848 28 722 -22 b 298 42 469 -22 377 -1 "},"Т":{"ha":864,"x_min":0,"x_max":0,"o":"m 843 774 l 546 774 l 546 0 l 318 0 l 318 774 l 22 774 l 22 972 l 843 972 "},"У":{"ha":1001,"x_min":0,"x_max":0,"o":"m 640 232 b 546 78 608 166 576 115 b 445 0 515 42 482 16 b 313 -24 409 -16 364 -24 b 207 -12 275 -24 240 -20 b 119 22 174 -4 144 7 l 197 199 b 283 178 225 185 254 178 b 400 251 334 178 373 202 l 408 265 l 10 972 l 276 972 l 431 685 l 525 489 l 617 685 l 756 972 l 1011 972 "}}}
